SplineFontDB: 3.0
FontName: TitilliumWeb-Thin
FullName: Titillium WebThin
FamilyName: Titillium Web
Weight: Extra-Light
Copyright: Copyright (c) 2009-2011 by Accademia di Belle Arti di Urbino and students of MA course of Visual design. Some rights reserved.
Version: 1.001;PS 57.000;hotconv 1.0.70;makeotf.lib2.5.55311
ItalicAngle: 0
UnderlinePosition: -80
UnderlineWidth: 30
Ascent: 800
Descent: 200
sfntRevision: 0x00010000
LayerCount: 2
Layer: 0 1 "Back"  1
Layer: 1 1 "Fore"  0
XUID: [1021 438 59182608 11525547]
FSType: 8
OS2Version: 3
OS2_WeightWidthSlopeOnly: 0
OS2_UseTypoMetrics: 1
CreationTime: 1349090287
ModificationTime: 1349108894
PfmFamily: 81
TTFWeight: 200
TTFWidth: 5
LineGap: 0
VLineGap: 0
Panose: 0 0 3 0 0 0 0 0 0 0
OS2TypoAscent: 1133
OS2TypoAOffset: 0
OS2TypoDescent: -388
OS2TypoDOffset: 0
OS2TypoLinegap: 0
OS2WinAscent: 1133
OS2WinAOffset: 0
OS2WinDescent: 388
OS2WinDOffset: 0
HheadAscent: 1133
HheadAOffset: 0
HheadDescent: -388
HheadDOffset: 0
OS2SubXSize: 650
OS2SubYSize: 600
OS2SubXOff: 0
OS2SubYOff: 75
OS2SupXSize: 650
OS2SupYSize: 600
OS2SupXOff: 0
OS2SupYOff: 350
OS2StrikeYSize: 30
OS2StrikeYPos: 300
OS2Vendor: 'UKWN'
OS2CodePages: 20000093.00000000
OS2UnicodeRanges: 00000007.00000001.00000000.00000000
Lookup: 1 0 0 "'locl' Localized Forms in Latin lookup 0"  {"'locl' Localized Forms in Latin lookup 0 subtable"  } ['locl' ('DFLT' <'dflt' > 'latn' <'dflt' > ) ]
Lookup: 1 0 0 "'frac' Diagonal Fractions in Latin lookup 1"  {"'frac' Diagonal Fractions in Latin lookup 1 subtable"  } ['frac' ('DFLT' <'dflt' > 'latn' <'dflt' > ) ]
Lookup: 6 0 0 "'frac' Diagonal Fractions in Latin lookup 2"  {"'frac' Diagonal Fractions in Latin lookup 2 subtable"  } ['frac' ('DFLT' <'dflt' > 'latn' <'dflt' > ) ]
Lookup: 1 0 0 "'frac' Diagonal Fractions in Latin lookup 3"  {"'frac' Diagonal Fractions in Latin lookup 3 subtable"  } ['frac' ('DFLT' <'dflt' > 'latn' <'dflt' > ) ]

StartChar: exclam
Encoding: 33 33 4
Width: 225
GlyphClass: 2
Flags: W
LayerCount: 2
Fore
SplineSet
93 0 m 1,0,-1
 93 80 l 1,1,-1
 133 80 l 1,2,-1
 133 0 l 1,3,-1
 93 0 l 1,0,-1
95 214 m 1,4,-1
 95 700 l 1,5,-1
 130 700 l 1,6,-1
 130 214 l 1,7,-1
 95 214 l 1,4,-1
EndSplineSet
EndChar

StartChar: quotedbl
Encoding: 34 34 5
Width: 348
GlyphClass: 2
Flags: W
LayerCount: 2
Fore
SplineSet
271 490 m 1,0,-1
 238 490 l 1,1,-1
 235 700 l 1,2,-1
 274 700 l 1,3,-1
 271 490 l 1,0,-1
110 490 m 1,4,-1
 77 490 l 1,5,-1
 74 700 l 1,6,-1
 113 700 l 1,7,-1
 110 490 l 1,4,-1
EndSplineSet
EndChar

StartChar: numbersign
Encoding: 35 35 6
Width: 560
GlyphClass: 2
Flags: W
LayerCount: 2
Fore
SplineSet
530 190 m 1,0,-1
 410 190 l 1,1,-1
 410 0 l 1,2,-1
 374 0 l 1,3,-1
 374 190 l 1,4,-1
 186 190 l 1,5,-1
 186 0 l 1,6,-1
 150 0 l 1,7,-1
 150 190 l 1,8,-1
 30 190 l 1,9,-1
 30 222 l 1,10,-1
 150 222 l 1,11,-1
 150 448 l 1,12,-1
 30 448 l 1,13,-1
 30 480 l 1,14,-1
 150 480 l 1,15,-1
 150 670 l 1,16,-1
 186 670 l 1,17,-1
 186 480 l 1,18,-1
 374 480 l 1,19,-1
 374 670 l 1,20,-1
 410 670 l 1,21,-1
 410 480 l 1,22,-1
 530 480 l 1,23,-1
 530 448 l 1,24,-1
 410 448 l 1,25,-1
 410 222 l 1,26,-1
 530 222 l 1,27,-1
 530 190 l 1,0,-1
374 222 m 1,28,-1
 374 448 l 1,29,-1
 186 448 l 1,30,-1
 186 222 l 1,31,-1
 374 222 l 1,28,-1
EndSplineSet
EndChar

StartChar: dollar
Encoding: 36 36 7
Width: 560
GlyphClass: 2
Flags: W
LayerCount: 2
Fore
SplineSet
484 191 m 0,0,1
 484 84 484 84 435 38.5 c 128,-1,2
 386 -7 386 -7 285 -7 c 0,3,4
 270 -7 270 -7 261 -6 c 1,5,-1
 247 -120 l 1,6,7
 212 -117 212 -117 212 -113 c 2,8,-1
 226 -5 l 1,9,-1
 83 8 l 1,10,-1
 87 41 l 1,11,12
 164 31 164 31 230 27 c 1,13,-1
 269 326 l 1,14,15
 167 342 167 342 123.5 376.5 c 128,-1,16
 80 411 80 411 80 503 c 0,17,18
 80 669 80 669 283 669 c 0,19,20
 303 669 303 669 314 668 c 1,21,-1
 330 790 l 1,22,-1
 365 790 l 1,23,-1
 349 666 l 1,24,-1
 470 654 l 1,25,-1
 466 621 l 1,26,27
 401 629 401 629 344 633 c 1,28,-1
 308 355 l 1,29,30
 402 339 402 339 443 305 c 128,-1,31
 484 271 484 271 484 191 c 0,0,1
115 505 m 0,32,33
 115 429 115 429 150 401.5 c 128,-1,34
 185 374 185 374 273 360 c 1,35,-1
 310 636 l 1,36,37
 299 637 299 637 283 637 c 0,38,39
 115 637 115 637 115 505 c 0,32,33
284 25 m 2,40,41
 449 25 449 25 449 178 c 0,42,43
 449 253 449 253 416.5 280 c 128,-1,44
 384 307 384 307 304 321 c 1,45,-1
 265 25 l 1,46,-1
 284 25 l 2,40,41
EndSplineSet
EndChar

StartChar: percent
Encoding: 37 37 8
Width: 560
GlyphClass: 2
Flags: W
LayerCount: 2
Fore
SplineSet
175 -1 m 1,0,-1
 360 669 l 1,1,-1
 392 660 l 1,2,-1
 206 -9 l 1,3,-1
 175 -1 l 1,0,-1
141 669 m 128,-1,5
 244 669 244 669 244 535 c 0,6,7
 244 466 244 466 216 431.5 c 128,-1,8
 188 397 188 397 140.5 397 c 128,-1,9
 93 397 93 397 65.5 431.5 c 128,-1,10
 38 466 38 466 38 536 c 0,11,4
 38 669 38 669 141 669 c 128,-1,5
73 536 m 0,12,13
 73 429 73 429 141 429 c 128,-1,14
 209 429 209 429 209 535 c 0,15,16
 209 587 209 587 193.5 612 c 128,-1,17
 178 637 178 637 141.5 637 c 128,-1,18
 105 637 105 637 89 612 c 128,-1,19
 73 587 73 587 73 536 c 0,12,13
420 263 m 128,-1,21
 523 263 523 263 523 129 c 0,22,23
 523 60 523 60 495 25.5 c 128,-1,24
 467 -9 467 -9 419.5 -9 c 128,-1,25
 372 -9 372 -9 344.5 25.5 c 128,-1,26
 317 60 317 60 317 130 c 0,27,20
 317 263 317 263 420 263 c 128,-1,21
352 130 m 0,28,29
 352 23 352 23 420 23 c 128,-1,30
 488 23 488 23 488 129 c 0,31,32
 488 181 488 181 472.5 206 c 128,-1,33
 457 231 457 231 420.5 231 c 128,-1,34
 384 231 384 231 368 206 c 128,-1,35
 352 181 352 181 352 130 c 0,28,29
EndSplineSet
EndChar

StartChar: ampersand
Encoding: 38 38 9
Width: 680
GlyphClass: 2
Flags: W
LayerCount: 2
Fore
SplineSet
198 654.5 m 128,-1,1
 237 694 237 694 313.5 694 c 128,-1,2
 390 694 390 694 427.5 655 c 128,-1,3
 465 616 465 616 465 546.5 c 128,-1,4
 465 477 465 477 427 436.5 c 128,-1,5
 389 396 389 396 300 367 c 1,6,-1
 487 182 l 1,7,8
 498 212 498 212 508.5 268.5 c 128,-1,9
 519 325 519 325 522 367 c 1,10,-1
 557 367 l 1,11,12
 546 237 546 237 514 156 c 1,13,-1
 654 19 l 1,14,-1
 630 -7 l 1,15,-1
 499 123 l 1,16,17
 433 -9 433 -9 277 -9 c 0,18,19
 151 -9 151 -9 99 46 c 128,-1,20
 47 101 47 101 47 199 c 128,-1,21
 47 297 47 297 85 340.5 c 128,-1,22
 123 384 123 384 210 409 c 1,23,24
 178 444 178 444 168.5 474 c 128,-1,25
 159 504 159 504 159 550 c 0,26,0
 159 615 159 615 198 654.5 c 128,-1,1
279 24 m 0,27,28
 416 24 416 24 473 148 c 1,29,-1
 236 383 l 1,30,31
 150 360 150 360 116 323 c 128,-1,32
 82 286 82 286 82 201 c 128,-1,33
 82 116 82 116 128 70 c 128,-1,34
 174 24 174 24 279 24 c 0,27,28
194 550 m 0,35,36
 194 472 194 472 239 427 c 2,37,-1
 275 391 l 1,38,39
 362 421 362 421 396 454 c 128,-1,40
 430 487 430 487 430 550 c 0,41,42
 430 662 430 662 312 662 c 128,-1,43
 194 662 194 662 194 550 c 0,35,36
EndSplineSet
EndChar

StartChar: quotesingle
Encoding: 39 39 10
Width: 187
GlyphClass: 2
Flags: W
LayerCount: 2
Fore
SplineSet
76 490 m 1,0,-1
 74 700 l 1,1,-1
 114 700 l 1,2,-1
 109 490 l 1,3,-1
 76 490 l 1,0,-1
EndSplineSet
EndChar

StartChar: parenleft
Encoding: 40 40 11
Width: 234
GlyphClass: 2
Flags: W
LayerCount: 2
Fore
SplineSet
96 301.5 m 128,-1,1
 96 218 96 218 120 111.5 c 128,-1,2
 144 5 144 5 168 -60 c 2,3,-1
 191 -125 l 1,4,-1
 156 -125 l 1,5,6
 145 -100 145 -100 129 -57 c 128,-1,7
 113 -14 113 -14 86 99 c 128,-1,8
 59 212 59 212 59 301 c 128,-1,9
 59 390 59 390 83.5 502 c 128,-1,10
 108 614 108 614 132 682 c 2,11,-1
 156 750 l 1,12,-1
 191 750 l 1,13,14
 157 661 157 661 126.5 523 c 128,-1,0
 96 385 96 385 96 301.5 c 128,-1,1
EndSplineSet
Substitution2: "'case' Case-Sensitive Forms in Latin lookup 4 subtable" parenleft.cap
EndChar

StartChar: parenright
Encoding: 41 41 12
Width: 234
GlyphClass: 2
Flags: W
LayerCount: 2
Fore
SplineSet
176 301 m 128,-1,1
 176 212 176 212 152 105.5 c 128,-1,2
 128 -1 128 -1 104 -63 c 2,3,-1
 79 -125 l 1,4,-1
 44 -125 l 1,5,6
 78 -41 78 -41 108.5 88.5 c 128,-1,7
 139 218 139 218 139 301.5 c 128,-1,8
 139 385 139 385 115.5 497.5 c 128,-1,9
 92 610 92 610 68 680 c 2,10,-1
 44 750 l 1,11,-1
 79 750 l 1,12,13
 90 722 90 722 106 675 c 128,-1,14
 122 628 122 628 149 509 c 128,-1,0
 176 390 176 390 176 301 c 128,-1,1
EndSplineSet
Substitution2: "'case' Case-Sensitive Forms in Latin lookup 4 subtable" parenright.cap
EndChar

StartChar: asterisk
Encoding: 42 42 13
Width: 417
GlyphClass: 2
Flags: W
LayerCount: 2
Fore
SplineSet
362 519 m 1,0,-1
 225 519 l 1,1,-1
 267 390 l 1,2,-1
 235 380 l 1,3,-1
 193 510 l 1,4,-1
 83 431 l 1,5,-1
 64 458 l 1,6,-1
 174 538 l 1,7,-1
 65 618 l 1,8,-1
 85 645 l 1,9,-1
 195 564 l 1,10,-1
 237 693 l 1,11,-1
 269 683 l 1,12,-1
 227 553 l 1,13,-1
 362 553 l 1,14,-1
 362 519 l 1,0,-1
EndSplineSet
EndChar

StartChar: plus
Encoding: 43 43 14
Width: 560
GlyphClass: 2
Flags: W
LayerCount: 2
Fore
SplineSet
59 234 m 1,0,-1
 59 268 l 1,1,-1
 261 268 l 1,2,-1
 261 480 l 1,3,-1
 297 480 l 1,4,-1
 297 268 l 1,5,-1
 501 268 l 1,6,-1
 501 234 l 1,7,-1
 297 234 l 1,8,-1
 297 20 l 1,9,-1
 261 20 l 1,10,-1
 261 234 l 1,11,-1
 59 234 l 1,0,-1
EndSplineSet
EndChar

StartChar: comma
Encoding: 44 44 15
Width: 197
GlyphClass: 2
Flags: W
LayerCount: 2
Fore
SplineSet
44 -123 m 1,0,-1
 86 87 l 1,1,-1
 126 87 l 1,2,-1
 75 -123 l 1,3,-1
 44 -123 l 1,0,-1
EndSplineSet
EndChar

StartChar: hyphen
Encoding: 45 45 16
Width: 458
GlyphClass: 2
Flags: W
LayerCount: 2
Fore
SplineSet
76 264 m 1,0,-1
 76 298 l 1,1,-1
 383 298 l 1,2,-1
 383 264 l 1,3,-1
 76 264 l 1,0,-1
EndSplineSet
EndChar

StartChar: period
Encoding: 46 46 17
Width: 190
GlyphClass: 2
Flags: W
LayerCount: 2
Fore
SplineSet
75 0 m 1,0,-1
 75 80 l 1,1,-1
 115 80 l 1,2,-1
 115 0 l 1,3,-1
 75 0 l 1,0,-1
EndSplineSet
EndChar

StartChar: slash
Encoding: 47 47 18
Width: 376
GlyphClass: 2
Flags: W
LayerCount: 2
Fore
SplineSet
33 12 m 1,0,-1
 310 702 l 1,1,-1
 343 688 l 1,2,-1
 66 -1 l 1,3,-1
 33 12 l 1,0,-1
EndSplineSet
Substitution2: "'frac' Diagonal Fractions in Latin lookup 3 subtable" fraction
EndChar

StartChar: zero
Encoding: 48 48 19
Width: 560
GlyphClass: 2
Flags: W
LayerCount: 2
Fore
SplineSet
182 654.5 m 128,-1,1
 222 670 222 670 280 670 c 128,-1,2
 338 670 338 670 378.5 654.5 c 128,-1,3
 419 639 419 639 450 600 c 0,4,5
 510 526 510 526 510 316 c 0,6,7
 510 130 510 130 448 58 c 0,8,9
 417 22 417 22 376.5 6.5 c 128,-1,10
 336 -9 336 -9 280 -9 c 128,-1,11
 224 -9 224 -9 183.5 6 c 128,-1,12
 143 21 143 21 112 56 c 0,13,14
 49 127 49 127 49 315 c 0,15,16
 49 524 49 524 110 600 c 0,17,0
 142 639 142 639 182 654.5 c 128,-1,1
387.5 610 m 128,-1,19
 347 636 347 636 279.5 636 c 128,-1,20
 212 636 212 636 172 610 c 0,21,22
 87 556 87 556 87 314 c 0,23,24
 87 143 87 143 139 81 c 0,25,26
 165 50 165 50 198.5 37.5 c 128,-1,27
 232 25 232 25 288 25 c 128,-1,28
 344 25 344 25 384 47.5 c 128,-1,29
 424 70 424 70 448 135.5 c 128,-1,30
 472 201 472 201 472 321.5 c 128,-1,31
 472 442 472 442 450 513 c 128,-1,18
 428 584 428 584 387.5 610 c 128,-1,19
EndSplineSet
Substitution2: "'frac' Diagonal Fractions in Latin lookup 1 subtable" zerosuperior
EndChar

StartChar: one
Encoding: 49 49 20
Width: 560
GlyphClass: 2
Flags: W
LayerCount: 2
Fore
SplineSet
369 660 m 1,0,-1
 369 0 l 1,1,-1
 333 0 l 1,2,-1
 333 621 l 1,3,-1
 146 495 l 1,4,-1
 129 524 l 1,5,-1
 333 660 l 1,6,-1
 369 660 l 1,0,-1
EndSplineSet
Substitution2: "'frac' Diagonal Fractions in Latin lookup 1 subtable" onesuperior
EndChar

StartChar: two
Encoding: 50 50 21
Width: 560
GlyphClass: 2
Flags: W
LayerCount: 2
Fore
SplineSet
490 0 m 1,0,-1
 72 0 l 1,1,-1
 72 31 l 1,2,-1
 299 273 l 2,3,4
 348 325 348 325 371 352 c 128,-1,5
 394 379 394 379 412.5 419 c 128,-1,6
 431 459 431 459 431 500 c 0,7,8
 431 573 431 573 389.5 604 c 128,-1,9
 348 635 348 635 263 635 c 0,10,11
 195 635 195 635 111 616 c 1,12,-1
 83 609 l 1,13,-1
 78 643 l 1,14,15
 171 669 171 669 268.5 669 c 128,-1,16
 366 669 366 669 417.5 630 c 128,-1,17
 469 591 469 591 469 500 c 0,18,19
 469 433 469 433 439 383.5 c 128,-1,20
 409 334 409 334 338 261 c 1,21,-1
 121 32 l 1,22,-1
 490 32 l 1,23,-1
 490 0 l 1,0,-1
EndSplineSet
Substitution2: "'frac' Diagonal Fractions in Latin lookup 1 subtable" twosuperior
EndChar

StartChar: three
Encoding: 51 51 22
Width: 560
GlyphClass: 2
Flags: W
LayerCount: 2
Fore
SplineSet
79 648 m 1,0,1
 174 670 174 670 277 670 c 128,-1,2
 380 670 380 670 426 630.5 c 128,-1,3
 472 591 472 591 472 505 c 0,4,5
 472 470 472 470 460.5 441.5 c 128,-1,6
 449 413 449 413 433 397.5 c 128,-1,7
 417 382 417 382 400 371 c 0,8,9
 371 353 371 353 359 353 c 1,10,11
 424 336 424 336 457.5 300 c 128,-1,12
 491 264 491 264 491 174 c 0,13,14
 491 -9 491 -9 283 -9 c 0,15,16
 194 -9 194 -9 96 8 c 1,17,-1
 66 14 l 1,18,-1
 72 48 l 1,19,20
 177 25 177 25 283 25 c 0,21,22
 453 26 453 26 453 179 c 0,23,24
 453 261 453 261 409.5 294.5 c 128,-1,25
 366 328 366 328 291 332 c 1,26,-1
 157 332 l 1,27,-1
 157 366 l 1,28,-1
 290 366 l 2,29,30
 339 366 339 366 386.5 403 c 128,-1,31
 434 440 434 440 434 508.5 c 128,-1,32
 434 577 434 577 398.5 606.5 c 128,-1,33
 363 636 363 636 275 636 c 128,-1,34
 187 636 187 636 110 620 c 1,35,-1
 85 614 l 1,36,-1
 79 648 l 1,0,1
EndSplineSet
Substitution2: "'frac' Diagonal Fractions in Latin lookup 1 subtable" threesuperior
EndChar

StartChar: four
Encoding: 52 52 23
Width: 560
GlyphClass: 2
Flags: W
LayerCount: 2
Fore
SplineSet
387 0 m 1,0,-1
 387 142 l 1,1,-1
 40 142 l 1,2,-1
 40 172 l 1,3,-1
 245 660 l 1,4,-1
 284 660 l 1,5,-1
 83 176 l 1,6,-1
 387 176 l 1,7,-1
 387 395 l 1,8,-1
 423 395 l 1,9,-1
 423 176 l 1,10,-1
 521 176 l 1,11,-1
 521 142 l 1,12,-1
 423 142 l 1,13,-1
 423 0 l 1,14,-1
 387 0 l 1,0,-1
EndSplineSet
Substitution2: "'frac' Diagonal Fractions in Latin lookup 1 subtable" foursuperior
EndChar

StartChar: five
Encoding: 53 53 24
Width: 560
GlyphClass: 2
Flags: W
LayerCount: 2
Fore
SplineSet
468 660 m 1,0,-1
 468 624 l 1,1,-1
 130 624 l 1,2,-1
 112 361 l 1,3,4
 146 381 146 381 198 396.5 c 128,-1,5
 250 412 250 412 291 412 c 0,6,7
 499 412 499 412 499 220 c 0,8,9
 499 107 499 107 441.5 50 c 128,-1,10
 384 -7 384 -7 281 -7 c 0,11,12
 192 -7 192 -7 102 11 c 2,13,-1
 72 17 l 1,14,-1
 77 51 l 1,15,16
 187 27 187 27 275 27 c 128,-1,17
 363 27 363 27 412 77 c 128,-1,18
 461 127 461 127 461 220 c 0,19,20
 461 378 461 378 290 378 c 0,21,22
 250 378 250 378 205.5 364 c 128,-1,23
 161 350 161 350 136 336 c 2,24,-1
 111 323 l 1,25,-1
 77 327 l 1,26,-1
 96 660 l 1,27,-1
 468 660 l 1,0,-1
EndSplineSet
Substitution2: "'frac' Diagonal Fractions in Latin lookup 1 subtable" fivesuperior
EndChar

StartChar: six
Encoding: 54 54 25
Width: 560
GlyphClass: 2
Flags: W
LayerCount: 2
Fore
SplineSet
472 626 m 1,0,1
 390 635 390 635 298.5 635 c 128,-1,2
 207 635 207 635 153 564.5 c 128,-1,3
 99 494 99 494 98 358 c 1,4,-1
 126 370 l 1,5,6
 155 381 155 381 203 393.5 c 128,-1,7
 251 406 251 406 290 406 c 0,8,9
 508 406 508 406 508 208 c 0,10,11
 508 105 508 105 450.5 48 c 128,-1,12
 393 -9 393 -9 284 -9 c 0,13,14
 60 -9 60 -9 60 337 c 0,15,16
 60 505 60 505 125 587 c 128,-1,17
 190 669 190 669 306 669 c 0,18,19
 380 669 380 669 452 662 c 1,20,-1
 476 659 l 1,21,-1
 472 626 l 1,0,1
289 372 m 0,22,23
 248 372 248 372 200 360 c 128,-1,24
 152 348 152 348 124 336 c 1,25,-1
 97 323 l 1,26,27
 102 25 102 25 284 25 c 0,28,29
 375 25 375 25 422.5 72 c 128,-1,30
 470 119 470 119 470 204.5 c 128,-1,31
 470 290 470 290 422.5 331 c 128,-1,32
 375 372 375 372 289 372 c 0,22,23
EndSplineSet
Substitution2: "'frac' Diagonal Fractions in Latin lookup 1 subtable" sixsuperior
EndChar

StartChar: seven
Encoding: 55 55 26
Width: 560
GlyphClass: 2
Flags: W
LayerCount: 2
Fore
SplineSet
83 626 m 1,0,-1
 83 660 l 1,1,-1
 485 660 l 1,2,-1
 485 595 l 1,3,-1
 217 -9 l 1,4,-1
 182 5 l 1,5,-1
 447 603 l 1,6,-1
 447 626 l 1,7,-1
 83 626 l 1,0,-1
EndSplineSet
Substitution2: "'frac' Diagonal Fractions in Latin lookup 1 subtable" sevensuperior
EndChar

StartChar: eight
Encoding: 56 56 27
Width: 560
GlyphClass: 2
Flags: W
LayerCount: 2
Fore
SplineSet
278 670 m 0,0,1
 389 670 389 670 452 629.5 c 128,-1,2
 515 589 515 589 515 505 c 0,3,4
 515 440 515 440 482 404 c 128,-1,5
 449 368 449 368 379 348 c 1,6,7
 449 328 449 328 487 289.5 c 128,-1,8
 525 251 525 251 525 179 c 0,9,10
 525 75 525 75 458.5 33 c 128,-1,11
 392 -9 392 -9 281 -9 c 128,-1,12
 170 -9 170 -9 102 32.5 c 128,-1,13
 34 74 34 74 34 168 c 0,14,15
 34 244 34 244 67.5 282 c 128,-1,16
 101 320 101 320 169 348 c 1,17,18
 107 370 107 370 76 406 c 128,-1,19
 45 442 45 442 45 506 c 0,20,21
 45 670 45 670 278 670 c 0,0,1
278 25 m 0,22,23
 376 25 376 25 431.5 59 c 128,-1,24
 487 93 487 93 487 178 c 0,25,26
 487 255 487 255 440 286 c 0,27,28
 415 303 415 303 392 311.5 c 128,-1,29
 369 320 369 320 331 330 c 1,30,-1
 214 330 l 1,31,32
 144 313 144 313 108.5 277 c 128,-1,33
 73 241 73 241 73 169 c 0,34,35
 73 25 73 25 278 25 c 0,22,23
425 605 m 128,-1,37
 374 636 374 636 278.5 636 c 128,-1,38
 183 636 183 636 133 606 c 128,-1,39
 83 576 83 576 83 511 c 128,-1,40
 83 446 83 446 114.5 414 c 128,-1,41
 146 382 146 382 214 363 c 1,42,-1
 331 363 l 1,43,44
 404 380 404 380 440 413 c 128,-1,45
 476 446 476 446 476 510 c 128,-1,36
 476 574 476 574 425 605 c 128,-1,37
EndSplineSet
Substitution2: "'frac' Diagonal Fractions in Latin lookup 1 subtable" eightsuperior
EndChar

StartChar: nine
Encoding: 57 57 28
Width: 560
GlyphClass: 2
Flags: W
LayerCount: 2
Fore
SplineSet
247 25 m 0,0,1
 354 25 354 25 407 91 c 128,-1,2
 460 157 460 157 461 300 c 1,3,4
 347 256 347 256 259 256 c 0,5,6
 50 256 50 256 50 451 c 0,7,8
 50 551 50 551 110 610 c 128,-1,9
 170 669 170 669 270 669 c 0,10,11
 387 669 387 669 443 578.5 c 128,-1,12
 499 488 499 488 499 315.5 c 128,-1,13
 499 143 499 143 436 67 c 128,-1,14
 373 -9 373 -9 247 -9 c 0,15,16
 165 -9 165 -9 101 -1 c 2,17,-1
 77 2 l 1,18,-1
 81 35 l 1,19,20
 163 25 163 25 247 25 c 0,0,1
261 290 m 0,21,22
 296 290 296 290 346.5 301 c 128,-1,23
 397 312 397 312 430 324 c 2,24,-1
 462 335 l 1,25,26
 455 635 455 635 270 635 c 0,27,28
 186 635 186 635 137 585 c 128,-1,29
 88 535 88 535 88 451 c 128,-1,30
 88 367 88 367 131 328.5 c 128,-1,31
 174 290 174 290 261 290 c 0,21,22
EndSplineSet
Substitution2: "'frac' Diagonal Fractions in Latin lookup 1 subtable" ninesuperior
EndChar

StartChar: colon
Encoding: 58 58 29
Width: 191
GlyphClass: 2
Flags: W
LayerCount: 2
Fore
SplineSet
75 344 m 1,0,-1
 75 424 l 1,1,-1
 115 424 l 1,2,-1
 115 344 l 1,3,-1
 75 344 l 1,0,-1
75 0 m 1,4,-1
 75 80 l 1,5,-1
 115 80 l 1,6,-1
 115 0 l 1,7,-1
 75 0 l 1,4,-1
EndSplineSet
EndChar

StartChar: semicolon
Encoding: 59 59 30
Width: 228
GlyphClass: 2
Flags: W
LayerCount: 2
Fore
SplineSet
103 87 m 1,0,-1
 145 87 l 1,1,-1
 93 -123 l 1,2,-1
 62 -123 l 1,3,-1
 103 87 l 1,0,-1
100 344 m 1,4,-1
 100 424 l 1,5,-1
 140 424 l 1,6,-1
 140 344 l 1,7,-1
 100 344 l 1,4,-1
EndSplineSet
EndChar

StartChar: less
Encoding: 60 60 31
Width: 560
GlyphClass: 2
Flags: W
LayerCount: 2
Fore
SplineSet
481 446 m 1,0,-1
 90 251 l 1,1,-1
 481 56 l 1,2,-1
 481 15 l 1,3,-1
 57 233 l 1,4,-1
 57 269 l 1,5,-1
 481 485 l 1,6,-1
 481 446 l 1,0,-1
EndSplineSet
EndChar

StartChar: equal
Encoding: 61 61 32
Width: 560
GlyphClass: 2
Flags: W
LayerCount: 2
Fore
SplineSet
68 318 m 1,0,-1
 68 352 l 1,1,-1
 492 352 l 1,2,-1
 492 318 l 1,3,-1
 68 318 l 1,0,-1
68 149 m 1,4,-1
 68 183 l 1,5,-1
 492 183 l 1,6,-1
 492 149 l 1,7,-1
 68 149 l 1,4,-1
EndSplineSet
EndChar

StartChar: greater
Encoding: 62 62 33
Width: 560
GlyphClass: 2
Flags: W
LayerCount: 2
Fore
SplineSet
469 251 m 1,0,-1
 78 446 l 1,1,-1
 78 485 l 1,2,-1
 502 269 l 1,3,-1
 502 233 l 1,4,-1
 78 15 l 1,5,-1
 78 56 l 1,6,-1
 469 251 l 1,0,-1
EndSplineSet
EndChar

StartChar: question
Encoding: 63 63 34
Width: 453
GlyphClass: 2
Flags: W
LayerCount: 2
Fore
SplineSet
407 551 m 0,0,1
 407 490 407 490 388.5 457.5 c 128,-1,2
 370 425 370 425 320.5 381.5 c 128,-1,3
 271 338 271 338 255.5 323 c 128,-1,4
 240 308 240 308 224 281 c 128,-1,5
 208 254 208 254 208 228 c 2,6,-1
 208 190 l 1,7,-1
 174 190 l 1,8,9
 173 212 173 212 173 233 c 128,-1,10
 173 254 173 254 181 275.5 c 128,-1,11
 189 297 189 297 208 320 c 1,12,13
 238 353 238 353 287 397 c 128,-1,14
 336 441 336 441 354 471 c 128,-1,15
 372 501 372 501 372 551 c 0,16,17
 372 620 372 620 331.5 648 c 128,-1,18
 291 676 291 676 207 676 c 0,19,20
 164 676 164 676 76 655 c 2,21,-1
 46 648 l 1,22,-1
 41 682 l 1,23,24
 153 709 153 709 207 709 c 0,25,26
 306 709 306 709 356.5 672.5 c 128,-1,27
 407 636 407 636 407 551 c 0,0,1
171 1 m 1,28,-1
 171 81 l 1,29,-1
 211 81 l 1,30,-1
 211 1 l 1,31,-1
 171 1 l 1,28,-1
EndSplineSet
EndChar

StartChar: at
Encoding: 64 64 35
Width: 979
GlyphClass: 2
Flags: W
LayerCount: 2
Fore
SplineSet
925 305 m 2,0,-1
 925 288 l 2,1,2
 925 109 925 109 890 50 c 0,3,4
 878 28 878 28 866.5 16.5 c 128,-1,5
 855 5 855 5 836 -1 c 0,6,7
 806 -10 806 -10 770.5 -10 c 128,-1,8
 735 -10 735 -10 714 -3.5 c 128,-1,9
 693 3 693 3 682 12 c 1,10,11
 660 33 660 33 655 53 c 1,12,13
 614 29 614 29 557 10 c 128,-1,14
 500 -9 500 -9 470 -9 c 128,-1,15
 440 -9 440 -9 422 -6.5 c 128,-1,16
 404 -4 404 -4 378 10 c 128,-1,17
 352 24 352 24 336 49 c 128,-1,18
 320 74 320 74 307.5 124 c 128,-1,19
 295 174 295 174 295 243 c 0,20,21
 295 379 295 379 341 444 c 128,-1,22
 387 509 387 509 505 509 c 0,23,24
 558 509 558 509 616 489 c 2,25,-1
 637 482 l 1,26,-1
 637 500 l 1,27,-1
 672 500 l 1,28,-1
 672 300 l 2,29,30
 672 100 672 100 686 64 c 0,31,32
 691 50 691 50 702.5 37.5 c 128,-1,33
 714 25 714 25 728.5 22.5 c 128,-1,34
 743 20 743 20 768 20 c 128,-1,35
 793 20 793 20 807.5 23 c 128,-1,36
 822 26 822 26 840 40 c 128,-1,37
 858 54 858 54 867 82 c 0,38,39
 888 146 888 146 888 288 c 2,40,-1
 888 306 l 2,41,42
 888 507 888 507 800 597 c 128,-1,43
 712 687 712 687 501.5 687 c 128,-1,44
 291 687 291 687 194 591 c 128,-1,45
 97 495 97 495 97 261 c 0,46,47
 97 137 97 137 121 54 c 128,-1,48
 145 -29 145 -29 197.5 -77.5 c 128,-1,49
 250 -126 250 -126 323 -146.5 c 128,-1,50
 396 -167 396 -167 504 -167 c 1,51,-1
 647 -157 l 1,52,-1
 650 -190 l 1,53,54
 552 -199 552 -199 504 -199 c 0,55,56
 388 -199 388 -199 309 -177.5 c 128,-1,57
 230 -156 230 -156 172 -104 c 0,58,59
 60 -5 60 -5 60 251.5 c 128,-1,60
 60 508 60 508 168 613.5 c 128,-1,61
 276 719 276 719 503 719 c 128,-1,62
 730 719 730 719 827.5 620 c 128,-1,63
 925 521 925 521 925 305 c 2,0,-1
418.5 29.5 m 128,-1,65
 438 23 438 23 466.5 23 c 128,-1,66
 495 23 495 23 541 38 c 128,-1,67
 587 53 587 53 618 68 c 2,68,-1
 648 83 l 1,69,70
 637 197 637 197 637 300 c 2,71,-1
 637 450 l 1,72,73
 564 477 564 477 505 477 c 0,74,75
 404 477 404 477 367 419.5 c 128,-1,76
 330 362 330 362 330 240 c 0,77,78
 330 99 330 99 377 56 c 0,79,64
 399 36 399 36 418.5 29.5 c 128,-1,65
EndSplineSet
EndChar

StartChar: A
Encoding: 65 65 36
Width: 592
GlyphClass: 2
Flags: W
LayerCount: 2
Fore
SplineSet
28 0 m 1,0,-1
 243 700 l 1,1,-1
 349 700 l 1,2,-1
 564 0 l 1,3,-1
 528 0 l 1,4,-1
 463 215 l 1,5,-1
 129 215 l 1,6,-1
 64 0 l 1,7,-1
 28 0 l 1,0,-1
268 666 m 1,8,-1
 140 249 l 1,9,-1
 452 249 l 1,10,-1
 324 666 l 1,11,-1
 268 666 l 1,8,-1
EndSplineSet
Position2: "'cpsp' Capital Spacing in Latin lookup 0 subtable" dx=5 dy=0 dh=10 dv=0
EndChar

StartChar: B
Encoding: 66 66 37
Width: 620
GlyphClass: 2
Flags: W
LayerCount: 2
Fore
SplineSet
92 700 m 1,0,-1
 332 700 l 2,1,2
 534 700 534 700 534 527 c 0,3,4
 534 397 534 397 437 361 c 1,5,6
 561 327 561 327 561 193 c 0,7,8
 561 85 561 85 507.5 42.5 c 128,-1,9
 454 0 454 0 351 0 c 2,10,-1
 92 0 l 1,11,-1
 92 700 l 1,0,-1
343 341 m 2,12,-1
 128 341 l 1,13,-1
 128 34 l 1,14,-1
 351 34 l 2,15,16
 434 34 434 34 479 69.5 c 128,-1,17
 524 105 524 105 524 193 c 0,18,19
 524 341 524 341 343 341 c 2,12,-1
332 666 m 2,20,-1
 128 666 l 1,21,-1
 128 375 l 1,22,-1
 343 375 l 2,23,24
 424 375 424 375 460.5 412 c 128,-1,25
 497 449 497 449 497 524 c 128,-1,26
 497 599 497 599 457 632.5 c 128,-1,27
 417 666 417 666 332 666 c 2,20,-1
EndSplineSet
Position2: "'cpsp' Capital Spacing in Latin lookup 0 subtable" dx=5 dy=0 dh=10 dv=0
EndChar

StartChar: C
Encoding: 67 67 38
Width: 545
GlyphClass: 2
Flags: W
LayerCount: 2
Fore
SplineSet
501 11 m 1,0,1
 401 -9 401 -9 320.5 -9 c 128,-1,2
 240 -9 240 -9 190.5 14.5 c 128,-1,3
 141 38 141 38 114 87 c 128,-1,4
 87 136 87 136 77 197 c 128,-1,5
 67 258 67 258 67 338 c 128,-1,6
 67 418 67 418 72.5 469 c 128,-1,7
 78 520 78 520 93.5 568 c 128,-1,8
 109 616 109 616 136 645 c 0,9,10
 196 709 196 709 316 709 c 0,11,12
 404 709 404 709 501 690 c 1,13,-1
 498 655 l 1,14,15
 402 675 402 675 331.5 675 c 128,-1,16
 261 675 261 675 222 659 c 128,-1,17
 183 643 183 643 160.5 617.5 c 128,-1,18
 138 592 138 592 125.5 547.5 c 128,-1,19
 113 503 113 503 109 458 c 128,-1,20
 105 413 105 413 105 347 c 128,-1,21
 105 281 105 281 109 236 c 128,-1,22
 113 191 113 191 126 148 c 128,-1,23
 139 105 139 105 162 80 c 0,24,25
 213 25 213 25 316 25 c 0,26,27
 394 25 394 25 498 45 c 1,28,-1
 501 11 l 1,0,1
EndSplineSet
Position2: "'cpsp' Capital Spacing in Latin lookup 0 subtable" dx=5 dy=0 dh=10 dv=0
EndChar

StartChar: D
Encoding: 68 68 39
Width: 649
GlyphClass: 2
Flags: W
LayerCount: 2
Fore
SplineSet
352 0 m 2,0,-1
 92 0 l 1,1,-1
 92 700 l 1,2,-1
 352 700 l 2,3,4
 416 700 416 700 462.5 672 c 128,-1,5
 509 644 509 644 535.5 594.5 c 128,-1,6
 562 545 562 545 574 486.5 c 128,-1,7
 586 428 586 428 586 358 c 128,-1,8
 586 288 586 288 573.5 227 c 128,-1,9
 561 166 561 166 535 113.5 c 128,-1,10
 509 61 509 61 462 30.5 c 128,-1,11
 415 0 415 0 352 0 c 2,0,-1
538 243.5 m 128,-1,13
 548 298 548 298 548 369 c 128,-1,14
 548 440 548 440 531.5 505.5 c 128,-1,15
 515 571 515 571 469 618.5 c 128,-1,16
 423 666 423 666 352 666 c 2,17,-1
 128 666 l 1,18,-1
 128 34 l 1,19,-1
 352 34 l 2,20,21
 406 34 406 34 445.5 63 c 128,-1,22
 485 92 485 92 506.5 140.5 c 128,-1,12
 528 189 528 189 538 243.5 c 128,-1,13
EndSplineSet
Position2: "'cpsp' Capital Spacing in Latin lookup 0 subtable" dx=5 dy=0 dh=10 dv=0
EndChar

StartChar: E
Encoding: 69 69 40
Width: 552
GlyphClass: 2
Flags: W
LayerCount: 2
Fore
SplineSet
92 0 m 1,0,-1
 92 700 l 1,1,-1
 501 700 l 1,2,-1
 501 666 l 1,3,-1
 128 666 l 1,4,-1
 128 375 l 1,5,-1
 441 375 l 1,6,-1
 441 341 l 1,7,-1
 128 341 l 1,8,-1
 128 34 l 1,9,-1
 501 34 l 1,10,-1
 501 0 l 1,11,-1
 92 0 l 1,0,-1
EndSplineSet
Position2: "'cpsp' Capital Spacing in Latin lookup 0 subtable" dx=5 dy=0 dh=10 dv=0
EndChar

StartChar: F
Encoding: 70 70 41
Width: 523
GlyphClass: 2
Flags: W
LayerCount: 2
Fore
SplineSet
92 0 m 1,0,-1
 92 700 l 1,1,-1
 493 700 l 1,2,-1
 493 666 l 1,3,-1
 128 666 l 1,4,-1
 128 350 l 1,5,-1
 442 350 l 1,6,-1
 442 316 l 1,7,-1
 128 316 l 1,8,-1
 128 0 l 1,9,-1
 92 0 l 1,0,-1
EndSplineSet
Position2: "'cpsp' Capital Spacing in Latin lookup 0 subtable" dx=5 dy=0 dh=10 dv=0
EndChar

StartChar: G
Encoding: 71 71 42
Width: 619
GlyphClass: 2
Flags: W
LayerCount: 2
Fore
SplineSet
361 313 m 1,0,-1
 361 347 l 1,1,-1
 547 347 l 1,2,-1
 547 16 l 1,3,4
 418 -9 418 -9 327 -9 c 0,5,6
 180 -9 180 -9 122.5 80 c 128,-1,7
 65 169 65 169 65 347 c 0,8,9
 65 434 65 434 76.5 496.5 c 128,-1,10
 88 559 88 559 116 609 c 0,11,12
 172 709 172 709 327 709 c 0,13,14
 416 709 416 709 516 690 c 2,15,-1
 547 684 l 1,16,-1
 544 649 l 1,17,18
 418 675 418 675 338 675 c 128,-1,19
 258 675 258 675 213 653 c 128,-1,20
 168 631 168 631 144.5 585 c 128,-1,21
 121 539 121 539 112 483.5 c 128,-1,22
 103 428 103 428 103 347.5 c 128,-1,23
 103 267 103 267 112.5 211.5 c 128,-1,24
 122 156 122 156 146 112 c 0,25,26
 193 25 193 25 327 25 c 0,27,28
 401 25 401 25 511 45 c 1,29,-1
 511 313 l 1,30,-1
 361 313 l 1,0,-1
EndSplineSet
Position2: "'cpsp' Capital Spacing in Latin lookup 0 subtable" dx=5 dy=0 dh=10 dv=0
EndChar

StartChar: H
Encoding: 72 72 43
Width: 674
GlyphClass: 2
Flags: W
LayerCount: 2
Fore
SplineSet
546 0 m 1,0,-1
 546 334 l 1,1,-1
 128 334 l 1,2,-1
 128 0 l 1,3,-1
 92 0 l 1,4,-1
 92 700 l 1,5,-1
 128 700 l 1,6,-1
 128 368 l 1,7,-1
 546 368 l 1,8,-1
 546 700 l 1,9,-1
 582 700 l 1,10,-1
 582 0 l 1,11,-1
 546 0 l 1,0,-1
EndSplineSet
Position2: "'cpsp' Capital Spacing in Latin lookup 0 subtable" dx=5 dy=0 dh=10 dv=0
EndChar

StartChar: I
Encoding: 73 73 44
Width: 220
GlyphClass: 2
Flags: W
LayerCount: 2
Fore
SplineSet
92 0 m 1,0,-1
 92 700 l 1,1,-1
 128 700 l 1,2,-1
 128 0 l 1,3,-1
 92 0 l 1,0,-1
EndSplineSet
Position2: "'cpsp' Capital Spacing in Latin lookup 0 subtable" dx=5 dy=0 dh=10 dv=0
EndChar

StartChar: J
Encoding: 74 74 45
Width: 280
GlyphClass: 2
Flags: W
LayerCount: 2
Fore
SplineSet
191 700 m 1,0,-1
 191 81 l 2,1,2
 191 3 191 3 172 -26 c 0,3,4
 161 -43 161 -43 150 -52.5 c 128,-1,5
 139 -62 139 -62 116 -66 c 0,6,7
 82 -73 82 -73 18 -73 c 1,8,-1
 18 -39 l 1,9,10
 115 -39 115 -39 131 -22 c 0,11,12
 151 0 151 0 153 30.5 c 128,-1,13
 155 61 155 61 155 96 c 2,14,-1
 155 700 l 1,15,-1
 191 700 l 1,0,-1
EndSplineSet
Position2: "'cpsp' Capital Spacing in Latin lookup 0 subtable" dx=5 dy=0 dh=10 dv=0
EndChar

StartChar: K
Encoding: 75 75 46
Width: 553
GlyphClass: 2
Flags: W
LayerCount: 2
Fore
SplineSet
128 329 m 1,0,-1
 128 0 l 1,1,-1
 92 0 l 1,2,-1
 92 700 l 1,3,-1
 128 700 l 1,4,-1
 128 363 l 1,5,-1
 257 363 l 1,6,-1
 477 700 l 1,7,-1
 520 700 l 1,8,-1
 289 348 l 1,9,-1
 536 0 l 1,10,-1
 490 0 l 1,11,-1
 259 329 l 1,12,-1
 128 329 l 1,0,-1
EndSplineSet
Position2: "'cpsp' Capital Spacing in Latin lookup 0 subtable" dx=5 dy=0 dh=10 dv=0
EndChar

StartChar: L
Encoding: 76 76 47
Width: 483
GlyphClass: 2
Flags: W
LayerCount: 2
Fore
SplineSet
469 0 m 1,0,-1
 92 0 l 1,1,-1
 92 700 l 1,2,-1
 128 700 l 1,3,-1
 128 34 l 1,4,-1
 469 34 l 1,5,-1
 469 0 l 1,0,-1
EndSplineSet
Position2: "'cpsp' Capital Spacing in Latin lookup 0 subtable" dx=5 dy=0 dh=10 dv=0
EndChar

StartChar: M
Encoding: 77 77 48
Width: 828
GlyphClass: 2
Flags: W
LayerCount: 2
Fore
SplineSet
92 0 m 1,0,-1
 92 700 l 1,1,-1
 168 700 l 1,2,-1
 414 55 l 1,3,-1
 660 700 l 1,4,-1
 736 700 l 1,5,-1
 736 0 l 1,6,-1
 700 0 l 1,7,-1
 700 666 l 1,8,-1
 686 666 l 1,9,-1
 440 21 l 1,10,-1
 388 21 l 1,11,-1
 142 666 l 1,12,-1
 128 666 l 1,13,-1
 128 0 l 1,14,-1
 92 0 l 1,0,-1
EndSplineSet
Position2: "'cpsp' Capital Spacing in Latin lookup 0 subtable" dx=5 dy=0 dh=10 dv=0
EndChar

StartChar: N
Encoding: 78 78 49
Width: 665
GlyphClass: 2
Flags: W
LayerCount: 2
Fore
SplineSet
92 0 m 1,0,-1
 92 700 l 1,1,-1
 177 700 l 1,2,-1
 510 34 l 1,3,-1
 537 34 l 1,4,-1
 537 700 l 1,5,-1
 573 700 l 1,6,-1
 573 0 l 1,7,-1
 488 0 l 1,8,-1
 154 666 l 1,9,-1
 128 666 l 1,10,-1
 128 0 l 1,11,-1
 92 0 l 1,0,-1
EndSplineSet
Position2: "'cpsp' Capital Spacing in Latin lookup 0 subtable" dx=5 dy=0 dh=10 dv=0
EndChar

StartChar: O
Encoding: 79 79 50
Width: 666
GlyphClass: 2
Flags: W
LayerCount: 2
Fore
SplineSet
216 45 m 128,-1,1
 262 25 262 25 333.5 25 c 128,-1,2
 405 25 405 25 450.5 43.5 c 128,-1,3
 496 62 496 62 520.5 104.5 c 128,-1,4
 545 147 545 147 554 203 c 128,-1,5
 563 259 563 259 563 347 c 0,6,7
 563 515 563 515 514.5 595 c 128,-1,8
 466 675 466 675 333 675 c 0,9,10
 194 675 194 675 146 588 c 0,11,12
 122 544 122 544 112.5 487.5 c 128,-1,13
 103 431 103 431 103 346.5 c 128,-1,14
 103 262 103 262 112 207 c 128,-1,15
 121 152 121 152 145.5 108.5 c 128,-1,0
 170 65 170 65 216 45 c 128,-1,1
118 82 m 0,16,17
 88 130 88 130 76.5 192.5 c 128,-1,18
 65 255 65 255 65 347 c 0,19,20
 65 531 65 531 123 620 c 128,-1,21
 181 709 181 709 333 709 c 128,-1,22
 485 709 485 709 543 620.5 c 128,-1,23
 601 532 601 532 601 344 c 128,-1,24
 601 156 601 156 544.5 73.5 c 128,-1,25
 488 -9 488 -9 331 -9 c 128,-1,26
 174 -9 174 -9 118 82 c 0,16,17
EndSplineSet
Position2: "'cpsp' Capital Spacing in Latin lookup 0 subtable" dx=5 dy=0 dh=10 dv=0
EndChar

StartChar: P
Encoding: 80 80 51
Width: 595
GlyphClass: 2
Flags: W
LayerCount: 2
Fore
SplineSet
347 257 m 2,0,-1
 128 257 l 1,1,-1
 128 0 l 1,2,-1
 92 0 l 1,3,-1
 92 700 l 1,4,-1
 347 700 l 2,5,6
 455 700 455 700 504.5 647.5 c 128,-1,7
 554 595 554 595 554 485 c 0,8,9
 554 257 554 257 347 257 c 2,0,-1
128 291 m 1,10,-1
 347 291 l 2,11,12
 516 291 516 291 516 485 c 0,13,14
 516 577 516 577 476 621.5 c 128,-1,15
 436 666 436 666 347 666 c 2,16,-1
 128 666 l 1,17,-1
 128 291 l 1,10,-1
EndSplineSet
Position2: "'cpsp' Capital Spacing in Latin lookup 0 subtable" dx=5 dy=0 dh=10 dv=0
EndChar

StartChar: Q
Encoding: 81 81 52
Width: 666
GlyphClass: 2
Flags: W
LayerCount: 2
Fore
SplineSet
443 5 m 1,0,1
 395 -9 395 -9 324 -9 c 128,-1,2
 253 -9 253 -9 200 13 c 128,-1,3
 147 35 147 35 117.5 82.5 c 128,-1,4
 88 130 88 130 76.5 192.5 c 128,-1,5
 65 255 65 255 65 347 c 0,6,7
 65 531 65 531 123 620 c 128,-1,8
 181 709 181 709 333 709 c 128,-1,9
 485 709 485 709 543 620.5 c 128,-1,10
 601 532 601 532 601 347 c 0,11,12
 601 210 601 210 574.5 132 c 128,-1,13
 548 54 548 54 480 19 c 1,14,-1
 566 -121 l 1,15,-1
 530 -138 l 1,16,-1
 443 5 l 1,0,1
216 45 m 128,-1,18
 262 25 262 25 333.5 25 c 128,-1,19
 405 25 405 25 450.5 43.5 c 128,-1,20
 496 62 496 62 520.5 104.5 c 128,-1,21
 545 147 545 147 554 203 c 128,-1,22
 563 259 563 259 563 347 c 0,23,24
 563 515 563 515 514.5 595 c 128,-1,25
 466 675 466 675 333 675 c 0,26,27
 194 675 194 675 146 588 c 0,28,29
 122 544 122 544 112.5 487.5 c 128,-1,30
 103 431 103 431 103 346.5 c 128,-1,31
 103 262 103 262 112 207 c 128,-1,32
 121 152 121 152 145.5 108.5 c 128,-1,17
 170 65 170 65 216 45 c 128,-1,18
EndSplineSet
Position2: "'cpsp' Capital Spacing in Latin lookup 0 subtable" dx=5 dy=0 dh=10 dv=0
EndChar

StartChar: R
Encoding: 82 82 53
Width: 613
GlyphClass: 2
Flags: W
LayerCount: 2
Fore
SplineSet
128 290 m 1,0,-1
 128 0 l 1,1,-1
 92 0 l 1,2,-1
 92 700 l 1,3,-1
 343 700 l 2,4,5
 449 700 449 700 500 652 c 128,-1,6
 551 604 551 604 551 500 c 0,7,8
 551 323 551 323 406 295 c 1,9,-1
 564 0 l 1,10,-1
 523 0 l 1,11,-1
 367 290 l 1,12,-1
 128 290 l 1,0,-1
513 500 m 0,13,14
 513 587 513 587 472 626.5 c 128,-1,15
 431 666 431 666 343 666 c 2,16,-1
 128 666 l 1,17,-1
 128 324 l 1,18,-1
 343 324 l 2,19,20
 513 324 513 324 513 500 c 0,13,14
EndSplineSet
Position2: "'cpsp' Capital Spacing in Latin lookup 0 subtable" dx=5 dy=0 dh=10 dv=0
EndChar

StartChar: S
Encoding: 83 83 54
Width: 540
GlyphClass: 2
Flags: W
LayerCount: 2
Fore
SplineSet
272 677 m 0,0,1
 94 677 94 677 94 537 c 0,2,3
 94 474 94 474 115 446 c 0,4,5
 127 431 127 431 140 420.5 c 128,-1,6
 153 410 153 410 178 402 c 0,7,8
 219 390 219 390 282 380 c 0,9,10
 391 363 391 363 438.5 327.5 c 128,-1,11
 486 292 486 292 486 203 c 0,12,13
 486 90 486 90 433.5 41.5 c 128,-1,14
 381 -7 381 -7 274 -7 c 0,15,16
 208 -7 208 -7 97 5 c 2,17,-1
 60 9 l 1,18,-1
 64 44 l 1,19,20
 202 27 202 27 282 27 c 0,21,22
 448 27 448 27 448 200 c 0,23,24
 448 273 448 273 410 301 c 128,-1,25
 372 329 372 329 292.5 341 c 128,-1,26
 213 353 213 353 179.5 362.5 c 128,-1,27
 146 372 146 372 114.5 392 c 128,-1,28
 83 412 83 412 69.5 446.5 c 128,-1,29
 56 481 56 481 56 535 c 0,30,31
 56 711 56 711 272 711 c 0,32,33
 341 711 341 711 438 699 c 2,34,-1
 471 695 l 1,35,-1
 467 660 l 1,36,37
 330 677 330 677 272 677 c 0,0,1
EndSplineSet
Position2: "'cpsp' Capital Spacing in Latin lookup 0 subtable" dx=5 dy=0 dh=10 dv=0
EndChar

StartChar: T
Encoding: 84 84 55
Width: 526
GlyphClass: 2
Flags: W
LayerCount: 2
Fore
SplineSet
13 666 m 1,0,-1
 13 700 l 1,1,-1
 513 700 l 1,2,-1
 513 666 l 1,3,-1
 282 666 l 1,4,-1
 282 0 l 1,5,-1
 246 0 l 1,6,-1
 246 666 l 1,7,-1
 13 666 l 1,0,-1
EndSplineSet
Position2: "'cpsp' Capital Spacing in Latin lookup 0 subtable" dx=5 dy=0 dh=10 dv=0
EndChar

StartChar: U
Encoding: 85 85 56
Width: 638
GlyphClass: 2
Flags: W
LayerCount: 2
Fore
SplineSet
124 196 m 2,0,1
 124 105 124 105 173 65 c 128,-1,2
 222 25 222 25 317.5 25 c 128,-1,3
 413 25 413 25 463.5 64.5 c 128,-1,4
 514 104 514 104 514 196 c 2,5,-1
 514 700 l 1,6,-1
 550 700 l 1,7,-1
 550 196 l 2,8,9
 550 87 550 87 490.5 39 c 128,-1,10
 431 -9 431 -9 317.5 -9 c 128,-1,11
 204 -9 204 -9 146 39 c 128,-1,12
 88 87 88 87 88 196 c 2,13,-1
 88 700 l 1,14,-1
 124 700 l 1,15,-1
 124 196 l 2,0,1
EndSplineSet
Position2: "'cpsp' Capital Spacing in Latin lookup 0 subtable" dx=5 dy=0 dh=10 dv=0
EndChar

StartChar: V
Encoding: 86 86 57
Width: 568
GlyphClass: 2
Flags: W
LayerCount: 2
Fore
SplineSet
502 700 m 1,0,-1
 538 700 l 1,1,-1
 342 0 l 1,2,-1
 226 0 l 1,3,-1
 30 700 l 1,4,-1
 66 700 l 1,5,-1
 252 34 l 1,6,-1
 316 34 l 1,7,-1
 502 700 l 1,0,-1
EndSplineSet
Position2: "'cpsp' Capital Spacing in Latin lookup 0 subtable" dx=5 dy=0 dh=10 dv=0
EndChar

StartChar: W
Encoding: 87 87 58
Width: 856
GlyphClass: 2
Flags: W
LayerCount: 2
Fore
SplineSet
38 700 m 1,0,-1
 74 700 l 1,1,-1
 214 34 l 1,2,-1
 253 34 l 1,3,-1
 406 690 l 1,4,-1
 450 690 l 1,5,-1
 603 34 l 1,6,-1
 642 34 l 1,7,-1
 782 700 l 1,8,-1
 818 700 l 1,9,-1
 671 0 l 1,10,-1
 575 0 l 1,11,-1
 428 641 l 1,12,-1
 281 0 l 1,13,-1
 185 0 l 1,14,-1
 38 700 l 1,0,-1
EndSplineSet
Position2: "'cpsp' Capital Spacing in Latin lookup 0 subtable" dx=5 dy=0 dh=10 dv=0
EndChar

StartChar: X
Encoding: 88 88 59
Width: 551
GlyphClass: 2
Flags: W
LayerCount: 2
Fore
SplineSet
68 700 m 1,0,-1
 276 374 l 1,1,-1
 483 700 l 1,2,-1
 526 700 l 1,3,-1
 303 347 l 1,4,-1
 526 0 l 1,5,-1
 483 0 l 1,6,-1
 277 322 l 1,7,-1
 68 0 l 1,8,-1
 25 0 l 1,9,-1
 251 347 l 1,10,-1
 25 700 l 1,11,-1
 68 700 l 1,0,-1
EndSplineSet
Position2: "'cpsp' Capital Spacing in Latin lookup 0 subtable" dx=5 dy=0 dh=10 dv=0
EndChar

StartChar: Y
Encoding: 89 89 60
Width: 526
GlyphClass: 2
Flags: W
LayerCount: 2
Fore
SplineSet
281 0 m 1,0,-1
 245 0 l 1,1,-1
 245 301 l 1,2,-1
 17 700 l 1,3,-1
 59 700 l 1,4,-1
 263 341 l 1,5,-1
 467 700 l 1,6,-1
 509 700 l 1,7,-1
 281 301 l 1,8,-1
 281 0 l 1,0,-1
EndSplineSet
Position2: "'cpsp' Capital Spacing in Latin lookup 0 subtable" dx=5 dy=0 dh=10 dv=0
EndChar

StartChar: Z
Encoding: 90 90 61
Width: 539
GlyphClass: 2
Flags: W
LayerCount: 2
Fore
SplineSet
44 666 m 1,0,-1
 44 700 l 1,1,-1
 494 700 l 1,2,-1
 494 630 l 1,3,-1
 81 55 l 1,4,-1
 81 33 l 1,5,-1
 494 33 l 1,6,-1
 494 -1 l 1,7,-1
 44 -1 l 1,8,-1
 44 68 l 1,9,-1
 457 642 l 1,10,-1
 457 666 l 1,11,-1
 44 666 l 1,0,-1
EndSplineSet
Position2: "'cpsp' Capital Spacing in Latin lookup 0 subtable" dx=5 dy=0 dh=10 dv=0
EndChar

StartChar: bracketleft
Encoding: 91 91 62
Width: 311
GlyphClass: 2
Flags: W
LayerCount: 2
Fore
SplineSet
268 749 m 1,0,-1
 268 717 l 1,1,-1
 121 717 l 1,2,-1
 121 -91 l 1,3,-1
 268 -91 l 1,4,-1
 268 -123 l 1,5,-1
 86 -123 l 1,6,-1
 86 749 l 1,7,-1
 268 749 l 1,0,-1
EndSplineSet
Substitution2: "'case' Case-Sensitive Forms in Latin lookup 4 subtable" bracketleft.cap
EndChar

StartChar: backslash
Encoding: 92 92 63
Width: 395
GlyphClass: 2
Flags: W
LayerCount: 2
Fore
SplineSet
365 14 m 1,0,-1
 330 0 l 1,1,-1
 29 687 l 1,2,-1
 64 701 l 1,3,-1
 365 14 l 1,0,-1
EndSplineSet
EndChar

StartChar: bracketright
Encoding: 93 93 64
Width: 311
GlyphClass: 2
Flags: W
LayerCount: 2
Fore
SplineSet
43 717 m 1,0,-1
 43 749 l 1,1,-1
 225 749 l 1,2,-1
 225 -123 l 1,3,-1
 43 -123 l 1,4,-1
 43 -91 l 1,5,-1
 190 -91 l 1,6,-1
 190 717 l 1,7,-1
 43 717 l 1,0,-1
EndSplineSet
Substitution2: "'case' Case-Sensitive Forms in Latin lookup 4 subtable" bracketright.cap
EndChar

StartChar: asciicircum
Encoding: 94 94 65
Width: 560
GlyphClass: 2
Flags: W
LayerCount: 2
Fore
SplineSet
447 323 m 1,0,-1
 280 624 l 1,1,-1
 122 323 l 1,2,-1
 82 323 l 1,3,-1
 262 660 l 1,4,-1
 298 660 l 1,5,-1
 487 323 l 1,6,-1
 447 323 l 1,0,-1
EndSplineSet
EndChar

StartChar: underscore
Encoding: 95 95 66
Width: 640
GlyphClass: 2
Flags: W
LayerCount: 2
Fore
SplineSet
106 -104 m 1,0,-1
 534 -104 l 1,1,-1
 534 -138 l 1,2,-1
 106 -138 l 1,3,-1
 106 -104 l 1,0,-1
EndSplineSet
EndChar

StartChar: grave
Encoding: 96 96 67
Width: 215
GlyphClass: 2
Flags: W
LayerCount: 2
Fore
SplineSet
26 732 m 1,0,-1
 218 636 l 1,1,-1
 203 609 l 1,2,-1
 10 701 l 1,3,-1
 26 732 l 1,0,-1
EndSplineSet
EndChar

StartChar: a
Encoding: 97 97 68
Width: 495
GlyphClass: 2
Flags: W
LayerCount: 2
Fore
SplineSet
411 353 m 2,0,-1
 411 65 l 1,1,2
 415 29 415 29 486 23 c 1,3,-1
 484 -8 l 1,4,5
 411 -8 411 -8 381 34 c 1,6,7
 279 -9 279 -9 179 -9 c 0,8,9
 117 -9 117 -9 82.5 28 c 128,-1,10
 48 65 48 65 48 133.5 c 128,-1,11
 48 202 48 202 81 238 c 128,-1,12
 114 274 114 274 186 281 c 2,13,-1
 376 301 l 1,14,-1
 376 353 l 2,15,16
 376 417 376 417 348.5 446 c 128,-1,17
 321 475 321 475 265 475 c 0,18,19
 208 475 208 475 107 462 c 2,20,-1
 76 458 l 1,21,-1
 73 491 l 1,22,23
 185 509 185 509 265 509 c 0,24,25
 411 509 411 509 411 353 c 2,0,-1
109 217 m 128,-1,27
 85 190 85 190 85 136 c 128,-1,28
 85 82 85 82 109.5 52.5 c 128,-1,29
 134 23 134 23 178 23 c 128,-1,30
 222 23 222 23 271 33.5 c 128,-1,31
 320 44 320 44 348 54 c 2,32,-1
 376 64 l 1,33,-1
 376 269 l 1,34,-1
 190 250 l 2,35,26
 133 244 133 244 109 217 c 128,-1,27
EndSplineSet
EndChar

StartChar: b
Encoding: 98 98 69
Width: 514
GlyphClass: 2
Flags: W
LayerCount: 2
Fore
SplineSet
113 469 m 1,0,1
 196 509 196 509 289.5 509 c 128,-1,2
 383 509 383 509 419 451 c 128,-1,3
 455 393 455 393 455 252 c 128,-1,4
 455 111 455 111 408 51 c 128,-1,5
 361 -9 361 -9 227 -9 c 0,6,7
 157 -9 157 -9 100 -2 c 1,8,-1
 78 0 l 1,9,-1
 78 730 l 1,10,-1
 113 730 l 1,11,-1
 113 469 l 1,0,1
113 29 m 1,12,13
 191 23 191 23 239.5 23 c 128,-1,14
 288 23 288 23 326.5 36 c 128,-1,15
 365 49 365 49 385 81 c 128,-1,16
 405 113 405 113 411.5 152.5 c 128,-1,17
 418 192 418 192 418 258 c 0,18,19
 418 376 418 376 391 426.5 c 128,-1,20
 364 477 364 477 285 477 c 0,21,22
 245 477 245 477 202 467 c 128,-1,23
 159 457 159 457 136 447 c 2,24,-1
 113 437 l 1,25,-1
 113 29 l 1,12,13
EndSplineSet
EndChar

StartChar: c
Encoding: 99 99 70
Width: 429
GlyphClass: 2
Flags: W
LayerCount: 2
Fore
SplineSet
265 477 m 0,0,1
 170 477 170 477 133.5 429 c 128,-1,2
 97 381 97 381 97 253.5 c 128,-1,3
 97 126 97 126 130 74.5 c 128,-1,4
 163 23 163 23 265 23 c 1,5,-1
 385 32 l 1,6,-1
 387 0 l 1,7,8
 303 -9 303 -9 265 -9 c 0,9,10
 143 -9 143 -9 101.5 48.5 c 128,-1,11
 60 106 60 106 60 252.5 c 128,-1,12
 60 399 60 399 106 454 c 128,-1,13
 152 509 152 509 265 509 c 1,14,-1
 385 499 l 1,15,-1
 383 467 l 1,16,17
 303 477 303 477 265 477 c 0,0,1
EndSplineSet
EndChar

StartChar: d
Encoding: 100 100 71
Width: 515
GlyphClass: 2
Flags: W
LayerCount: 2
Fore
SplineSet
436 730 m 1,0,-1
 436 0 l 1,1,-1
 401 0 l 1,2,-1
 401 42 l 1,3,4
 372 23 372 23 320 7 c 128,-1,5
 268 -9 268 -9 235.5 -9 c 128,-1,6
 203 -9 203 -9 185.5 -6.5 c 128,-1,7
 168 -4 168 -4 142 9.5 c 128,-1,8
 116 23 116 23 99.5 48 c 128,-1,9
 83 73 83 73 70.5 123 c 128,-1,10
 58 173 58 173 58 242 c 0,11,12
 58 378 58 378 104.5 443.5 c 128,-1,13
 151 509 151 509 269 509 c 0,14,15
 326 509 326 509 401 497 c 1,16,-1
 401 730 l 1,17,-1
 436 730 l 1,0,-1
182.5 29.5 m 128,-1,19
 202 23 202 23 234 23 c 128,-1,20
 266 23 266 23 309.5 36 c 128,-1,21
 353 49 353 49 377 62 c 2,22,-1
 401 75 l 1,23,-1
 401 465 l 1,24,25
 323 477 323 477 269 477 c 0,26,27
 168 477 168 477 131.5 420 c 128,-1,28
 95 363 95 363 95 242 c 0,29,30
 95 98 95 98 141 56 c 0,31,18
 163 36 163 36 182.5 29.5 c 128,-1,19
EndSplineSet
EndChar

StartChar: e
Encoding: 101 101 72
Width: 502
GlyphClass: 2
Flags: W
LayerCount: 2
Fore
SplineSet
399 30 m 1,0,-1
 429 32 l 1,1,-1
 431 0 l 1,2,3
 319 -9 319 -9 246 -9 c 0,4,5
 140 -8 140 -8 99 55.5 c 128,-1,6
 58 119 58 119 58 250 c 0,7,8
 58 509 58 509 260 509 c 0,9,10
 355 509 355 509 402.5 452 c 128,-1,11
 450 395 450 395 450 269 c 2,12,-1
 450 236 l 1,13,-1
 95 236 l 1,14,15
 95 128 95 128 129 75.5 c 128,-1,16
 163 23 163 23 242 23 c 128,-1,17
 321 23 321 23 399 30 c 1,0,-1
95 268 m 1,18,-1
 413 268 l 1,19,20
 413 381 413 381 376.5 429 c 128,-1,21
 340 477 340 477 260 477 c 0,22,23
 95 477 95 477 95 268 c 1,18,-1
EndSplineSet
EndChar

StartChar: f
Encoding: 102 102 73
Width: 313
GlyphClass: 2
Flags: W
LayerCount: 2
Fore
SplineSet
133 468 m 1,0,-1
 133 0 l 1,1,-1
 98 0 l 1,2,-1
 98 468 l 1,3,-1
 29 468 l 1,4,-1
 29 500 l 1,5,-1
 98 500 l 1,6,-1
 98 561 l 2,7,8
 98 666 98 666 126 702.5 c 128,-1,9
 154 739 154 739 225 739 c 1,10,-1
 317 736 l 1,11,-1
 317 705 l 1,12,13
 253 707 253 707 225 707 c 0,14,15
 172 707 172 707 152.5 677.5 c 128,-1,16
 133 648 133 648 133 560 c 2,17,-1
 133 500 l 1,18,-1
 295 500 l 1,19,-1
 295 468 l 1,20,-1
 133 468 l 1,0,-1
EndSplineSet
EndChar

StartChar: g
Encoding: 103 103 74
Width: 501
GlyphClass: 2
Flags: W
LayerCount: 2
Fore
SplineSet
418.5 -202.5 m 128,-1,1
 368 -239 368 -239 251.5 -239 c 128,-1,2
 135 -239 135 -239 96.5 -205.5 c 128,-1,3
 58 -172 58 -172 58 -80 c 0,4,5
 58 -23 58 -23 96 11 c 0,6,7
 110 24 110 24 143 48 c 1,8,9
 121 62 121 62 121 113 c 0,10,11
 121 127 121 127 144 175 c 1,12,-1
 151 191 l 1,13,14
 65 219 65 219 65 343 c 0,15,16
 65 510 65 510 236 510 c 0,17,18
 288 510 288 510 328 500 c 1,19,-1
 342 497 l 1,20,-1
 482 500 l 1,21,-1
 482 465 l 1,22,-1
 374 465 l 1,23,24
 414 428 414 428 414 340.5 c 128,-1,25
 414 253 414 253 370.5 216 c 128,-1,26
 327 179 327 179 232 179 c 0,27,28
 202 179 202 179 178 183 c 1,29,30
 155 126 155 126 155 111 c 128,-1,31
 155 96 155 96 157 88 c 128,-1,32
 159 80 159 80 165 73 c 128,-1,33
 171 66 171 66 188 64 c 0,34,35
 219 59 219 59 305 59 c 128,-1,36
 391 59 391 59 430 31.5 c 128,-1,37
 469 4 469 4 469 -81 c 128,-1,0
 469 -166 469 -166 418.5 -202.5 c 128,-1,1
94 -79 m 0,38,39
 94 -153 94 -153 125.5 -180 c 128,-1,40
 157 -207 157 -207 253.5 -207 c 128,-1,41
 350 -207 350 -207 391 -178.5 c 128,-1,42
 432 -150 432 -150 432 -81.5 c 128,-1,43
 432 -13 432 -13 402 7 c 128,-1,44
 372 27 372 27 290 27 c 1,45,-1
 169 30 l 1,46,47
 124 -1 124 -1 109 -22.5 c 128,-1,48
 94 -44 94 -44 94 -79 c 0,38,39
132 240 m 128,-1,50
 163 211 163 211 238.5 211 c 128,-1,51
 314 211 314 211 345.5 239.5 c 128,-1,52
 377 268 377 268 377 343 c 128,-1,53
 377 418 377 418 345.5 448 c 128,-1,54
 314 478 314 478 238.5 478 c 128,-1,55
 163 478 163 478 132 447.5 c 128,-1,56
 101 417 101 417 101 343 c 128,-1,49
 101 269 101 269 132 240 c 128,-1,50
EndSplineSet
EndChar

StartChar: h
Encoding: 104 104 75
Width: 526
GlyphClass: 2
Flags: W
LayerCount: 2
Fore
SplineSet
114 0 m 1,0,-1
 79 0 l 1,1,-1
 79 730 l 1,2,-1
 114 730 l 1,3,-1
 114 470 l 1,4,5
 202 509 202 509 295 509 c 128,-1,6
 388 509 388 509 420 458.5 c 128,-1,7
 452 408 452 408 452 260 c 2,8,-1
 452 0 l 1,9,-1
 417 0 l 1,10,-1
 417 258 l 2,11,12
 417 390 417 390 393 433.5 c 128,-1,13
 369 477 369 477 288 477 c 0,14,15
 248 477 248 477 204.5 467 c 128,-1,16
 161 457 161 457 138 447 c 2,17,-1
 114 437 l 1,18,-1
 114 0 l 1,0,-1
EndSplineSet
EndChar

StartChar: i
Encoding: 105 105 76
Width: 193
GlyphClass: 2
Flags: W
LayerCount: 2
Fore
SplineSet
79 0 m 1,0,-1
 79 500 l 1,1,-1
 114 500 l 1,2,-1
 114 0 l 1,3,-1
 79 0 l 1,0,-1
79 645 m 1,4,-1
 79 700 l 1,5,-1
 114 700 l 1,6,-1
 114 645 l 1,7,-1
 79 645 l 1,4,-1
EndSplineSet
EndChar

StartChar: j
Encoding: 106 106 77
Width: 192
GlyphClass: 2
Flags: W
LayerCount: 2
Fore
SplineSet
79 6 m 2,0,-1
 79 500 l 1,1,-1
 114 500 l 1,2,-1
 114 5 l 2,3,4
 114 -80 114 -80 82.5 -124.5 c 128,-1,5
 51 -169 51 -169 -45 -218 c 1,6,-1
 -59 -187 l 1,7,8
 28 -140 28 -140 53.5 -105.5 c 128,-1,9
 79 -71 79 -71 79 6 c 2,0,-1
79 645 m 1,10,-1
 79 700 l 1,11,-1
 114 700 l 1,12,-1
 114 645 l 1,13,-1
 79 645 l 1,10,-1
EndSplineSet
EndChar

StartChar: k
Encoding: 107 107 78
Width: 455
GlyphClass: 2
Flags: W
LayerCount: 2
Fore
SplineSet
114 0 m 1,0,-1
 79 0 l 1,1,-1
 79 730 l 1,2,-1
 114 730 l 1,3,-1
 114 289 l 1,4,-1
 210 289 l 1,5,-1
 382 500 l 1,6,-1
 424 500 l 1,7,-1
 240 274 l 1,8,-1
 432 0 l 1,9,-1
 390 0 l 1,10,-1
 210 257 l 1,11,-1
 114 257 l 1,12,-1
 114 0 l 1,0,-1
EndSplineSet
EndChar

StartChar: l
Encoding: 108 108 79
Width: 205
GlyphClass: 2
Flags: W
LayerCount: 2
Fore
SplineSet
85 0 m 1,0,-1
 85 730 l 1,1,-1
 120 730 l 1,2,-1
 120 0 l 1,3,-1
 85 0 l 1,0,-1
EndSplineSet
EndChar

StartChar: m
Encoding: 109 109 80
Width: 834
GlyphClass: 2
Flags: W
LayerCount: 2
Fore
SplineSet
114 0 m 1,0,-1
 79 0 l 1,1,-1
 79 500 l 1,2,-1
 114 500 l 1,3,-1
 114 460 l 1,4,5
 123 465 123 465 138 473.5 c 128,-1,6
 153 482 153 482 196.5 495.5 c 128,-1,7
 240 509 240 509 286 509 c 0,8,9
 378 509 378 509 412 455 c 1,10,11
 448 476 448 476 500 492.5 c 128,-1,12
 552 509 552 509 596 509 c 0,13,14
 696 509 696 509 728 458.5 c 128,-1,15
 760 408 760 408 760 260 c 2,16,-1
 760 0 l 1,17,-1
 725 0 l 1,18,-1
 725 258 l 2,19,20
 725 390 725 390 701 433.5 c 128,-1,21
 677 477 677 477 596 477 c 0,22,23
 553 477 553 477 510 464.5 c 128,-1,24
 467 452 467 452 446 440 c 2,25,-1
 424 428 l 1,26,27
 442 379 442 379 442 260 c 2,28,-1
 442 0 l 1,29,-1
 407 0 l 1,30,-1
 407 258 l 2,31,32
 407 390 407 390 383 433.5 c 128,-1,33
 359 477 359 477 278 477 c 0,34,35
 238 477 238 477 197 464.5 c 128,-1,36
 156 452 156 452 135 440 c 2,37,-1
 114 427 l 1,38,-1
 114 0 l 1,0,-1
EndSplineSet
EndChar

StartChar: n
Encoding: 110 110 81
Width: 527
GlyphClass: 2
Flags: W
LayerCount: 2
Fore
SplineSet
114 0 m 1,0,-1
 79 0 l 1,1,-1
 79 500 l 1,2,-1
 114 500 l 1,3,-1
 114 460 l 1,4,5
 203 509 203 509 296 509 c 128,-1,6
 389 509 389 509 421 458.5 c 128,-1,7
 453 408 453 408 453 260 c 2,8,-1
 453 0 l 1,9,-1
 418 0 l 1,10,-1
 418 258 l 2,11,12
 418 390 418 390 394 433.5 c 128,-1,13
 370 477 370 477 289 477 c 0,14,15
 249 477 249 477 205.5 464.5 c 128,-1,16
 162 452 162 452 138 440 c 2,17,-1
 114 427 l 1,18,-1
 114 0 l 1,0,-1
EndSplineSet
EndChar

StartChar: o
Encoding: 111 111 82
Width: 526
GlyphClass: 2
Flags: W
LayerCount: 2
Fore
SplineSet
263 509 m 128,-1,1
 374 509 374 509 420 453 c 128,-1,2
 466 397 466 397 466 251 c 128,-1,3
 466 105 466 105 425 48 c 128,-1,4
 384 -9 384 -9 263 -9 c 128,-1,5
 142 -9 142 -9 101 48 c 128,-1,6
 60 105 60 105 60 251 c 128,-1,7
 60 397 60 397 106 453 c 128,-1,0
 152 509 152 509 263 509 c 128,-1,1
263 23 m 128,-1,9
 319 23 319 23 351.5 34.5 c 128,-1,10
 384 46 384 46 401.5 77.5 c 128,-1,11
 419 109 419 109 424 148.5 c 128,-1,12
 429 188 429 188 429 259 c 0,13,14
 429 385 429 385 394 431 c 128,-1,15
 359 477 359 477 263 477 c 128,-1,16
 167 477 167 477 132 431 c 128,-1,17
 97 385 97 385 97 259 c 0,18,19
 97 188 97 188 102 148.5 c 128,-1,20
 107 109 107 109 124.5 77.5 c 128,-1,21
 142 46 142 46 174.5 34.5 c 128,-1,8
 207 23 207 23 263 23 c 128,-1,9
EndSplineSet
EndChar

StartChar: p
Encoding: 112 112 83
Width: 516
GlyphClass: 2
Flags: W
LayerCount: 2
Fore
SplineSet
79 -230 m 1,0,-1
 79 500 l 1,1,-1
 114 500 l 1,2,-1
 114 458 l 1,3,4
 143 477 143 477 195 493 c 128,-1,5
 247 509 247 509 287 509 c 0,6,7
 377 509 377 509 417.5 448 c 128,-1,8
 458 387 458 387 458 252 c 128,-1,9
 458 117 458 117 409.5 54 c 128,-1,10
 361 -9 361 -9 246 -9 c 0,11,12
 178 -9 178 -9 114 5 c 1,13,-1
 114 -230 l 1,14,-1
 79 -230 l 1,0,-1
287 477 m 0,15,16
 249 477 249 477 205.5 463.5 c 128,-1,17
 162 450 162 450 138 437 c 2,18,-1
 114 424 l 1,19,-1
 114 37 l 1,20,21
 191 23 191 23 246 23 c 0,22,23
 342 23 342 23 381.5 76.5 c 128,-1,24
 421 130 421 130 421 252.5 c 128,-1,25
 421 375 421 375 387.5 426 c 128,-1,26
 354 477 354 477 287 477 c 0,15,16
EndSplineSet
EndChar

StartChar: q
Encoding: 113 113 84
Width: 514
GlyphClass: 2
Flags: W
LayerCount: 2
Fore
SplineSet
400 29 m 1,0,1
 327 -9 327 -9 233 -9 c 128,-1,2
 139 -9 139 -9 98.5 51.5 c 128,-1,3
 58 112 58 112 58 248 c 128,-1,4
 58 384 58 384 108 446.5 c 128,-1,5
 158 509 158 509 286 509 c 1,6,-1
 435 500 l 1,7,-1
 435 -230 l 1,8,-1
 400 -230 l 1,9,-1
 400 29 l 1,0,1
287 477 m 0,10,11
 175 477 175 477 135 422.5 c 128,-1,12
 95 368 95 368 95 249 c 128,-1,13
 95 130 95 130 126.5 76.5 c 128,-1,14
 158 23 158 23 238 23 c 0,15,16
 278 23 278 23 318.5 33 c 128,-1,17
 359 43 359 43 380 53 c 2,18,-1
 400 63 l 1,19,-1
 400 471 l 1,20,21
 322 477 322 477 287 477 c 0,10,11
EndSplineSet
EndChar

StartChar: r
Encoding: 114 114 85
Width: 328
GlyphClass: 2
Flags: W
LayerCount: 2
Fore
SplineSet
79 0 m 1,0,-1
 79 500 l 1,1,-1
 114 500 l 1,2,-1
 114 422 l 1,3,4
 144 446 144 446 203.5 473.5 c 128,-1,5
 263 501 263 501 312 510 c 1,6,-1
 312 474 l 1,7,8
 268 465 268 465 218.5 444 c 128,-1,9
 169 423 169 423 142 406 c 2,10,-1
 114 389 l 1,11,-1
 114 0 l 1,12,-1
 79 0 l 1,0,-1
EndSplineSet
EndChar

StartChar: s
Encoding: 115 115 86
Width: 461
GlyphClass: 2
Flags: W
LayerCount: 2
Fore
SplineSet
222 477 m 0,0,1
 88 477 88 477 88 377 c 0,2,3
 88 330 88 330 116 310.5 c 128,-1,4
 144 291 144 291 240 276 c 128,-1,5
 336 261 336 261 374 236 c 128,-1,6
 412 211 412 211 412 135.5 c 128,-1,7
 412 60 412 60 364 25.5 c 128,-1,8
 316 -9 316 -9 222 -9 c 0,9,10
 171 -9 171 -9 86 3 c 2,11,-1
 57 7 l 1,12,-1
 61 40 l 1,13,14
 169 23 169 23 233 23 c 128,-1,15
 297 23 297 23 336 48 c 128,-1,16
 375 73 375 73 375 133 c 128,-1,17
 375 193 375 193 344.5 212 c 128,-1,18
 314 231 314 231 219.5 245.5 c 128,-1,19
 125 260 125 260 88 284.5 c 128,-1,20
 51 309 51 309 51 367 c 128,-1,21
 51 425 51 425 78 456.5 c 128,-1,22
 105 488 105 488 141 498.5 c 128,-1,23
 177 509 177 509 216 509 c 0,24,25
 297 509 297 509 368 498 c 2,26,-1
 394 494 l 1,27,-1
 392 461 l 1,28,29
 290 477 290 477 222 477 c 0,0,1
EndSplineSet
EndChar

StartChar: t
Encoding: 116 116 87
Width: 342
GlyphClass: 2
Flags: W
LayerCount: 2
Fore
SplineSet
325 468 m 1,0,-1
 143 468 l 1,1,-1
 143 206 l 2,2,3
 143 91 143 91 159.5 56.5 c 128,-1,4
 176 22 176 22 235 22 c 1,5,-1
 333 30 l 1,6,-1
 336 -2 l 1,7,8
 270 -10 270 -10 235 -10 c 0,9,10
 164 -10 164 -10 136 26.5 c 128,-1,11
 108 63 108 63 108 168 c 2,12,-1
 108 468 l 1,13,-1
 29 468 l 1,14,-1
 29 500 l 1,15,-1
 108 500 l 1,16,-1
 108 663 l 1,17,-1
 143 663 l 1,18,-1
 143 500 l 1,19,-1
 325 500 l 1,20,-1
 325 468 l 1,0,-1
EndSplineSet
EndChar

StartChar: u
Encoding: 117 117 88
Width: 516
GlyphClass: 2
Flags: W
LayerCount: 2
Fore
SplineSet
402 500 m 1,0,-1
 437 500 l 1,1,-1
 437 0 l 1,2,-1
 402 0 l 1,3,-1
 402 40 l 1,4,5
 393 35 393 35 378 26.5 c 128,-1,6
 363 18 363 18 319.5 4.5 c 128,-1,7
 276 -9 276 -9 238 -9 c 0,8,9
 138 -9 138 -9 106 41.5 c 128,-1,10
 74 92 74 92 74 240 c 2,11,-1
 74 500 l 1,12,-1
 109 500 l 1,13,-1
 109 242 l 2,14,15
 109 110 109 110 133 66.5 c 128,-1,16
 157 23 157 23 238 23 c 0,17,18
 278 23 278 23 319 35.5 c 128,-1,19
 360 48 360 48 381 60 c 2,20,-1
 402 73 l 1,21,-1
 402 500 l 1,0,-1
EndSplineSet
EndChar

StartChar: v
Encoding: 118 118 89
Width: 470
GlyphClass: 2
Flags: W
LayerCount: 2
Fore
SplineSet
31 500 m 1,0,-1
 72 500 l 1,1,-1
 213 32 l 1,2,-1
 257 32 l 1,3,-1
 402 500 l 1,4,-1
 439 500 l 1,5,-1
 284 0 l 1,6,-1
 186 0 l 1,7,-1
 31 500 l 1,0,-1
EndSplineSet
EndChar

StartChar: w
Encoding: 119 119 90
Width: 756
GlyphClass: 2
Flags: W
LayerCount: 2
Fore
SplineSet
36 500 m 1,0,-1
 73 500 l 1,1,-1
 200 32 l 1,2,-1
 211 32 l 1,3,-1
 359 490 l 1,4,-1
 397 490 l 1,5,-1
 545 32 l 1,6,-1
 556 32 l 1,7,-1
 683 500 l 1,8,-1
 720 500 l 1,9,-1
 585 0 l 1,10,-1
 517 0 l 1,11,-1
 378 448 l 1,12,-1
 239 0 l 1,13,-1
 171 0 l 1,14,-1
 36 500 l 1,0,-1
EndSplineSet
EndChar

StartChar: x
Encoding: 120 120 91
Width: 437
GlyphClass: 2
Flags: W
LayerCount: 2
Fore
SplineSet
28 500 m 1,0,-1
 69 500 l 1,1,-1
 218 277 l 1,2,-1
 368 500 l 1,3,-1
 409 500 l 1,4,-1
 239 250 l 1,5,-1
 408 0 l 1,6,-1
 367 0 l 1,7,-1
 218 223 l 1,8,-1
 69 0 l 1,9,-1
 28 0 l 1,10,-1
 197 250 l 1,11,-1
 28 500 l 1,0,-1
EndSplineSet
EndChar

StartChar: y
Encoding: 121 121 92
Width: 471
GlyphClass: 2
Flags: W
LayerCount: 2
Fore
SplineSet
31 500 m 1,0,-1
 68 500 l 1,1,-1
 215 32 l 1,2,-1
 256 32 l 1,3,-1
 404 500 l 1,4,-1
 441 500 l 1,5,-1
 212 -230 l 1,6,-1
 175 -230 l 1,7,-1
 247 0 l 1,8,-1
 186 0 l 1,9,-1
 31 500 l 1,0,-1
EndSplineSet
EndChar

StartChar: z
Encoding: 122 122 93
Width: 455
GlyphClass: 2
Flags: W
LayerCount: 2
Fore
SplineSet
42 468 m 1,0,-1
 42 500 l 1,1,-1
 413 500 l 1,2,-1
 413 468 l 1,3,-1
 87 32 l 1,4,-1
 413 32 l 1,5,-1
 413 0 l 1,6,-1
 42 0 l 1,7,-1
 42 32 l 1,8,-1
 369 468 l 1,9,-1
 42 468 l 1,0,-1
EndSplineSet
EndChar

StartChar: braceleft
Encoding: 123 123 94
Width: 346
GlyphClass: 2
Flags: W
LayerCount: 2
Fore
SplineSet
168 169 m 1,0,1
 161 99 161 99 161 53 c 0,2,3
 161 -18 161 -18 192 -53 c 128,-1,4
 223 -88 223 -88 304 -92 c 1,5,-1
 302 -124 l 1,6,7
 207 -120 207 -120 166.5 -78.5 c 128,-1,8
 126 -37 126 -37 126 53 c 1,9,-1
 133 176 l 1,10,11
 133 224 133 224 109.5 251 c 128,-1,12
 86 278 86 278 29 294 c 1,13,-1
 29 326 l 1,14,15
 86 340 86 340 109.5 368 c 128,-1,16
 133 396 133 396 133 446 c 1,17,-1
 126 574 l 1,18,19
 126 664 126 664 166.5 705.5 c 128,-1,20
 207 747 207 747 302 751 c 1,21,-1
 304 719 l 1,22,23
 222 715 222 715 191.5 680.5 c 128,-1,24
 161 646 161 646 161 574 c 1,25,-1
 168 455 l 1,26,27
 168 390 168 390 146 359.5 c 128,-1,28
 124 329 124 329 68 311 c 1,29,30
 124 293 124 293 146 262 c 128,-1,31
 168 231 168 231 168 169 c 1,0,1
EndSplineSet
Substitution2: "'case' Case-Sensitive Forms in Latin lookup 4 subtable" braceleft.cap
EndChar

StartChar: bar
Encoding: 124 124 95
Width: 205
GlyphClass: 2
Flags: W
LayerCount: 2
Fore
SplineSet
85 -230 m 1,0,-1
 85 730 l 1,1,-1
 120 730 l 1,2,-1
 120 -230 l 1,3,-1
 85 -230 l 1,0,-1
EndSplineSet
EndChar

StartChar: braceright
Encoding: 125 125 96
Width: 346
GlyphClass: 2
Flags: W
LayerCount: 2
Fore
SplineSet
185 53 m 0,0,1
 185 99 185 99 178 169 c 1,2,3
 178 231 178 231 200 262 c 128,-1,4
 222 293 222 293 278 311 c 1,5,6
 222 329 222 329 200 359.5 c 128,-1,7
 178 390 178 390 178 455 c 1,8,-1
 185 574 l 1,9,10
 185 646 185 646 154.5 680.5 c 128,-1,11
 124 715 124 715 42 719 c 1,12,-1
 44 751 l 1,13,14
 139 747 139 747 179.5 705.5 c 128,-1,15
 220 664 220 664 220 574 c 1,16,17
 220 574 220 574 213 446 c 1,18,19
 213 396 213 396 236.5 368 c 128,-1,20
 260 340 260 340 317 326 c 1,21,-1
 317 294 l 1,22,23
 260 278 260 278 236.5 251 c 128,-1,24
 213 224 213 224 213 176 c 1,25,-1
 220 53 l 1,26,27
 220 -37 220 -37 179.5 -78.5 c 128,-1,28
 139 -120 139 -120 44 -124 c 1,29,-1
 42 -92 l 1,30,31
 123 -88 123 -88 154 -53 c 128,-1,32
 185 -18 185 -18 185 53 c 0,0,1
EndSplineSet
Substitution2: "'case' Case-Sensitive Forms in Latin lookup 4 subtable" braceright.cap
EndChar

StartChar: asciitilde
Encoding: 126 126 97
Width: 560
GlyphClass: 2
Flags: W
LayerCount: 2
Fore
SplineSet
381 212 m 0,0,1
 351 212 351 212 277.5 248.5 c 128,-1,2
 204 285 204 285 186 285 c 128,-1,3
 168 285 168 285 142.5 272 c 128,-1,4
 117 259 117 259 100 246 c 2,5,-1
 82 233 l 1,6,-1
 71 265 l 1,7,8
 133 319 133 319 183 319 c 0,9,10
 213 319 213 319 286.5 282.5 c 128,-1,11
 360 246 360 246 378 246 c 128,-1,12
 396 246 396 246 421.5 259 c 128,-1,13
 447 272 447 272 464 285 c 2,14,-1
 482 298 l 1,15,-1
 493 267 l 1,16,17
 431 212 431 212 381 212 c 0,0,1
EndSplineSet
EndChar

StartChar: exclamdown
Encoding: 161 161 99
Width: 204
GlyphClass: 2
Flags: W
LayerCount: 2
Fore
SplineSet
121 500 m 1,0,-1
 121 420 l 1,1,-1
 81 420 l 1,2,-1
 81 500 l 1,3,-1
 121 500 l 1,0,-1
119 286 m 1,4,-1
 119 -200 l 1,5,-1
 84 -200 l 1,6,-1
 84 286 l 1,7,-1
 119 286 l 1,4,-1
EndSplineSet
Substitution2: "'case' Case-Sensitive Forms in Latin lookup 4 subtable" exclamdown.cap
EndChar

StartChar: cent
Encoding: 162 162 100
Width: 560
GlyphClass: 2
Flags: W
LayerCount: 2
Fore
SplineSet
284 -85 m 1,0,-1
 284 41 l 1,1,2
 188 44 188 44 148.5 86.5 c 128,-1,3
 109 129 109 129 109 244 c 128,-1,4
 109 359 109 359 150 408.5 c 128,-1,5
 191 458 191 458 283 461 c 1,6,-1
 283 591 l 1,7,-1
 318 591 l 1,8,-1
 318 460 l 1,9,10
 358 460 358 460 415 451 c 2,11,-1
 434 448 l 1,12,-1
 432 415 l 1,13,14
 352 425 352 425 294 425 c 0,15,16
 214 425 214 425 181.5 384.5 c 128,-1,17
 149 344 149 344 149 245.5 c 128,-1,18
 149 147 149 147 180.5 112 c 128,-1,19
 212 77 212 77 304 77 c 0,20,21
 356 77 356 77 414 83 c 2,22,-1
 434 85 l 1,23,-1
 436 50 l 1,24,25
 362 42 362 42 319 41 c 1,26,-1
 319 -85 l 1,27,-1
 284 -85 l 1,0,-1
EndSplineSet
EndChar

StartChar: sterling
Encoding: 163 163 101
Width: 560
GlyphClass: 2
Flags: W
LayerCount: 2
Fore
SplineSet
312 637 m 0,0,1
 250 637 250 637 230 601 c 128,-1,2
 210 565 210 565 210 454 c 2,3,-1
 210 406 l 1,4,-1
 392 406 l 1,5,-1
 392 374 l 1,6,-1
 210 374 l 1,7,-1
 210 34 l 1,8,-1
 384 34 l 1,9,-1
 466 50 l 1,10,-1
 473 18 l 1,11,-1
 391 0 l 1,12,-1
 83 0 l 1,13,-1
 83 34 l 1,14,-1
 175 34 l 1,15,-1
 175 374 l 1,16,-1
 106 374 l 1,17,-1
 106 406 l 1,18,-1
 175 406 l 1,19,-1
 175 458 l 2,20,21
 175 584 175 584 204.5 626.5 c 128,-1,22
 234 669 234 669 312 669 c 0,23,24
 346 669 346 669 410 660 c 2,25,-1
 432 657 l 1,26,-1
 432 625 l 1,27,28
 345 637 345 637 312 637 c 0,0,1
EndSplineSet
EndChar

StartChar: currency
Encoding: 164 164 102
Width: 560
GlyphClass: 2
Flags: W
LayerCount: 2
Fore
SplineSet
280 82 m 128,-1,1
 219 82 219 82 173 120 c 1,2,-1
 103 49 l 1,3,-1
 77 75 l 1,4,-1
 148 145 l 1,5,6
 110 191 110 191 110 252 c 128,-1,7
 110 313 110 313 148 359 c 1,8,-1
 77 429 l 1,9,-1
 103 455 l 1,10,-1
 173 384 l 1,11,12
 219 422 219 422 280 422 c 128,-1,13
 341 422 341 422 387 384 c 1,14,-1
 457 455 l 1,15,-1
 483 429 l 1,16,-1
 412 359 l 1,17,18
 450 313 450 313 450 252 c 128,-1,19
 450 191 450 191 412 145 c 1,20,-1
 483 75 l 1,21,-1
 457 49 l 1,22,-1
 387 120 l 1,23,0
 341 82 341 82 280 82 c 128,-1,1
280 118 m 128,-1,25
 335 118 335 118 374.5 157.5 c 128,-1,26
 414 197 414 197 414 252 c 128,-1,27
 414 307 414 307 374.5 346.5 c 128,-1,28
 335 386 335 386 280 386 c 128,-1,29
 225 386 225 386 185.5 346.5 c 128,-1,30
 146 307 146 307 146 252 c 128,-1,31
 146 197 146 197 185.5 157.5 c 128,-1,24
 225 118 225 118 280 118 c 128,-1,25
EndSplineSet
EndChar

StartChar: yen
Encoding: 165 165 103
Width: 560
GlyphClass: 2
Flags: W
LayerCount: 2
Fore
SplineSet
57 331 m 1,0,-1
 57 365 l 1,1,-1
 228 365 l 1,2,-1
 35 660 l 1,3,-1
 76 660 l 1,4,-1
 281 351 l 1,5,-1
 483 660 l 1,6,-1
 525 660 l 1,7,-1
 334 365 l 1,8,-1
 502 365 l 1,9,-1
 502 331 l 1,10,-1
 312 331 l 1,11,-1
 299 311 l 1,12,-1
 299 216 l 1,13,-1
 503 216 l 1,14,-1
 503 182 l 1,15,-1
 299 182 l 1,16,-1
 299 0 l 1,17,-1
 263 0 l 1,18,-1
 263 182 l 1,19,-1
 58 182 l 1,20,-1
 58 216 l 1,21,-1
 263 216 l 1,22,-1
 263 311 l 1,23,-1
 250 331 l 1,24,-1
 57 331 l 1,0,-1
EndSplineSet
EndChar

StartChar: brokenbar
Encoding: 166 166 104
Width: 209
GlyphClass: 2
Flags: W
LayerCount: 2
Fore
SplineSet
87 730 m 1,0,-1
 122 730 l 1,1,-1
 122 354 l 1,2,-1
 87 354 l 1,3,-1
 87 730 l 1,0,-1
87 146 m 1,4,-1
 122 146 l 1,5,-1
 122 -230 l 1,6,-1
 87 -230 l 1,7,-1
 87 146 l 1,4,-1
EndSplineSet
EndChar

StartChar: section
Encoding: 167 167 105
Width: 487
GlyphClass: 2
Flags: W
LayerCount: 2
Fore
SplineSet
247 628 m 0,0,1
 107 628 107 628 107 518 c 0,2,3
 107 453 107 453 139.5 430.5 c 128,-1,4
 172 408 172 408 256.5 395 c 128,-1,5
 341 382 341 382 381 353 c 128,-1,6
 421 324 421 324 421 255 c 0,7,8
 421 226 421 226 411.5 194.5 c 128,-1,9
 402 163 402 163 392 146 c 2,10,-1
 382 128 l 1,11,12
 418 100 418 100 418 28.5 c 128,-1,13
 418 -43 418 -43 373.5 -83 c 128,-1,14
 329 -123 329 -123 245 -123 c 0,15,16
 201 -123 201 -123 106 -113 c 2,17,-1
 77 -110 l 1,18,-1
 80 -78 l 1,19,20
 190 -92 190 -92 245 -92 c 0,21,22
 383 -92 383 -92 383 34 c 0,23,24
 383 91 383 91 351.5 109.5 c 128,-1,25
 320 128 320 128 233 140 c 128,-1,26
 146 152 146 152 104 182.5 c 128,-1,27
 62 213 62 213 62 283 c 0,28,29
 62 313 62 313 75.5 343 c 128,-1,30
 89 373 89 373 102 388 c 2,31,-1
 116 403 l 1,32,33
 72 436 72 436 72 512 c 0,34,35
 72 660 72 660 247 660 c 0,36,37
 310 660 310 660 378 650 c 1,38,-1
 403 647 l 1,39,-1
 401 615 l 1,40,41
 295 628 295 628 247 628 c 0,0,1
141 389 m 1,42,43
 97 336 97 336 97 283.5 c 128,-1,44
 97 231 97 231 132 206.5 c 128,-1,45
 167 182 167 182 246 170.5 c 128,-1,46
 325 159 325 159 356 144 c 1,47,48
 386 196 386 196 386 252.5 c 128,-1,49
 386 309 386 309 353.5 330.5 c 128,-1,50
 321 352 321 352 245 364 c 128,-1,51
 169 376 169 376 141 389 c 1,42,43
EndSplineSet
EndChar

StartChar: dieresis
Encoding: 168 168 106
Width: 215
GlyphClass: 2
Flags: W
LayerCount: 2
Fore
SplineSet
0 638 m 1,0,-1
 0 700 l 1,1,-1
 35 700 l 1,2,-1
 35 638 l 1,3,-1
 0 638 l 1,0,-1
190 638 m 1,4,-1
 190 700 l 1,5,-1
 225 700 l 1,6,-1
 225 638 l 1,7,-1
 190 638 l 1,4,-1
EndSplineSet
EndChar

StartChar: copyright
Encoding: 169 169 107
Width: 647
GlyphClass: 2
Flags: W
LayerCount: 2
Fore
SplineSet
68 434 m 128,-1,1
 68 545 68 545 141 622.5 c 128,-1,2
 214 700 214 700 323 700 c 128,-1,3
 432 700 432 700 505.5 622.5 c 128,-1,4
 579 545 579 545 579 434 c 128,-1,5
 579 323 579 323 505.5 246 c 128,-1,6
 432 169 432 169 323 169 c 128,-1,7
 214 169 214 169 141 246 c 128,-1,0
 68 323 68 323 68 434 c 128,-1,1
100 434 m 128,-1,9
 100 336 100 336 163.5 268.5 c 128,-1,10
 227 201 227 201 323 201 c 128,-1,11
 419 201 419 201 483 268.5 c 128,-1,12
 547 336 547 336 547 434 c 128,-1,13
 547 532 547 532 483 600 c 128,-1,14
 419 668 419 668 323 668 c 128,-1,15
 227 668 227 668 163.5 600 c 128,-1,8
 100 532 100 532 100 434 c 128,-1,9
323 281 m 0,16,17
 261 281 261 281 237.5 319.5 c 128,-1,18
 214 358 214 358 214 433.5 c 128,-1,19
 214 509 214 509 237 548 c 128,-1,20
 260 587 260 587 323 587 c 0,21,22
 362 587 362 587 387 582 c 2,23,-1
 397 580 l 1,24,-1
 396 548 l 1,25,26
 355 555 355 555 323 555 c 0,27,28
 274 555 274 555 260 527 c 128,-1,29
 246 499 246 499 246 435 c 128,-1,30
 246 371 246 371 262 342 c 128,-1,31
 278 313 278 313 323 313 c 1,32,-1
 396 321 l 1,33,-1
 397 289 l 1,34,35
 354 281 354 281 323 281 c 0,16,17
EndSplineSet
EndChar

StartChar: ordfeminine
Encoding: 170 170 108
Width: 366
GlyphClass: 2
Flags: W
LayerCount: 2
Fore
SplineSet
270 571 m 2,0,-1
 270 437 l 1,1,2
 281 420 281 420 307 414 c 1,3,-1
 305 386 l 1,4,5
 273 387 273 387 251 408 c 1,6,7
 188 386 188 386 132 386 c 0,8,9
 101 386 101 386 81.5 408 c 128,-1,10
 62 430 62 430 62 466 c 0,11,12
 62 536 62 536 137 542 c 2,13,-1
 239 549 l 1,14,-1
 239 572 l 2,15,16
 239 603 239 603 226.5 616 c 128,-1,17
 214 629 214 629 187 629 c 1,18,-1
 83 622 l 1,19,-1
 81 651 l 1,20,21
 150 659 150 659 190 659 c 128,-1,22
 230 659 230 659 250 638.5 c 128,-1,23
 270 618 270 618 270 571 c 2,0,-1
95 464 m 0,24,25
 95 417 95 417 135 417 c 128,-1,26
 175 417 175 417 223 430 c 1,27,-1
 239 435 l 1,28,-1
 239 520 l 1,29,-1
 142 514 l 2,30,31
 117 513 117 513 106 501 c 128,-1,32
 95 489 95 489 95 464 c 0,24,25
EndSplineSet
EndChar

StartChar: guillemotleft
Encoding: 171 171 109
Width: 497
GlyphClass: 2
Flags: W
LayerCount: 2
Fore
SplineSet
215 360 m 1,0,-1
 80 254 l 1,1,-1
 215 137 l 1,2,-1
 215 96 l 1,3,-1
 48 234 l 1,4,-1
 48 270 l 1,5,-1
 215 399 l 1,6,-1
 215 360 l 1,0,-1
422 360 m 1,7,-1
 287 254 l 1,8,-1
 422 137 l 1,9,-1
 422 96 l 1,10,-1
 255 234 l 1,11,-1
 255 270 l 1,12,-1
 422 399 l 1,13,-1
 422 360 l 1,7,-1
EndSplineSet
EndChar

StartChar: logicalnot
Encoding: 172 172 110
Width: 560
GlyphClass: 2
Flags: W
LayerCount: 2
Fore
SplineSet
71 332 m 1,0,-1
 493 332 l 1,1,-1
 493 126 l 1,2,-1
 457 126 l 1,3,-1
 457 298 l 1,4,-1
 71 298 l 1,5,-1
 71 332 l 1,0,-1
EndSplineSet
EndChar

StartChar: registered
Encoding: 174 174 111
Width: 647
GlyphClass: 2
Flags: W
LayerCount: 2
Fore
SplineSet
68 434 m 128,-1,1
 68 545 68 545 141 622.5 c 128,-1,2
 214 700 214 700 323 700 c 128,-1,3
 432 700 432 700 505.5 622.5 c 128,-1,4
 579 545 579 545 579 434 c 128,-1,5
 579 323 579 323 505.5 246 c 128,-1,6
 432 169 432 169 323 169 c 128,-1,7
 214 169 214 169 141 246 c 128,-1,0
 68 323 68 323 68 434 c 128,-1,1
100 434 m 128,-1,9
 100 336 100 336 163.5 268.5 c 128,-1,10
 227 201 227 201 323 201 c 128,-1,11
 419 201 419 201 483 268.5 c 128,-1,12
 547 336 547 336 547 434 c 128,-1,13
 547 532 547 532 483 600 c 128,-1,14
 419 668 419 668 323 668 c 128,-1,15
 227 668 227 668 163.5 600 c 128,-1,8
 100 532 100 532 100 434 c 128,-1,9
253 402 m 1,16,-1
 253 286 l 1,17,-1
 221 286 l 1,18,-1
 221 581 l 1,19,-1
 314 581 l 2,20,21
 373 581 373 581 400 561 c 128,-1,22
 427 541 427 541 427 492 c 0,23,24
 427 420 427 420 368 405 c 1,25,-1
 433 286 l 1,26,-1
 398 286 l 1,27,-1
 332 402 l 1,28,-1
 253 402 l 1,16,-1
253 550 m 1,29,-1
 253 433 l 1,30,-1
 333 433 l 2,31,32
 367 433 367 433 381 446 c 128,-1,33
 395 459 395 459 395 492 c 128,-1,34
 395 525 395 525 376 537.5 c 128,-1,35
 357 550 357 550 315 550 c 2,36,-1
 253 550 l 1,29,-1
EndSplineSet
EndChar

StartChar: macron
Encoding: 175 175 112
Width: 215
GlyphClass: 2
Flags: W
LayerCount: 2
Fore
SplineSet
-20 642 m 1,0,-1
 -20 674 l 1,1,-1
 247 674 l 1,2,-1
 247 642 l 1,3,-1
 -20 642 l 1,0,-1
EndSplineSet
EndChar

StartChar: degree
Encoding: 176 176 113
Width: 560
GlyphClass: 2
Flags: W
LayerCount: 2
Fore
SplineSet
144 573 m 128,-1,1
 144 634 144 634 181.5 671.5 c 128,-1,2
 219 709 219 709 280 709 c 128,-1,3
 341 709 341 709 378.5 671.5 c 128,-1,4
 416 634 416 634 416 573 c 128,-1,5
 416 512 416 512 378.5 475 c 128,-1,6
 341 438 341 438 280 438 c 128,-1,7
 219 438 219 438 181.5 475 c 128,-1,0
 144 512 144 512 144 573 c 128,-1,1
178 573 m 128,-1,9
 178 526 178 526 206 498 c 128,-1,10
 234 470 234 470 280.5 470 c 128,-1,11
 327 470 327 470 355.5 498.5 c 128,-1,12
 384 527 384 527 384 573.5 c 128,-1,13
 384 620 384 620 355 648.5 c 128,-1,14
 326 677 326 677 280 677 c 128,-1,15
 234 677 234 677 206 648.5 c 128,-1,8
 178 620 178 620 178 573 c 128,-1,9
EndSplineSet
EndChar

StartChar: plusminus
Encoding: 177 177 114
Width: 560
GlyphClass: 2
Flags: W
LayerCount: 2
Fore
SplineSet
59 308 m 1,0,-1
 59 342 l 1,1,-1
 261 342 l 1,2,-1
 261 480 l 1,3,-1
 297 480 l 1,4,-1
 297 342 l 1,5,-1
 501 342 l 1,6,-1
 501 308 l 1,7,-1
 297 308 l 1,8,-1
 297 164 l 1,9,-1
 261 164 l 1,10,-1
 261 308 l 1,11,-1
 59 308 l 1,0,-1
59 84 m 1,12,-1
 501 84 l 1,13,-1
 501 50 l 1,14,-1
 59 50 l 1,15,-1
 59 84 l 1,12,-1
EndSplineSet
EndChar

StartChar: twosuperior
Encoding: 178 178 115
Width: 280
GlyphClass: 2
Flags: W
LayerCount: 2
Fore
SplineSet
230 478 m 1,0,-1
 36 478 l 1,1,-1
 36 509 l 1,2,-1
 134 616 l 2,3,4
 167 651 167 651 177.5 673.5 c 128,-1,5
 188 696 188 696 188 718.5 c 128,-1,6
 188 741 188 741 172 754 c 128,-1,7
 156 767 156 767 136 767 c 0,8,9
 101 767 101 767 56 760 c 1,10,-1
 41 757 l 1,11,-1
 39 786 l 1,12,13
 90 799 90 799 132 799 c 0,14,15
 223 799 223 799 223 714 c 0,16,17
 223 681 223 681 208.5 655.5 c 128,-1,18
 194 630 194 630 159 594 c 2,19,-1
 79 511 l 1,20,-1
 230 511 l 1,21,-1
 230 478 l 1,0,-1
EndSplineSet
Substitution2: "Single Substitution lookup 5 subtable" twoinferior
EndChar

StartChar: threesuperior
Encoding: 179 179 116
Width: 280
GlyphClass: 2
Flags: W
LayerCount: 2
Fore
SplineSet
41 788 m 1,0,1
 94 799 94 799 141 799 c 128,-1,2
 188 799 188 799 210.5 780 c 128,-1,3
 233 761 233 761 233 727.5 c 128,-1,4
 233 694 233 694 222 675 c 0,5,6
 204 646 204 646 187 643 c 1,7,8
 216 635 216 635 229 618.5 c 128,-1,9
 242 602 242 602 242 562 c 0,10,11
 242 469 242 469 144 469 c 0,12,13
 96 469 96 469 53 477 c 2,14,-1
 37 480 l 1,15,-1
 40 511 l 1,16,17
 94 502 94 502 135 502 c 128,-1,18
 176 502 176 502 191.5 518 c 128,-1,19
 207 534 207 534 207 561 c 0,20,21
 207 623 207 623 147 623 c 2,22,-1
 82 623 l 1,23,-1
 82 656 l 1,24,-1
 147 656 l 2,25,26
 165 656 165 656 181.5 675 c 128,-1,27
 198 694 198 694 198 719 c 0,28,29
 198 766 198 766 140 766 c 0,30,31
 94 766 94 766 58 760 c 1,32,-1
 44 757 l 1,33,-1
 41 788 l 1,0,1
EndSplineSet
Substitution2: "Single Substitution lookup 5 subtable" threeinferior
EndChar

StartChar: acute
Encoding: 180 180 117
Width: 268
GlyphClass: 2
Flags: W
LayerCount: 2
Fore
SplineSet
40 636 m 1,0,-1
 232 732 l 1,1,-1
 248 701 l 1,2,-1
 55 609 l 1,3,-1
 40 636 l 1,0,-1
EndSplineSet
EndChar

StartChar: mu
Encoding: 181 181 118
Width: 560
GlyphClass: 2
Flags: W
LayerCount: 2
Fore
SplineSet
426 500 m 1,0,-1
 461 500 l 1,1,-1
 461 0 l 1,2,-1
 426 0 l 1,3,-1
 426 40 l 1,4,5
 417 35 417 35 402 26.5 c 128,-1,6
 387 18 387 18 343.5 4.5 c 128,-1,7
 300 -9 300 -9 262 -9 c 0,8,9
 166 -9 166 -9 133 36 c 1,10,-1
 133 -230 l 1,11,-1
 98 -230 l 1,12,-1
 98 500 l 1,13,-1
 133 500 l 1,14,-1
 133 242 l 2,15,16
 133 110 133 110 157 66.5 c 128,-1,17
 181 23 181 23 262 23 c 0,18,19
 302 23 302 23 343 35.5 c 128,-1,20
 384 48 384 48 405 60 c 2,21,-1
 426 73 l 1,22,-1
 426 500 l 1,0,-1
EndSplineSet
EndChar

StartChar: paragraph
Encoding: 182 182 119
Width: 589
GlyphClass: 2
Flags: W
LayerCount: 2
Fore
SplineSet
421 0 m 1,0,-1
 421 667 l 1,1,-1
 269 667 l 1,2,-1
 269 0 l 1,3,-1
 233 0 l 1,4,-1
 233 350 l 1,5,-1
 226 350 l 2,6,7
 147 350 147 350 93.5 398.5 c 128,-1,8
 40 447 40 447 40 524 c 128,-1,9
 40 601 40 601 93.5 650.5 c 128,-1,10
 147 700 147 700 226 700 c 2,11,-1
 554 700 l 1,12,-1
 554 667 l 1,13,-1
 457 667 l 1,14,-1
 457 0 l 1,15,-1
 421 0 l 1,0,-1
EndSplineSet
EndChar

StartChar: periodcentered
Encoding: 183 183 120
Width: 191
GlyphClass: 2
Flags: W
LayerCount: 2
Fore
SplineSet
76 270 m 1,0,-1
 76 350 l 1,1,-1
 116 350 l 1,2,-1
 116 270 l 1,3,-1
 76 270 l 1,0,-1
EndSplineSet
Substitution2: "'case' Case-Sensitive Forms in Latin lookup 4 subtable" periodcentered.cap
EndChar

StartChar: cedilla
Encoding: 184 184 121
Width: 263
GlyphClass: 2
Flags: W
LayerCount: 2
Fore
SplineSet
213 -127 m 0,0,1
 213 -201 213 -201 131 -201 c 1,2,-1
 50 -197 l 1,3,-1
 52 -169 l 1,4,5
 96 -173 96 -173 130 -173 c 0,6,7
 178 -173 178 -173 178 -127 c 0,8,9
 178 -85 178 -85 130 -85 c 2,10,-1
 76 -85 l 1,11,-1
 76 1 l 1,12,-1
 109 1 l 1,13,-1
 109 -57 l 1,14,15
 165 -57 165 -57 189 -72 c 128,-1,16
 213 -87 213 -87 213 -127 c 0,0,1
EndSplineSet
EndChar

StartChar: onesuperior
Encoding: 185 185 122
Width: 280
GlyphClass: 2
Flags: W
LayerCount: 2
Fore
SplineSet
180 790 m 1,0,-1
 180 478 l 1,1,-1
 145 478 l 1,2,-1
 145 751 l 1,3,-1
 63 695 l 1,4,-1
 46 723 l 1,5,-1
 145 790 l 1,6,-1
 180 790 l 1,0,-1
EndSplineSet
Substitution2: "Single Substitution lookup 5 subtable" oneinferior
EndChar

StartChar: ordmasculine
Encoding: 186 186 123
Width: 353
GlyphClass: 2
Flags: W
LayerCount: 2
Fore
SplineSet
177 659 m 0,0,1
 235 659 235 659 262.5 626.5 c 128,-1,2
 290 594 290 594 290 524 c 0,3,4
 290 386 290 386 177 386 c 0,5,6
 62 386 62 386 62 522.5 c 128,-1,7
 62 659 62 659 177 659 c 0,0,1
177 418 m 128,-1,9
 220 418 220 418 238 442.5 c 128,-1,10
 256 467 256 467 256 524 c 128,-1,11
 256 581 256 581 238 604 c 128,-1,12
 220 627 220 627 177 627 c 128,-1,13
 134 627 134 627 115 603.5 c 128,-1,14
 96 580 96 580 96 523.5 c 128,-1,15
 96 467 96 467 115 442.5 c 128,-1,8
 134 418 134 418 177 418 c 128,-1,9
EndSplineSet
EndChar

StartChar: guillemotright
Encoding: 187 187 124
Width: 497
GlyphClass: 2
Flags: W
LayerCount: 2
Fore
SplineSet
417 254 m 1,0,-1
 282 360 l 1,1,-1
 282 399 l 1,2,-1
 449 270 l 1,3,-1
 449 234 l 1,4,-1
 282 96 l 1,5,-1
 282 137 l 1,6,-1
 417 254 l 1,0,-1
210 254 m 1,7,-1
 75 360 l 1,8,-1
 75 399 l 1,9,-1
 242 270 l 1,10,-1
 242 234 l 1,11,-1
 75 96 l 1,12,-1
 75 137 l 1,13,-1
 210 254 l 1,7,-1
EndSplineSet
EndChar

StartChar: onequarter
Encoding: 188 188 125
Width: 525
GlyphClass: 2
Flags: W
LayerCount: 2
Fore
SplineSet
183 790 m 1,0,-1
 183 478 l 1,1,-1
 148 478 l 1,2,-1
 148 751 l 1,3,-1
 66 695 l 1,4,-1
 49 723 l 1,5,-1
 148 790 l 1,6,-1
 183 790 l 1,0,-1
39 28 m 1,7,-1
 431 659 l 1,8,-1
 461 640 l 1,9,-1
 69 10 l 1,10,-1
 39 28 l 1,7,-1
414 -100 m 1,11,-1
 414 -43 l 1,12,-1
 268 -43 l 1,13,-1
 268 -12 l 1,14,-1
 357 212 l 1,15,-1
 395 212 l 1,16,-1
 308 -10 l 1,17,-1
 414 -10 l 1,18,-1
 414 78 l 1,19,-1
 450 78 l 1,20,-1
 450 -10 l 1,21,-1
 487 -10 l 1,22,-1
 487 -43 l 1,23,-1
 450 -43 l 1,24,-1
 450 -100 l 1,25,-1
 414 -100 l 1,11,-1
EndSplineSet
EndChar

StartChar: onehalf
Encoding: 189 189 126
Width: 520
GlyphClass: 2
Flags: W
LayerCount: 2
Fore
SplineSet
190 790 m 1,0,-1
 190 478 l 1,1,-1
 155 478 l 1,2,-1
 155 751 l 1,3,-1
 73 695 l 1,4,-1
 56 723 l 1,5,-1
 155 790 l 1,6,-1
 190 790 l 1,0,-1
36 28 m 1,7,-1
 428 659 l 1,8,-1
 458 640 l 1,9,-1
 66 10 l 1,10,-1
 36 28 l 1,7,-1
469 -100 m 1,11,-1
 275 -100 l 1,12,-1
 275 -69 l 1,13,-1
 373 38 l 2,14,15
 406 73 406 73 416.5 95.5 c 128,-1,16
 427 118 427 118 427 140.5 c 128,-1,17
 427 163 427 163 411 176 c 128,-1,18
 395 189 395 189 375 189 c 0,19,20
 340 189 340 189 295 182 c 1,21,-1
 280 179 l 1,22,-1
 278 208 l 1,23,24
 329 221 329 221 371 221 c 0,25,26
 462 221 462 221 462 136 c 0,27,28
 462 103 462 103 447.5 77.5 c 128,-1,29
 433 52 433 52 398 16 c 2,30,-1
 318 -67 l 1,31,-1
 469 -67 l 1,32,-1
 469 -100 l 1,11,-1
EndSplineSet
EndChar

StartChar: threequarters
Encoding: 190 190 127
Width: 543
GlyphClass: 2
Flags: W
LayerCount: 2
Fore
SplineSet
58 28 m 1,0,-1
 450 659 l 1,1,-1
 480 640 l 1,2,-1
 88 10 l 1,3,-1
 58 28 l 1,0,-1
62 788 m 1,4,5
 115 799 115 799 162 799 c 128,-1,6
 209 799 209 799 231.5 780 c 128,-1,7
 254 761 254 761 254 727.5 c 128,-1,8
 254 694 254 694 243 675 c 0,9,10
 228 650 228 650 208 643 c 1,11,12
 237 635 237 635 250 618 c 128,-1,13
 263 601 263 601 263 562 c 0,14,15
 263 469 263 469 165 469 c 0,16,17
 117 469 117 469 74 477 c 2,18,-1
 58 480 l 1,19,-1
 61 511 l 1,20,21
 115 502 115 502 156 502 c 128,-1,22
 197 502 197 502 212.5 518 c 128,-1,23
 228 534 228 534 228 561 c 0,24,25
 228 623 228 623 168 623 c 2,26,-1
 103 623 l 1,27,-1
 103 656 l 1,28,-1
 168 656 l 2,29,30
 186 656 186 656 202.5 675 c 128,-1,31
 219 694 219 694 219 719 c 0,32,33
 219 766 219 766 161 766 c 0,34,35
 115 766 115 766 79 760 c 1,36,-1
 65 757 l 1,37,-1
 62 788 l 1,4,5
433 -100 m 1,38,-1
 433 -43 l 1,39,-1
 287 -43 l 1,40,-1
 287 -12 l 1,41,-1
 376 212 l 1,42,-1
 414 212 l 1,43,-1
 327 -10 l 1,44,-1
 433 -10 l 1,45,-1
 433 78 l 1,46,-1
 469 78 l 1,47,-1
 469 -10 l 1,48,-1
 506 -10 l 1,49,-1
 506 -43 l 1,50,-1
 469 -43 l 1,51,-1
 469 -100 l 1,52,-1
 433 -100 l 1,38,-1
EndSplineSet
EndChar

StartChar: questiondown
Encoding: 191 191 128
Width: 447
GlyphClass: 2
Flags: W
LayerCount: 2
Fore
SplineSet
43 -50 m 0,0,1
 43 11 43 11 61.5 43.5 c 128,-1,2
 80 76 80 76 129.5 119.5 c 128,-1,3
 179 163 179 163 194.5 178 c 128,-1,4
 210 193 210 193 226 220 c 128,-1,5
 242 247 242 247 242 273 c 2,6,-1
 242 311 l 1,7,-1
 276 311 l 1,8,9
 277 289 277 289 277 268 c 128,-1,10
 277 247 277 247 269 225.5 c 128,-1,11
 261 204 261 204 242 182 c 0,12,13
 212 148 212 148 163 104 c 128,-1,14
 114 60 114 60 96 30 c 128,-1,15
 78 0 78 0 78 -50 c 0,16,17
 78 -119 78 -119 118.5 -147 c 128,-1,18
 159 -175 159 -175 243 -175 c 0,19,20
 286 -175 286 -175 374 -154 c 2,21,-1
 404 -147 l 1,22,-1
 409 -181 l 1,23,24
 297 -208 297 -208 243 -208 c 0,25,26
 144 -208 144 -208 93.5 -171.5 c 128,-1,27
 43 -135 43 -135 43 -50 c 0,0,1
279 500 m 1,28,-1
 279 420 l 1,29,-1
 239 420 l 1,30,-1
 239 500 l 1,31,-1
 279 500 l 1,28,-1
EndSplineSet
Substitution2: "'case' Case-Sensitive Forms in Latin lookup 4 subtable" questiondown.cap
EndChar

StartChar: Agrave
Encoding: 192 192 129
Width: 592
GlyphClass: 2
Flags: W
LayerCount: 2
Fore
SplineSet
28 0 m 1,0,-1
 243 700 l 1,1,-1
 349 700 l 1,2,-1
 564 0 l 1,3,-1
 528 0 l 1,4,-1
 463 215 l 1,5,-1
 129 215 l 1,6,-1
 64 0 l 1,7,-1
 28 0 l 1,0,-1
268 666 m 1,8,-1
 140 249 l 1,9,-1
 452 249 l 1,10,-1
 324 666 l 1,11,-1
 268 666 l 1,8,-1
193 922 m 1,12,-1
 385 826 l 1,13,-1
 370 799 l 1,14,-1
 177 891 l 1,15,-1
 193 922 l 1,12,-1
EndSplineSet
Position2: "'cpsp' Capital Spacing in Latin lookup 0 subtable" dx=5 dy=0 dh=10 dv=0
EndChar

StartChar: Aacute
Encoding: 193 193 130
Width: 592
GlyphClass: 2
Flags: W
LayerCount: 2
Fore
SplineSet
28 0 m 1,0,-1
 243 700 l 1,1,-1
 349 700 l 1,2,-1
 564 0 l 1,3,-1
 528 0 l 1,4,-1
 463 215 l 1,5,-1
 129 215 l 1,6,-1
 64 0 l 1,7,-1
 28 0 l 1,0,-1
268 666 m 1,8,-1
 140 249 l 1,9,-1
 452 249 l 1,10,-1
 324 666 l 1,11,-1
 268 666 l 1,8,-1
202 826 m 1,12,-1
 394 922 l 1,13,-1
 410 891 l 1,14,-1
 217 799 l 1,15,-1
 202 826 l 1,12,-1
EndSplineSet
Position2: "'cpsp' Capital Spacing in Latin lookup 0 subtable" dx=5 dy=0 dh=10 dv=0
EndChar

StartChar: Acircumflex
Encoding: 194 194 131
Width: 592
GlyphClass: 2
Flags: W
LayerCount: 2
Fore
SplineSet
28 0 m 1,0,-1
 243 700 l 1,1,-1
 349 700 l 1,2,-1
 564 0 l 1,3,-1
 528 0 l 1,4,-1
 463 215 l 1,5,-1
 129 215 l 1,6,-1
 64 0 l 1,7,-1
 28 0 l 1,0,-1
268 666 m 1,8,-1
 140 249 l 1,9,-1
 452 249 l 1,10,-1
 324 666 l 1,11,-1
 268 666 l 1,8,-1
146 809 m 1,12,-1
 280 934 l 1,13,-1
 310 934 l 1,14,-1
 444 809 l 1,15,-1
 399 809 l 1,16,-1
 295 905 l 1,17,-1
 192 809 l 1,18,-1
 146 809 l 1,12,-1
EndSplineSet
Position2: "'cpsp' Capital Spacing in Latin lookup 0 subtable" dx=5 dy=0 dh=10 dv=0
EndChar

StartChar: Atilde
Encoding: 195 195 132
Width: 592
GlyphClass: 2
Flags: W
LayerCount: 2
Fore
SplineSet
28 0 m 1,0,-1
 243 700 l 1,1,-1
 349 700 l 1,2,-1
 564 0 l 1,3,-1
 528 0 l 1,4,-1
 463 215 l 1,5,-1
 129 215 l 1,6,-1
 64 0 l 1,7,-1
 28 0 l 1,0,-1
268 666 m 1,8,-1
 140 249 l 1,9,-1
 452 249 l 1,10,-1
 324 666 l 1,11,-1
 268 666 l 1,8,-1
447 885 m 1,12,13
 408 833 408 833 381 833 c 128,-1,14
 354 833 354 833 293.5 863 c 128,-1,15
 233 893 233 893 221 893 c 0,16,17
 199 893 199 893 163 854 c 2,18,-1
 151 841 l 1,19,-1
 141 870 l 1,20,21
 185 924 185 924 218 924 c 0,22,23
 241 924 241 924 301.5 894.5 c 128,-1,24
 362 865 362 865 374 865 c 0,25,26
 392 865 392 865 425 901 c 2,27,-1
 436 913 l 1,28,-1
 447 885 l 1,12,13
EndSplineSet
Position2: "'cpsp' Capital Spacing in Latin lookup 0 subtable" dx=5 dy=0 dh=10 dv=0
EndChar

StartChar: Adieresis
Encoding: 196 196 133
Width: 592
GlyphClass: 2
Flags: W
LayerCount: 2
Fore
SplineSet
28 0 m 1,0,-1
 243 700 l 1,1,-1
 349 700 l 1,2,-1
 564 0 l 1,3,-1
 528 0 l 1,4,-1
 463 215 l 1,5,-1
 129 215 l 1,6,-1
 64 0 l 1,7,-1
 28 0 l 1,0,-1
268 666 m 1,8,-1
 140 249 l 1,9,-1
 452 249 l 1,10,-1
 324 666 l 1,11,-1
 268 666 l 1,8,-1
180 838 m 1,12,-1
 180 900 l 1,13,-1
 215 900 l 1,14,-1
 215 838 l 1,15,-1
 180 838 l 1,12,-1
376 838 m 1,16,-1
 376 900 l 1,17,-1
 411 900 l 1,18,-1
 411 838 l 1,19,-1
 376 838 l 1,16,-1
EndSplineSet
Position2: "'cpsp' Capital Spacing in Latin lookup 0 subtable" dx=5 dy=0 dh=10 dv=0
EndChar

StartChar: Aring
Encoding: 197 197 134
Width: 592
GlyphClass: 2
Flags: W
LayerCount: 2
Fore
SplineSet
364.5 826.5 m 128,-1,1
 391 802 391 802 391 755.5 c 128,-1,2
 391 709 391 709 354 683 c 1,3,-1
 564 0 l 1,4,-1
 528 0 l 1,5,-1
 463 215 l 1,6,-1
 129 215 l 1,7,-1
 64 0 l 1,8,-1
 28 0 l 1,9,-1
 237 681 l 1,10,11
 197 705 197 705 197 753.5 c 128,-1,12
 197 802 197 802 223.5 826.5 c 128,-1,13
 250 851 250 851 294 851 c 128,-1,0
 338 851 338 851 364.5 826.5 c 128,-1,1
268 666 m 1,14,-1
 140 249 l 1,15,-1
 452 249 l 1,16,-1
 324 666 l 1,17,-1
 268 666 l 1,14,-1
230 759 m 0,18,19
 230 711 230 711 270 700 c 1,20,-1
 317 700 l 1,21,22
 358 711 358 711 358 759 c 0,23,24
 358 789 358 789 341 805 c 128,-1,25
 324 821 324 821 294 821 c 128,-1,26
 264 821 264 821 247 805 c 128,-1,27
 230 789 230 789 230 759 c 0,18,19
EndSplineSet
Position2: "'cpsp' Capital Spacing in Latin lookup 0 subtable" dx=5 dy=0 dh=10 dv=0
EndChar

StartChar: AE
Encoding: 198 198 135
Width: 879
GlyphClass: 2
Flags: W
LayerCount: 2
Fore
SplineSet
419 0 m 1,0,-1
 419 215 l 1,1,-1
 143 215 l 1,2,-1
 65 0 l 1,3,-1
 25 0 l 1,4,-1
 276 700 l 1,5,-1
 828 700 l 1,6,-1
 828 666 l 1,7,-1
 455 666 l 1,8,-1
 455 378 l 1,9,-1
 768 378 l 1,10,-1
 768 344 l 1,11,-1
 455 344 l 1,12,-1
 455 34 l 1,13,-1
 828 34 l 1,14,-1
 828 0 l 1,15,-1
 419 0 l 1,0,-1
419 249 m 1,16,-1
 419 666 l 1,17,-1
 304 666 l 1,18,-1
 155 249 l 1,19,-1
 419 249 l 1,16,-1
EndSplineSet
Position2: "'cpsp' Capital Spacing in Latin lookup 0 subtable" dx=5 dy=0 dh=10 dv=0
EndChar

StartChar: Ccedilla
Encoding: 199 199 136
Width: 545
GlyphClass: 2
Flags: W
LayerCount: 2
Fore
SplineSet
431 -127 m 0,0,1
 431 -201 431 -201 349 -201 c 1,2,-1
 268 -197 l 1,3,-1
 270 -169 l 1,4,5
 314 -173 314 -173 348 -173 c 0,6,7
 396 -173 396 -173 396 -127 c 0,8,9
 396 -85 396 -85 348 -85 c 2,10,-1
 294 -85 l 1,11,-1
 294 -8 l 1,12,13
 186 -2 186 -2 133 59 c 0,14,15
 85 115 85 115 72 228 c 0,16,17
 67 279 67 279 67 348.5 c 128,-1,18
 67 418 67 418 72.5 469 c 128,-1,19
 78 520 78 520 93.5 568 c 128,-1,20
 109 616 109 616 136 645 c 0,21,22
 196 709 196 709 316 709 c 0,23,24
 404 709 404 709 501 690 c 1,25,-1
 498 655 l 1,26,27
 402 675 402 675 331.5 675 c 128,-1,28
 261 675 261 675 222 659 c 128,-1,29
 183 643 183 643 160.5 617.5 c 128,-1,30
 138 592 138 592 125.5 547.5 c 128,-1,31
 113 503 113 503 109 458 c 128,-1,32
 105 413 105 413 105 347 c 128,-1,33
 105 281 105 281 109 236 c 128,-1,34
 113 191 113 191 126 148 c 128,-1,35
 139 105 139 105 162 80 c 0,36,37
 213 25 213 25 316 25 c 0,38,39
 394 25 394 25 498 45 c 1,40,-1
 501 11 l 1,41,42
 411 -8 411 -8 327 -9 c 1,43,-1
 327 -57 l 1,44,45
 383 -57 383 -57 407 -72 c 128,-1,46
 431 -87 431 -87 431 -127 c 0,0,1
EndSplineSet
Position2: "'cpsp' Capital Spacing in Latin lookup 0 subtable" dx=5 dy=0 dh=10 dv=0
EndChar

StartChar: Egrave
Encoding: 200 200 137
Width: 552
GlyphClass: 2
Flags: W
LayerCount: 2
Fore
SplineSet
92 0 m 1,0,-1
 92 700 l 1,1,-1
 501 700 l 1,2,-1
 501 666 l 1,3,-1
 128 666 l 1,4,-1
 128 375 l 1,5,-1
 441 375 l 1,6,-1
 441 341 l 1,7,-1
 128 341 l 1,8,-1
 128 34 l 1,9,-1
 501 34 l 1,10,-1
 501 0 l 1,11,-1
 92 0 l 1,0,-1
205 922 m 1,12,-1
 397 826 l 1,13,-1
 382 799 l 1,14,-1
 189 891 l 1,15,-1
 205 922 l 1,12,-1
EndSplineSet
Position2: "'cpsp' Capital Spacing in Latin lookup 0 subtable" dx=5 dy=0 dh=10 dv=0
EndChar

StartChar: Eacute
Encoding: 201 201 138
Width: 552
GlyphClass: 2
Flags: W
LayerCount: 2
Fore
SplineSet
92 0 m 1,0,-1
 92 700 l 1,1,-1
 501 700 l 1,2,-1
 501 666 l 1,3,-1
 128 666 l 1,4,-1
 128 375 l 1,5,-1
 441 375 l 1,6,-1
 441 341 l 1,7,-1
 128 341 l 1,8,-1
 128 34 l 1,9,-1
 501 34 l 1,10,-1
 501 0 l 1,11,-1
 92 0 l 1,0,-1
192 826 m 1,12,-1
 384 922 l 1,13,-1
 400 891 l 1,14,-1
 207 799 l 1,15,-1
 192 826 l 1,12,-1
EndSplineSet
Position2: "'cpsp' Capital Spacing in Latin lookup 0 subtable" dx=5 dy=0 dh=10 dv=0
EndChar

StartChar: Ecircumflex
Encoding: 202 202 139
Width: 552
GlyphClass: 2
Flags: W
LayerCount: 2
Fore
SplineSet
92 0 m 1,0,-1
 92 700 l 1,1,-1
 501 700 l 1,2,-1
 501 666 l 1,3,-1
 128 666 l 1,4,-1
 128 375 l 1,5,-1
 441 375 l 1,6,-1
 441 341 l 1,7,-1
 128 341 l 1,8,-1
 128 34 l 1,9,-1
 501 34 l 1,10,-1
 501 0 l 1,11,-1
 92 0 l 1,0,-1
142 809 m 1,12,-1
 276 934 l 1,13,-1
 306 934 l 1,14,-1
 440 809 l 1,15,-1
 395 809 l 1,16,-1
 291 905 l 1,17,-1
 188 809 l 1,18,-1
 142 809 l 1,12,-1
EndSplineSet
Position2: "'cpsp' Capital Spacing in Latin lookup 0 subtable" dx=5 dy=0 dh=10 dv=0
EndChar

StartChar: Edieresis
Encoding: 203 203 140
Width: 552
GlyphClass: 2
Flags: W
LayerCount: 2
Fore
SplineSet
92 0 m 1,0,-1
 92 700 l 1,1,-1
 501 700 l 1,2,-1
 501 666 l 1,3,-1
 128 666 l 1,4,-1
 128 375 l 1,5,-1
 441 375 l 1,6,-1
 441 341 l 1,7,-1
 128 341 l 1,8,-1
 128 34 l 1,9,-1
 501 34 l 1,10,-1
 501 0 l 1,11,-1
 92 0 l 1,0,-1
180 838 m 1,12,-1
 180 900 l 1,13,-1
 215 900 l 1,14,-1
 215 838 l 1,15,-1
 180 838 l 1,12,-1
376 838 m 1,16,-1
 376 900 l 1,17,-1
 411 900 l 1,18,-1
 411 838 l 1,19,-1
 376 838 l 1,16,-1
EndSplineSet
Position2: "'cpsp' Capital Spacing in Latin lookup 0 subtable" dx=5 dy=0 dh=10 dv=0
EndChar

StartChar: Igrave
Encoding: 204 204 141
Width: 220
GlyphClass: 2
Flags: W
LayerCount: 2
Fore
SplineSet
92 0 m 1,0,-1
 92 700 l 1,1,-1
 128 700 l 1,2,-1
 128 0 l 1,3,-1
 92 0 l 1,0,-1
-2 922 m 1,4,-1
 190 826 l 1,5,-1
 175 799 l 1,6,-1
 -18 891 l 1,7,-1
 -2 922 l 1,4,-1
EndSplineSet
Position2: "'cpsp' Capital Spacing in Latin lookup 0 subtable" dx=5 dy=0 dh=10 dv=0
EndChar

StartChar: Iacute
Encoding: 205 205 142
Width: 220
GlyphClass: 2
Flags: W
LayerCount: 2
Fore
SplineSet
92 0 m 1,0,-1
 92 700 l 1,1,-1
 128 700 l 1,2,-1
 128 0 l 1,3,-1
 92 0 l 1,0,-1
17 826 m 1,4,-1
 209 922 l 1,5,-1
 225 891 l 1,6,-1
 32 799 l 1,7,-1
 17 826 l 1,4,-1
EndSplineSet
Position2: "'cpsp' Capital Spacing in Latin lookup 0 subtable" dx=5 dy=0 dh=10 dv=0
EndChar

StartChar: Icircumflex
Encoding: 206 206 143
Width: 220
GlyphClass: 2
Flags: W
LayerCount: 2
Fore
SplineSet
92 0 m 1,0,-1
 92 700 l 1,1,-1
 128 700 l 1,2,-1
 128 0 l 1,3,-1
 92 0 l 1,0,-1
-45 809 m 1,4,-1
 89 934 l 1,5,-1
 119 934 l 1,6,-1
 253 809 l 1,7,-1
 208 809 l 1,8,-1
 104 905 l 1,9,-1
 1 809 l 1,10,-1
 -45 809 l 1,4,-1
EndSplineSet
Position2: "'cpsp' Capital Spacing in Latin lookup 0 subtable" dx=5 dy=0 dh=10 dv=0
EndChar

StartChar: Idieresis
Encoding: 207 207 144
Width: 220
GlyphClass: 2
Flags: W
LayerCount: 2
Fore
SplineSet
92 0 m 1,0,-1
 92 700 l 1,1,-1
 128 700 l 1,2,-1
 128 0 l 1,3,-1
 92 0 l 1,0,-1
-6 838 m 1,4,-1
 -6 900 l 1,5,-1
 29 900 l 1,6,-1
 29 838 l 1,7,-1
 -6 838 l 1,4,-1
190 838 m 1,8,-1
 190 900 l 1,9,-1
 225 900 l 1,10,-1
 225 838 l 1,11,-1
 190 838 l 1,8,-1
EndSplineSet
Position2: "'cpsp' Capital Spacing in Latin lookup 0 subtable" dx=5 dy=0 dh=10 dv=0
EndChar

StartChar: Eth
Encoding: 208 208 145
Width: 651
GlyphClass: 2
Flags: W
LayerCount: 2
Fore
SplineSet
17 334 m 1,0,-1
 17 368 l 1,1,-1
 94 368 l 1,2,-1
 94 700 l 1,3,-1
 354 700 l 2,4,5
 418 700 418 700 464.5 672 c 128,-1,6
 511 644 511 644 538 595 c 0,7,8
 588 502 588 502 588 360 c 0,9,10
 588 219 588 219 537 115 c 0,11,12
 511 62 511 62 464 31 c 128,-1,13
 417 0 417 0 354 0 c 2,14,-1
 94 0 l 1,15,-1
 94 334 l 1,16,-1
 17 334 l 1,0,-1
550 360 m 128,-1,18
 550 420 550 420 540 471.5 c 128,-1,19
 530 523 530 523 508.5 568.5 c 128,-1,20
 487 614 487 614 447.5 640 c 128,-1,21
 408 666 408 666 354 666 c 2,22,-1
 130 666 l 1,23,-1
 130 368 l 1,24,-1
 307 368 l 1,25,-1
 307 334 l 1,26,-1
 130 334 l 1,27,-1
 130 34 l 1,28,-1
 354 34 l 2,29,30
 408 34 408 34 447.5 63 c 128,-1,31
 487 92 487 92 508.5 141.5 c 128,-1,32
 530 191 530 191 540 245.5 c 128,-1,17
 550 300 550 300 550 360 c 128,-1,18
EndSplineSet
Position2: "'cpsp' Capital Spacing in Latin lookup 0 subtable" dx=5 dy=0 dh=10 dv=0
EndChar

StartChar: Ntilde
Encoding: 209 209 146
Width: 665
GlyphClass: 2
Flags: W
LayerCount: 2
Fore
SplineSet
92 0 m 1,0,-1
 92 700 l 1,1,-1
 177 700 l 1,2,-1
 510 34 l 1,3,-1
 537 34 l 1,4,-1
 537 700 l 1,5,-1
 573 700 l 1,6,-1
 573 0 l 1,7,-1
 488 0 l 1,8,-1
 154 666 l 1,9,-1
 128 666 l 1,10,-1
 128 0 l 1,11,-1
 92 0 l 1,0,-1
485 885 m 1,12,13
 446 833 446 833 419 833 c 128,-1,14
 392 833 392 833 331.5 863 c 128,-1,15
 271 893 271 893 259 893 c 0,16,17
 237 893 237 893 201 854 c 2,18,-1
 189 841 l 1,19,-1
 179 870 l 1,20,21
 223 924 223 924 256 924 c 0,22,23
 279 924 279 924 339.5 894.5 c 128,-1,24
 400 865 400 865 412 865 c 0,25,26
 430 865 430 865 463 901 c 2,27,-1
 474 913 l 1,28,-1
 485 885 l 1,12,13
EndSplineSet
Position2: "'cpsp' Capital Spacing in Latin lookup 0 subtable" dx=5 dy=0 dh=10 dv=0
EndChar

StartChar: Ograve
Encoding: 210 210 147
Width: 666
GlyphClass: 2
Flags: W
LayerCount: 2
Fore
SplineSet
216 45 m 128,-1,1
 262 25 262 25 333.5 25 c 128,-1,2
 405 25 405 25 450.5 43.5 c 128,-1,3
 496 62 496 62 520.5 104.5 c 128,-1,4
 545 147 545 147 554 203 c 128,-1,5
 563 259 563 259 563 347 c 0,6,7
 563 515 563 515 514.5 595 c 128,-1,8
 466 675 466 675 333 675 c 0,9,10
 194 675 194 675 146 588 c 0,11,12
 122 544 122 544 112.5 487.5 c 128,-1,13
 103 431 103 431 103 346.5 c 128,-1,14
 103 262 103 262 112 207 c 128,-1,15
 121 152 121 152 145.5 108.5 c 128,-1,0
 170 65 170 65 216 45 c 128,-1,1
118 82 m 0,16,17
 88 130 88 130 76.5 192.5 c 128,-1,18
 65 255 65 255 65 347 c 0,19,20
 65 531 65 531 123 620 c 128,-1,21
 181 709 181 709 333 709 c 128,-1,22
 485 709 485 709 543 620.5 c 128,-1,23
 601 532 601 532 601 344 c 128,-1,24
 601 156 601 156 544.5 73.5 c 128,-1,25
 488 -9 488 -9 331 -9 c 128,-1,26
 174 -9 174 -9 118 82 c 0,16,17
242 922 m 1,27,-1
 434 826 l 1,28,-1
 419 799 l 1,29,-1
 226 891 l 1,30,-1
 242 922 l 1,27,-1
EndSplineSet
Position2: "'cpsp' Capital Spacing in Latin lookup 0 subtable" dx=5 dy=0 dh=10 dv=0
EndChar

StartChar: Oacute
Encoding: 211 211 148
Width: 666
GlyphClass: 2
Flags: W
LayerCount: 2
Fore
SplineSet
216 45 m 128,-1,1
 262 25 262 25 333.5 25 c 128,-1,2
 405 25 405 25 450.5 43.5 c 128,-1,3
 496 62 496 62 520.5 104.5 c 128,-1,4
 545 147 545 147 554 203 c 128,-1,5
 563 259 563 259 563 347 c 0,6,7
 563 515 563 515 514.5 595 c 128,-1,8
 466 675 466 675 333 675 c 0,9,10
 194 675 194 675 146 588 c 0,11,12
 122 544 122 544 112.5 487.5 c 128,-1,13
 103 431 103 431 103 346.5 c 128,-1,14
 103 262 103 262 112 207 c 128,-1,15
 121 152 121 152 145.5 108.5 c 128,-1,0
 170 65 170 65 216 45 c 128,-1,1
118 82 m 0,16,17
 88 130 88 130 76.5 192.5 c 128,-1,18
 65 255 65 255 65 347 c 0,19,20
 65 531 65 531 123 620 c 128,-1,21
 181 709 181 709 333 709 c 128,-1,22
 485 709 485 709 543 620.5 c 128,-1,23
 601 532 601 532 601 344 c 128,-1,24
 601 156 601 156 544.5 73.5 c 128,-1,25
 488 -9 488 -9 331 -9 c 128,-1,26
 174 -9 174 -9 118 82 c 0,16,17
219 826 m 1,27,-1
 411 922 l 1,28,-1
 427 891 l 1,29,-1
 234 799 l 1,30,-1
 219 826 l 1,27,-1
EndSplineSet
Position2: "'cpsp' Capital Spacing in Latin lookup 0 subtable" dx=5 dy=0 dh=10 dv=0
EndChar

StartChar: Ocircumflex
Encoding: 212 212 149
Width: 666
GlyphClass: 2
Flags: W
LayerCount: 2
Fore
SplineSet
216 45 m 128,-1,1
 262 25 262 25 333.5 25 c 128,-1,2
 405 25 405 25 450.5 43.5 c 128,-1,3
 496 62 496 62 520.5 104.5 c 128,-1,4
 545 147 545 147 554 203 c 128,-1,5
 563 259 563 259 563 347 c 0,6,7
 563 515 563 515 514.5 595 c 128,-1,8
 466 675 466 675 333 675 c 0,9,10
 194 675 194 675 146 588 c 0,11,12
 122 544 122 544 112.5 487.5 c 128,-1,13
 103 431 103 431 103 346.5 c 128,-1,14
 103 262 103 262 112 207 c 128,-1,15
 121 152 121 152 145.5 108.5 c 128,-1,0
 170 65 170 65 216 45 c 128,-1,1
118 82 m 0,16,17
 88 130 88 130 76.5 192.5 c 128,-1,18
 65 255 65 255 65 347 c 0,19,20
 65 531 65 531 123 620 c 128,-1,21
 181 709 181 709 333 709 c 128,-1,22
 485 709 485 709 543 620.5 c 128,-1,23
 601 532 601 532 601 344 c 128,-1,24
 601 156 601 156 544.5 73.5 c 128,-1,25
 488 -9 488 -9 331 -9 c 128,-1,26
 174 -9 174 -9 118 82 c 0,16,17
184 809 m 1,27,-1
 318 934 l 1,28,-1
 348 934 l 1,29,-1
 482 809 l 1,30,-1
 437 809 l 1,31,-1
 333 905 l 1,32,-1
 230 809 l 1,33,-1
 184 809 l 1,27,-1
EndSplineSet
Position2: "'cpsp' Capital Spacing in Latin lookup 0 subtable" dx=5 dy=0 dh=10 dv=0
EndChar

StartChar: Otilde
Encoding: 213 213 150
Width: 666
GlyphClass: 2
Flags: W
LayerCount: 2
Fore
SplineSet
216 45 m 128,-1,1
 262 25 262 25 333.5 25 c 128,-1,2
 405 25 405 25 450.5 43.5 c 128,-1,3
 496 62 496 62 520.5 104.5 c 128,-1,4
 545 147 545 147 554 203 c 128,-1,5
 563 259 563 259 563 347 c 0,6,7
 563 515 563 515 514.5 595 c 128,-1,8
 466 675 466 675 333 675 c 0,9,10
 194 675 194 675 146 588 c 0,11,12
 122 544 122 544 112.5 487.5 c 128,-1,13
 103 431 103 431 103 346.5 c 128,-1,14
 103 262 103 262 112 207 c 128,-1,15
 121 152 121 152 145.5 108.5 c 128,-1,0
 170 65 170 65 216 45 c 128,-1,1
118 82 m 0,16,17
 88 130 88 130 76.5 192.5 c 128,-1,18
 65 255 65 255 65 347 c 0,19,20
 65 531 65 531 123 620 c 128,-1,21
 181 709 181 709 333 709 c 128,-1,22
 485 709 485 709 543 620.5 c 128,-1,23
 601 532 601 532 601 344 c 128,-1,24
 601 156 601 156 544.5 73.5 c 128,-1,25
 488 -9 488 -9 331 -9 c 128,-1,26
 174 -9 174 -9 118 82 c 0,16,17
482 885 m 1,27,28
 443 833 443 833 416 833 c 128,-1,29
 389 833 389 833 328.5 863 c 128,-1,30
 268 893 268 893 256 893 c 0,31,32
 234 893 234 893 198 854 c 2,33,-1
 186 841 l 1,34,-1
 176 870 l 1,35,36
 220 924 220 924 253 924 c 0,37,38
 276 924 276 924 336.5 894.5 c 128,-1,39
 397 865 397 865 408 865 c 0,40,41
 429 865 429 865 460 901 c 1,42,-1
 471 913 l 1,43,-1
 482 885 l 1,27,28
EndSplineSet
Position2: "'cpsp' Capital Spacing in Latin lookup 0 subtable" dx=5 dy=0 dh=10 dv=0
EndChar

StartChar: Odieresis
Encoding: 214 214 151
Width: 666
GlyphClass: 2
Flags: W
LayerCount: 2
Fore
SplineSet
216 45 m 128,-1,1
 262 25 262 25 333.5 25 c 128,-1,2
 405 25 405 25 450.5 43.5 c 128,-1,3
 496 62 496 62 520.5 104.5 c 128,-1,4
 545 147 545 147 554 203 c 128,-1,5
 563 259 563 259 563 347 c 0,6,7
 563 515 563 515 514.5 595 c 128,-1,8
 466 675 466 675 333 675 c 0,9,10
 194 675 194 675 146 588 c 0,11,12
 122 544 122 544 112.5 487.5 c 128,-1,13
 103 431 103 431 103 346.5 c 128,-1,14
 103 262 103 262 112 207 c 128,-1,15
 121 152 121 152 145.5 108.5 c 128,-1,0
 170 65 170 65 216 45 c 128,-1,1
118 82 m 0,16,17
 88 130 88 130 76.5 192.5 c 128,-1,18
 65 255 65 255 65 347 c 0,19,20
 65 531 65 531 123 620 c 128,-1,21
 181 709 181 709 333 709 c 128,-1,22
 485 709 485 709 543 620.5 c 128,-1,23
 601 532 601 532 601 344 c 128,-1,24
 601 156 601 156 544.5 73.5 c 128,-1,25
 488 -9 488 -9 331 -9 c 128,-1,26
 174 -9 174 -9 118 82 c 0,16,17
218 838 m 1,27,-1
 218 900 l 1,28,-1
 253 900 l 1,29,-1
 253 838 l 1,30,-1
 218 838 l 1,27,-1
414 838 m 1,31,-1
 414 900 l 1,32,-1
 449 900 l 1,33,-1
 449 838 l 1,34,-1
 414 838 l 1,31,-1
EndSplineSet
Position2: "'cpsp' Capital Spacing in Latin lookup 0 subtable" dx=5 dy=0 dh=10 dv=0
EndChar

StartChar: multiply
Encoding: 215 215 152
Width: 560
GlyphClass: 2
Flags: W
LayerCount: 2
Fore
SplineSet
105 450 m 1,0,-1
 280 274 l 1,1,-1
 455 450 l 1,2,-1
 479 426 l 1,3,-1
 303 251 l 1,4,-1
 479 76 l 1,5,-1
 455 52 l 1,6,-1
 280 228 l 1,7,-1
 105 52 l 1,8,-1
 81 76 l 1,9,-1
 257 251 l 1,10,-1
 81 426 l 1,11,-1
 105 450 l 1,0,-1
EndSplineSet
EndChar

StartChar: Oslash
Encoding: 216 216 153
Width: 666
GlyphClass: 2
Flags: W
LayerCount: 2
Fore
SplineSet
333 -9 m 0,0,1
 253 -9 253 -9 199 14 c 1,2,-1
 141 -109 l 1,3,-1
 111 -98 l 1,4,-1
 170 29 l 1,5,6
 111 68 111 68 88 145 c 128,-1,7
 65 222 65 222 65 347 c 0,8,9
 65 531 65 531 123 620 c 128,-1,10
 181 709 181 709 333 709 c 0,11,12
 419 709 419 709 475 680 c 1,13,-1
 528 792 l 1,14,-1
 558 780 l 1,15,-1
 503 662 l 1,16,17
 557 621 557 621 579 543.5 c 128,-1,18
 601 466 601 466 601 347 c 0,19,20
 601 156 601 156 544.5 73.5 c 128,-1,21
 488 -9 488 -9 333 -9 c 0,0,1
112.5 487.5 m 128,-1,23
 103 431 103 431 103 332.5 c 128,-1,24
 103 234 103 234 121 166 c 128,-1,25
 139 98 139 98 186 63 c 1,26,-1
 460 647 l 1,27,28
 410 675 410 675 336.5 675 c 128,-1,29
 263 675 263 675 217 654 c 128,-1,30
 171 633 171 633 146.5 588.5 c 128,-1,22
 122 544 122 544 112.5 487.5 c 128,-1,23
214 46 m 1,31,32
 260 25 260 25 332.5 25 c 128,-1,33
 405 25 405 25 450.5 43.5 c 128,-1,34
 496 62 496 62 520.5 104.5 c 128,-1,35
 545 147 545 147 554 203 c 128,-1,36
 563 259 563 259 563 347 c 0,37,38
 563 559 563 559 486 627 c 1,39,-1
 214 46 l 1,31,32
EndSplineSet
Position2: "'cpsp' Capital Spacing in Latin lookup 0 subtable" dx=5 dy=0 dh=10 dv=0
EndChar

StartChar: Ugrave
Encoding: 217 217 154
Width: 638
GlyphClass: 2
Flags: W
LayerCount: 2
Fore
SplineSet
124 196 m 2,0,1
 124 105 124 105 173 65 c 128,-1,2
 222 25 222 25 317.5 25 c 128,-1,3
 413 25 413 25 463.5 64.5 c 128,-1,4
 514 104 514 104 514 196 c 2,5,-1
 514 700 l 1,6,-1
 550 700 l 1,7,-1
 550 196 l 2,8,9
 550 87 550 87 490.5 39 c 128,-1,10
 431 -9 431 -9 317.5 -9 c 128,-1,11
 204 -9 204 -9 146 39 c 128,-1,12
 88 87 88 87 88 196 c 2,13,-1
 88 700 l 1,14,-1
 124 700 l 1,15,-1
 124 196 l 2,0,1
226 922 m 1,16,-1
 418 826 l 1,17,-1
 403 799 l 1,18,-1
 210 891 l 1,19,-1
 226 922 l 1,16,-1
EndSplineSet
Position2: "'cpsp' Capital Spacing in Latin lookup 0 subtable" dx=5 dy=0 dh=10 dv=0
EndChar

StartChar: Uacute
Encoding: 218 218 155
Width: 638
GlyphClass: 2
Flags: W
LayerCount: 2
Fore
SplineSet
124 196 m 2,0,1
 124 105 124 105 173 65 c 128,-1,2
 222 25 222 25 317.5 25 c 128,-1,3
 413 25 413 25 463.5 64.5 c 128,-1,4
 514 104 514 104 514 196 c 2,5,-1
 514 700 l 1,6,-1
 550 700 l 1,7,-1
 550 196 l 2,8,9
 550 87 550 87 490.5 39 c 128,-1,10
 431 -9 431 -9 317.5 -9 c 128,-1,11
 204 -9 204 -9 146 39 c 128,-1,12
 88 87 88 87 88 196 c 2,13,-1
 88 700 l 1,14,-1
 124 700 l 1,15,-1
 124 196 l 2,0,1
215 826 m 1,16,-1
 407 922 l 1,17,-1
 423 891 l 1,18,-1
 230 799 l 1,19,-1
 215 826 l 1,16,-1
EndSplineSet
Position2: "'cpsp' Capital Spacing in Latin lookup 0 subtable" dx=5 dy=0 dh=10 dv=0
EndChar

StartChar: Ucircumflex
Encoding: 219 219 156
Width: 638
GlyphClass: 2
Flags: W
LayerCount: 2
Fore
SplineSet
124 196 m 2,0,1
 124 105 124 105 173 65 c 128,-1,2
 222 25 222 25 317.5 25 c 128,-1,3
 413 25 413 25 463.5 64.5 c 128,-1,4
 514 104 514 104 514 196 c 2,5,-1
 514 700 l 1,6,-1
 550 700 l 1,7,-1
 550 196 l 2,8,9
 550 87 550 87 490.5 39 c 128,-1,10
 431 -9 431 -9 317.5 -9 c 128,-1,11
 204 -9 204 -9 146 39 c 128,-1,12
 88 87 88 87 88 196 c 2,13,-1
 88 700 l 1,14,-1
 124 700 l 1,15,-1
 124 196 l 2,0,1
169 809 m 1,16,-1
 303 934 l 1,17,-1
 333 934 l 1,18,-1
 467 809 l 1,19,-1
 422 809 l 1,20,-1
 318 905 l 1,21,-1
 215 809 l 1,22,-1
 169 809 l 1,16,-1
EndSplineSet
Position2: "'cpsp' Capital Spacing in Latin lookup 0 subtable" dx=5 dy=0 dh=10 dv=0
EndChar

StartChar: Udieresis
Encoding: 220 220 157
Width: 638
GlyphClass: 2
Flags: W
LayerCount: 2
Fore
SplineSet
124 196 m 2,0,1
 124 105 124 105 173 65 c 128,-1,2
 222 25 222 25 317.5 25 c 128,-1,3
 413 25 413 25 463.5 64.5 c 128,-1,4
 514 104 514 104 514 196 c 2,5,-1
 514 700 l 1,6,-1
 550 700 l 1,7,-1
 550 196 l 2,8,9
 550 87 550 87 490.5 39 c 128,-1,10
 431 -9 431 -9 317.5 -9 c 128,-1,11
 204 -9 204 -9 146 39 c 128,-1,12
 88 87 88 87 88 196 c 2,13,-1
 88 700 l 1,14,-1
 124 700 l 1,15,-1
 124 196 l 2,0,1
204 838 m 1,16,-1
 204 900 l 1,17,-1
 239 900 l 1,18,-1
 239 838 l 1,19,-1
 204 838 l 1,16,-1
400 838 m 1,20,-1
 400 900 l 1,21,-1
 435 900 l 1,22,-1
 435 838 l 1,23,-1
 400 838 l 1,20,-1
EndSplineSet
Position2: "'cpsp' Capital Spacing in Latin lookup 0 subtable" dx=5 dy=0 dh=10 dv=0
EndChar

StartChar: Yacute
Encoding: 221 221 158
Width: 526
GlyphClass: 2
Flags: W
LayerCount: 2
Fore
SplineSet
281 0 m 1,0,-1
 245 0 l 1,1,-1
 245 301 l 1,2,-1
 17 700 l 1,3,-1
 59 700 l 1,4,-1
 263 341 l 1,5,-1
 467 700 l 1,6,-1
 509 700 l 1,7,-1
 281 301 l 1,8,-1
 281 0 l 1,0,-1
190 826 m 1,9,-1
 382 922 l 1,10,-1
 398 891 l 1,11,-1
 205 799 l 1,12,-1
 190 826 l 1,9,-1
EndSplineSet
Position2: "'cpsp' Capital Spacing in Latin lookup 0 subtable" dx=5 dy=0 dh=10 dv=0
EndChar

StartChar: Thorn
Encoding: 222 222 159
Width: 601
GlyphClass: 2
Flags: W
LayerCount: 2
Fore
SplineSet
347 169 m 2,0,1
 516 169 516 169 516 367 c 0,2,3
 516 459 516 459 476.5 501.5 c 128,-1,4
 437 544 437 544 347 544 c 2,5,-1
 128 544 l 1,6,-1
 128 169 l 1,7,-1
 347 169 l 2,0,1
347 135 m 2,8,-1
 128 135 l 1,9,-1
 128 0 l 1,10,-1
 92 0 l 1,11,-1
 92 700 l 1,12,-1
 128 700 l 1,13,-1
 128 578 l 1,14,-1
 347 578 l 2,15,16
 455 578 455 578 504.5 527 c 128,-1,17
 554 476 554 476 554 367 c 0,18,19
 554 135 554 135 347 135 c 2,8,-1
EndSplineSet
Position2: "'cpsp' Capital Spacing in Latin lookup 0 subtable" dx=5 dy=0 dh=10 dv=0
EndChar

StartChar: germandbls
Encoding: 223 223 160
Width: 549
GlyphClass: 2
Flags: W
LayerCount: 2
Fore
SplineSet
114 0 m 1,0,-1
 79 0 l 1,1,-1
 79 561 l 2,2,3
 79 661 79 661 118.5 700 c 128,-1,4
 158 739 158 739 252 739 c 128,-1,5
 346 739 346 739 383.5 707 c 128,-1,6
 421 675 421 675 421 603 c 0,7,8
 421 551 421 551 404.5 521 c 128,-1,9
 388 491 388 491 349.5 473.5 c 128,-1,10
 311 456 311 456 299.5 447 c 128,-1,11
 288 438 288 438 288 422 c 128,-1,12
 288 406 288 406 305 392.5 c 128,-1,13
 322 379 322 379 385.5 346 c 128,-1,14
 449 313 449 313 477.5 279.5 c 128,-1,15
 506 246 506 246 506 186 c 0,16,17
 506 83 506 83 460 37 c 128,-1,18
 414 -9 414 -9 306 -9 c 0,19,20
 271 -9 271 -9 211 -2 c 1,21,-1
 191 1 l 1,22,-1
 193 34 l 1,23,24
 270 25 270 25 306 25 c 0,25,26
 396 25 396 25 432 62.5 c 128,-1,27
 468 100 468 100 468 181 c 0,28,29
 468 234 468 234 443.5 262 c 128,-1,30
 419 290 419 290 353.5 323.5 c 128,-1,31
 288 357 288 357 269.5 375 c 128,-1,32
 251 393 251 393 251 421 c 128,-1,33
 251 449 251 449 268.5 464.5 c 128,-1,34
 286 480 286 480 322.5 497 c 128,-1,35
 359 514 359 514 371 537 c 128,-1,36
 383 560 383 560 383 610 c 128,-1,37
 383 660 383 660 354 682.5 c 128,-1,38
 325 705 325 705 250.5 705 c 128,-1,39
 176 705 176 705 145 673.5 c 128,-1,40
 114 642 114 642 114 548 c 2,41,-1
 114 0 l 1,0,-1
EndSplineSet
EndChar

StartChar: agrave
Encoding: 224 224 161
Width: 495
GlyphClass: 2
Flags: W
LayerCount: 2
Fore
SplineSet
411 353 m 2,0,-1
 411 65 l 1,1,2
 415 29 415 29 486 23 c 1,3,-1
 484 -8 l 1,4,5
 411 -8 411 -8 381 34 c 1,6,7
 279 -9 279 -9 179 -9 c 0,8,9
 117 -9 117 -9 82.5 28 c 128,-1,10
 48 65 48 65 48 133.5 c 128,-1,11
 48 202 48 202 81 238 c 128,-1,12
 114 274 114 274 186 281 c 2,13,-1
 376 301 l 1,14,-1
 376 353 l 2,15,16
 376 417 376 417 348.5 446 c 128,-1,17
 321 475 321 475 265 475 c 0,18,19
 208 475 208 475 107 462 c 2,20,-1
 76 458 l 1,21,-1
 73 491 l 1,22,23
 185 509 185 509 265 509 c 0,24,25
 411 509 411 509 411 353 c 2,0,-1
109 217 m 128,-1,27
 85 190 85 190 85 136 c 128,-1,28
 85 82 85 82 109.5 52.5 c 128,-1,29
 134 23 134 23 178 23 c 128,-1,30
 222 23 222 23 271 33.5 c 128,-1,31
 320 44 320 44 348 54 c 2,32,-1
 376 64 l 1,33,-1
 376 269 l 1,34,-1
 190 250 l 2,35,26
 133 244 133 244 109 217 c 128,-1,27
149 732 m 1,36,-1
 341 636 l 1,37,-1
 326 609 l 1,38,-1
 133 701 l 1,39,-1
 149 732 l 1,36,-1
EndSplineSet
EndChar

StartChar: aacute
Encoding: 225 225 162
Width: 495
GlyphClass: 2
Flags: W
LayerCount: 2
Fore
SplineSet
411 353 m 2,0,-1
 411 65 l 1,1,2
 415 29 415 29 486 23 c 1,3,-1
 484 -8 l 1,4,5
 411 -8 411 -8 381 34 c 1,6,7
 279 -9 279 -9 179 -9 c 0,8,9
 117 -9 117 -9 82.5 28 c 128,-1,10
 48 65 48 65 48 133.5 c 128,-1,11
 48 202 48 202 81 238 c 128,-1,12
 114 274 114 274 186 281 c 2,13,-1
 376 301 l 1,14,-1
 376 353 l 2,15,16
 376 417 376 417 348.5 446 c 128,-1,17
 321 475 321 475 265 475 c 0,18,19
 208 475 208 475 107 462 c 2,20,-1
 76 458 l 1,21,-1
 73 491 l 1,22,23
 185 509 185 509 265 509 c 0,24,25
 411 509 411 509 411 353 c 2,0,-1
109 217 m 128,-1,27
 85 190 85 190 85 136 c 128,-1,28
 85 82 85 82 109.5 52.5 c 128,-1,29
 134 23 134 23 178 23 c 128,-1,30
 222 23 222 23 271 33.5 c 128,-1,31
 320 44 320 44 348 54 c 2,32,-1
 376 64 l 1,33,-1
 376 269 l 1,34,-1
 190 250 l 2,35,26
 133 244 133 244 109 217 c 128,-1,27
132 636 m 1,36,-1
 324 732 l 1,37,-1
 340 701 l 1,38,-1
 147 609 l 1,39,-1
 132 636 l 1,36,-1
EndSplineSet
EndChar

StartChar: acircumflex
Encoding: 226 226 163
Width: 495
GlyphClass: 2
Flags: W
LayerCount: 2
Fore
SplineSet
411 353 m 2,0,-1
 411 65 l 1,1,2
 415 29 415 29 486 23 c 1,3,-1
 484 -8 l 1,4,5
 411 -8 411 -8 381 34 c 1,6,7
 279 -9 279 -9 179 -9 c 0,8,9
 117 -9 117 -9 82.5 28 c 128,-1,10
 48 65 48 65 48 133.5 c 128,-1,11
 48 202 48 202 81 238 c 128,-1,12
 114 274 114 274 186 281 c 2,13,-1
 376 301 l 1,14,-1
 376 353 l 2,15,16
 376 417 376 417 348.5 446 c 128,-1,17
 321 475 321 475 265 475 c 0,18,19
 208 475 208 475 107 462 c 2,20,-1
 76 458 l 1,21,-1
 73 491 l 1,22,23
 185 509 185 509 265 509 c 0,24,25
 411 509 411 509 411 353 c 2,0,-1
109 217 m 128,-1,27
 85 190 85 190 85 136 c 128,-1,28
 85 82 85 82 109.5 52.5 c 128,-1,29
 134 23 134 23 178 23 c 128,-1,30
 222 23 222 23 271 33.5 c 128,-1,31
 320 44 320 44 348 54 c 2,32,-1
 376 64 l 1,33,-1
 376 269 l 1,34,-1
 190 250 l 2,35,26
 133 244 133 244 109 217 c 128,-1,27
103 600 m 1,36,-1
 224 732 l 1,37,-1
 252 732 l 1,38,-1
 374 600 l 1,39,-1
 331 600 l 1,40,-1
 239 700 l 1,41,-1
 146 600 l 1,42,-1
 103 600 l 1,36,-1
EndSplineSet
EndChar

StartChar: atilde
Encoding: 227 227 164
Width: 495
GlyphClass: 2
Flags: W
LayerCount: 2
Fore
SplineSet
411 353 m 2,0,-1
 411 65 l 1,1,2
 415 29 415 29 486 23 c 1,3,-1
 484 -8 l 1,4,5
 411 -8 411 -8 381 34 c 1,6,7
 279 -9 279 -9 179 -9 c 0,8,9
 117 -9 117 -9 82.5 28 c 128,-1,10
 48 65 48 65 48 133.5 c 128,-1,11
 48 202 48 202 81 238 c 128,-1,12
 114 274 114 274 186 281 c 2,13,-1
 376 301 l 1,14,-1
 376 353 l 2,15,16
 376 417 376 417 348.5 446 c 128,-1,17
 321 475 321 475 265 475 c 0,18,19
 208 475 208 475 107 462 c 2,20,-1
 76 458 l 1,21,-1
 73 491 l 1,22,23
 185 509 185 509 265 509 c 0,24,25
 411 509 411 509 411 353 c 2,0,-1
109 217 m 128,-1,27
 85 190 85 190 85 136 c 128,-1,28
 85 82 85 82 109.5 52.5 c 128,-1,29
 134 23 134 23 178 23 c 128,-1,30
 222 23 222 23 271 33.5 c 128,-1,31
 320 44 320 44 348 54 c 2,32,-1
 376 64 l 1,33,-1
 376 269 l 1,34,-1
 190 250 l 2,35,26
 133 244 133 244 109 217 c 128,-1,27
392 673 m 1,36,37
 350 630 350 630 324 630 c 128,-1,38
 298 630 298 630 242.5 657 c 128,-1,39
 187 684 187 684 175 684 c 0,40,41
 153 684 153 684 115 650 c 1,42,-1
 102 639 l 1,43,-1
 92 668 l 1,44,45
 141 715 141 715 174 715 c 0,46,47
 195 715 195 715 250.5 688.5 c 128,-1,48
 306 662 306 662 318 662 c 0,49,50
 338 662 338 662 372 692 c 1,51,-1
 383 703 l 1,52,-1
 392 673 l 1,36,37
EndSplineSet
EndChar

StartChar: adieresis
Encoding: 228 228 165
Width: 495
GlyphClass: 2
Flags: W
LayerCount: 2
Fore
SplineSet
411 353 m 2,0,-1
 411 65 l 1,1,2
 415 29 415 29 486 23 c 1,3,-1
 484 -8 l 1,4,5
 411 -8 411 -8 381 34 c 1,6,7
 279 -9 279 -9 179 -9 c 0,8,9
 117 -9 117 -9 82.5 28 c 128,-1,10
 48 65 48 65 48 133.5 c 128,-1,11
 48 202 48 202 81 238 c 128,-1,12
 114 274 114 274 186 281 c 2,13,-1
 376 301 l 1,14,-1
 376 353 l 2,15,16
 376 417 376 417 348.5 446 c 128,-1,17
 321 475 321 475 265 475 c 0,18,19
 208 475 208 475 107 462 c 2,20,-1
 76 458 l 1,21,-1
 73 491 l 1,22,23
 185 509 185 509 265 509 c 0,24,25
 411 509 411 509 411 353 c 2,0,-1
109 217 m 128,-1,27
 85 190 85 190 85 136 c 128,-1,28
 85 82 85 82 109.5 52.5 c 128,-1,29
 134 23 134 23 178 23 c 128,-1,30
 222 23 222 23 271 33.5 c 128,-1,31
 320 44 320 44 348 54 c 2,32,-1
 376 64 l 1,33,-1
 376 269 l 1,34,-1
 190 250 l 2,35,26
 133 244 133 244 109 217 c 128,-1,27
132 638 m 1,36,-1
 132 700 l 1,37,-1
 167 700 l 1,38,-1
 167 638 l 1,39,-1
 132 638 l 1,36,-1
322 638 m 1,40,-1
 322 700 l 1,41,-1
 357 700 l 1,42,-1
 357 638 l 1,43,-1
 322 638 l 1,40,-1
EndSplineSet
EndChar

StartChar: aring
Encoding: 229 229 166
Width: 495
GlyphClass: 2
Flags: W
LayerCount: 2
Fore
SplineSet
411 353 m 2,0,-1
 411 65 l 1,1,2
 415 29 415 29 486 23 c 1,3,-1
 484 -8 l 1,4,5
 411 -8 411 -8 381 34 c 1,6,7
 279 -9 279 -9 179 -9 c 0,8,9
 117 -9 117 -9 82.5 28 c 128,-1,10
 48 65 48 65 48 133.5 c 128,-1,11
 48 202 48 202 81 238 c 128,-1,12
 114 274 114 274 186 281 c 2,13,-1
 376 301 l 1,14,-1
 376 353 l 2,15,16
 376 417 376 417 348.5 446 c 128,-1,17
 321 475 321 475 265 475 c 0,18,19
 208 475 208 475 107 462 c 2,20,-1
 76 458 l 1,21,-1
 73 491 l 1,22,23
 185 509 185 509 265 509 c 0,24,25
 411 509 411 509 411 353 c 2,0,-1
109 217 m 128,-1,27
 85 190 85 190 85 136 c 128,-1,28
 85 82 85 82 109.5 52.5 c 128,-1,29
 134 23 134 23 178 23 c 128,-1,30
 222 23 222 23 271 33.5 c 128,-1,31
 320 44 320 44 348 54 c 2,32,-1
 376 64 l 1,33,-1
 376 269 l 1,34,-1
 190 250 l 2,35,26
 133 244 133 244 109 217 c 128,-1,27
153 650 m 128,-1,37
 153 690 153 690 181 717.5 c 128,-1,38
 209 745 209 745 249 745 c 128,-1,39
 289 745 289 745 316 717.5 c 128,-1,40
 343 690 343 690 343 650 c 128,-1,41
 343 610 343 610 316 582.5 c 128,-1,42
 289 555 289 555 248.5 555 c 128,-1,43
 208 555 208 555 180.5 582.5 c 128,-1,36
 153 610 153 610 153 650 c 128,-1,37
187 650 m 128,-1,45
 187 624 187 624 205 605 c 128,-1,46
 223 586 223 586 248.5 586 c 128,-1,47
 274 586 274 586 292 605 c 128,-1,48
 310 624 310 624 310 650 c 128,-1,49
 310 676 310 676 292 694.5 c 128,-1,50
 274 713 274 713 248.5 713 c 128,-1,51
 223 713 223 713 205 694.5 c 128,-1,44
 187 676 187 676 187 650 c 128,-1,45
EndSplineSet
EndChar

StartChar: ae
Encoding: 230 230 167
Width: 818
GlyphClass: 2
Flags: W
LayerCount: 2
Fore
SplineSet
715 30 m 1,0,-1
 745 32 l 1,1,-1
 747 0 l 1,2,3
 635 -9 635 -9 562 -9 c 0,4,5
 464 -9 464 -9 419 49 c 1,6,-1
 381 33 l 1,7,8
 288 -9 288 -9 175 -9 c 0,9,10
 48 -9 48 -9 48 137 c 0,11,12
 48 217 48 217 87 244.5 c 128,-1,13
 126 272 126 272 233 286 c 1,14,-1
 376 301 l 1,15,-1
 376 353 l 2,16,17
 376 417 376 417 348.5 446 c 128,-1,18
 321 475 321 475 265 475 c 0,19,20
 214 475 214 475 108 468 c 2,21,-1
 77 466 l 1,22,-1
 75 499 l 1,23,24
 185 509 185 509 265 509 c 0,25,26
 380 509 380 509 404 413 c 1,27,28
 453 509 453 509 576 509 c 0,29,30
 671 509 671 509 718.5 452 c 128,-1,31
 766 395 766 395 766 269 c 2,32,-1
 766 236 l 1,33,-1
 411 236 l 1,34,35
 411 128 411 128 445 75.5 c 128,-1,36
 479 23 479 23 558 23 c 128,-1,37
 637 23 637 23 715 30 c 1,0,-1
109 52.5 m 128,-1,39
 133 23 133 23 175.5 23 c 128,-1,40
 218 23 218 23 273 35 c 0,41,42
 350 52 350 52 404 74 c 1,43,44
 374 133 374 133 374 268 c 1,45,-1
 190 250 l 2,46,47
 135 245 135 245 110 218 c 128,-1,48
 85 191 85 191 85 136.5 c 128,-1,38
 85 82 85 82 109 52.5 c 128,-1,39
411 268 m 1,49,-1
 729 268 l 1,50,51
 729 381 729 381 692.5 429 c 128,-1,52
 656 477 656 477 576 477 c 0,53,54
 411 477 411 477 411 268 c 1,49,-1
EndSplineSet
EndChar

StartChar: ccedilla
Encoding: 231 231 168
Width: 429
GlyphClass: 2
Flags: W
LayerCount: 2
Fore
SplineSet
348 -127 m 0,0,1
 348 -201 348 -201 266 -201 c 1,2,-1
 185 -197 l 1,3,-1
 187 -169 l 1,4,5
 231 -173 231 -173 265 -173 c 0,6,7
 313 -173 313 -173 313 -127 c 0,8,9
 313 -85 313 -85 265 -85 c 2,10,-1
 211 -85 l 1,11,-1
 211 -6 l 1,12,13
 122 5 122 5 91 64 c 128,-1,14
 60 123 60 123 60 261 c 128,-1,15
 60 399 60 399 106 454 c 128,-1,16
 152 509 152 509 265 509 c 1,17,-1
 385 499 l 1,18,-1
 383 467 l 1,19,20
 303 477 303 477 265 477 c 0,21,22
 170 477 170 477 133.5 429 c 128,-1,23
 97 381 97 381 97 253.5 c 128,-1,24
 97 126 97 126 130 74.5 c 128,-1,25
 163 23 163 23 265 23 c 1,26,-1
 385 32 l 1,27,-1
 387 0 l 1,28,29
 303 -9 303 -9 277 -9 c 128,-1,30
 251 -9 251 -9 244 -8 c 1,31,-1
 244 -57 l 1,32,33
 300 -57 300 -57 324 -72 c 128,-1,34
 348 -87 348 -87 348 -127 c 0,0,1
EndSplineSet
EndChar

StartChar: egrave
Encoding: 232 232 169
Width: 502
GlyphClass: 2
Flags: W
LayerCount: 2
Fore
SplineSet
399 30 m 1,0,-1
 429 32 l 1,1,-1
 431 0 l 1,2,3
 319 -9 319 -9 246 -9 c 0,4,5
 140 -8 140 -8 99 55.5 c 128,-1,6
 58 119 58 119 58 250 c 0,7,8
 58 509 58 509 260 509 c 0,9,10
 355 509 355 509 402.5 452 c 128,-1,11
 450 395 450 395 450 269 c 2,12,-1
 450 236 l 1,13,-1
 95 236 l 1,14,15
 95 128 95 128 129 75.5 c 128,-1,16
 163 23 163 23 242 23 c 128,-1,17
 321 23 321 23 399 30 c 1,0,-1
95 268 m 1,18,-1
 413 268 l 1,19,20
 413 381 413 381 376.5 429 c 128,-1,21
 340 477 340 477 260 477 c 0,22,23
 95 477 95 477 95 268 c 1,18,-1
144 733 m 1,24,-1
 336 637 l 1,25,-1
 321 610 l 1,26,-1
 128 702 l 1,27,-1
 144 733 l 1,24,-1
EndSplineSet
EndChar

StartChar: eacute
Encoding: 233 233 170
Width: 502
GlyphClass: 2
Flags: W
LayerCount: 2
Fore
SplineSet
399 30 m 1,0,-1
 429 32 l 1,1,-1
 431 0 l 1,2,3
 319 -9 319 -9 246 -9 c 0,4,5
 140 -8 140 -8 99 55.5 c 128,-1,6
 58 119 58 119 58 250 c 0,7,8
 58 509 58 509 260 509 c 0,9,10
 355 509 355 509 402.5 452 c 128,-1,11
 450 395 450 395 450 269 c 2,12,-1
 450 236 l 1,13,-1
 95 236 l 1,14,15
 95 128 95 128 129 75.5 c 128,-1,16
 163 23 163 23 242 23 c 128,-1,17
 321 23 321 23 399 30 c 1,0,-1
95 268 m 1,18,-1
 413 268 l 1,19,20
 413 381 413 381 376.5 429 c 128,-1,21
 340 477 340 477 260 477 c 0,22,23
 95 477 95 477 95 268 c 1,18,-1
171 636 m 1,24,-1
 363 732 l 1,25,-1
 379 701 l 1,26,-1
 186 609 l 1,27,-1
 171 636 l 1,24,-1
EndSplineSet
EndChar

StartChar: ecircumflex
Encoding: 234 234 171
Width: 502
GlyphClass: 2
Flags: W
LayerCount: 2
Fore
SplineSet
399 30 m 1,0,-1
 429 32 l 1,1,-1
 431 0 l 1,2,3
 319 -9 319 -9 246 -9 c 0,4,5
 140 -8 140 -8 99 55.5 c 128,-1,6
 58 119 58 119 58 250 c 0,7,8
 58 509 58 509 260 509 c 0,9,10
 355 509 355 509 402.5 452 c 128,-1,11
 450 395 450 395 450 269 c 2,12,-1
 450 236 l 1,13,-1
 95 236 l 1,14,15
 95 128 95 128 129 75.5 c 128,-1,16
 163 23 163 23 242 23 c 128,-1,17
 321 23 321 23 399 30 c 1,0,-1
95 268 m 1,18,-1
 413 268 l 1,19,20
 413 381 413 381 376.5 429 c 128,-1,21
 340 477 340 477 260 477 c 0,22,23
 95 477 95 477 95 268 c 1,18,-1
128 600 m 1,24,-1
 249 732 l 1,25,-1
 277 732 l 1,26,-1
 399 600 l 1,27,-1
 356 600 l 1,28,-1
 264 700 l 1,29,-1
 171 600 l 1,30,-1
 128 600 l 1,24,-1
EndSplineSet
EndChar

StartChar: edieresis
Encoding: 235 235 172
Width: 502
GlyphClass: 2
Flags: W
LayerCount: 2
Fore
SplineSet
399 30 m 1,0,-1
 429 32 l 1,1,-1
 431 0 l 1,2,3
 319 -9 319 -9 246 -9 c 0,4,5
 140 -8 140 -8 99 55.5 c 128,-1,6
 58 119 58 119 58 250 c 0,7,8
 58 509 58 509 260 509 c 0,9,10
 355 509 355 509 402.5 452 c 128,-1,11
 450 395 450 395 450 269 c 2,12,-1
 450 236 l 1,13,-1
 95 236 l 1,14,15
 95 128 95 128 129 75.5 c 128,-1,16
 163 23 163 23 242 23 c 128,-1,17
 321 23 321 23 399 30 c 1,0,-1
95 268 m 1,18,-1
 413 268 l 1,19,20
 413 381 413 381 376.5 429 c 128,-1,21
 340 477 340 477 260 477 c 0,22,23
 95 477 95 477 95 268 c 1,18,-1
144 638 m 1,24,-1
 144 700 l 1,25,-1
 179 700 l 1,26,-1
 179 638 l 1,27,-1
 144 638 l 1,24,-1
334 638 m 1,28,-1
 334 700 l 1,29,-1
 369 700 l 1,30,-1
 369 638 l 1,31,-1
 334 638 l 1,28,-1
EndSplineSet
EndChar

StartChar: igrave
Encoding: 236 236 173
Width: 193
GlyphClass: 2
Flags: W
LayerCount: 2
Fore
SplineSet
79 0 m 1,0,-1
 79 500 l 1,1,-1
 114 500 l 1,2,-1
 114 0 l 1,3,-1
 79 0 l 1,0,-1
-44 732 m 1,4,-1
 148 636 l 1,5,-1
 133 609 l 1,6,-1
 -60 701 l 1,7,-1
 -44 732 l 1,4,-1
EndSplineSet
EndChar

StartChar: iacute
Encoding: 237 237 174
Width: 193
GlyphClass: 2
Flags: W
LayerCount: 2
Fore
SplineSet
43 636 m 1,0,-1
 235 732 l 1,1,-1
 251 701 l 1,2,-1
 58 609 l 1,3,-1
 43 636 l 1,0,-1
79 500 m 1,4,-1
 114 500 l 1,5,-1
 114 0 l 1,6,-1
 79 0 l 1,7,-1
 79 500 l 1,4,-1
EndSplineSet
EndChar

StartChar: icircumflex
Encoding: 238 238 175
Width: 193
GlyphClass: 2
Flags: W
LayerCount: 2
Fore
SplineSet
79 500 m 1,0,-1
 114 500 l 1,1,-1
 114 0 l 1,2,-1
 79 0 l 1,3,-1
 79 500 l 1,0,-1
-39 600 m 1,4,-1
 82 732 l 1,5,-1
 110 732 l 1,6,-1
 232 600 l 1,7,-1
 189 600 l 1,8,-1
 97 700 l 1,9,-1
 4 600 l 1,10,-1
 -39 600 l 1,4,-1
EndSplineSet
EndChar

StartChar: idieresis
Encoding: 239 239 176
Width: 193
GlyphClass: 2
Flags: W
LayerCount: 2
Fore
SplineSet
79 500 m 1,0,-1
 114 500 l 1,1,-1
 114 0 l 1,2,-1
 79 0 l 1,3,-1
 79 500 l 1,0,-1
-19 638 m 1,4,-1
 -19 700 l 1,5,-1
 16 700 l 1,6,-1
 16 638 l 1,7,-1
 -19 638 l 1,4,-1
171 638 m 1,8,-1
 171 700 l 1,9,-1
 206 700 l 1,10,-1
 206 638 l 1,11,-1
 171 638 l 1,8,-1
EndSplineSet
EndChar

StartChar: eth
Encoding: 240 240 177
Width: 535
GlyphClass: 2
Flags: W
LayerCount: 2
Fore
SplineSet
303 657 m 1,0,1
 475 546 475 546 475 350 c 128,-1,2
 475 154 475 154 425.5 72.5 c 128,-1,3
 376 -9 376 -9 260 -9 c 0,4,5
 159 -9 159 -9 102 49.5 c 128,-1,6
 45 108 45 108 45 208.5 c 128,-1,7
 45 309 45 309 100 367 c 128,-1,8
 155 425 155 425 249 425 c 0,9,10
 284 425 284 425 331 414 c 128,-1,11
 378 403 378 403 408 392 c 2,12,-1
 438 381 l 1,13,14
 433 537 433 537 271 636 c 1,15,-1
 152 556 l 1,16,-1
 132 583 l 1,17,-1
 238 655 l 1,18,19
 178 686 178 686 105 708 c 1,20,-1
 118 739 l 1,21,22
 205 713 205 713 270 676 c 1,23,-1
 372 745 l 1,24,-1
 392 718 l 1,25,-1
 303 657 l 1,0,1
439 346 m 1,26,27
 323 391 323 391 247.5 391 c 128,-1,28
 172 391 172 391 126.5 342 c 128,-1,29
 81 293 81 293 81 208 c 128,-1,30
 81 123 81 123 127.5 74 c 128,-1,31
 174 25 174 25 266.5 25 c 128,-1,32
 359 25 359 25 398.5 94 c 128,-1,33
 438 163 438 163 439 346 c 1,26,27
EndSplineSet
EndChar

StartChar: ntilde
Encoding: 241 241 178
Width: 527
GlyphClass: 2
Flags: W
LayerCount: 2
Fore
SplineSet
79 0 m 1,0,-1
 79 500 l 1,1,-1
 114 500 l 1,2,-1
 114 460 l 1,3,-1
 138 472 l 2,4,5
 163 484 163 484 207 496.5 c 128,-1,6
 251 509 251 509 289 509 c 0,7,8
 389 509 389 509 421 458.5 c 128,-1,9
 453 408 453 408 453 260 c 2,10,-1
 453 0 l 1,11,-1
 418 0 l 1,12,-1
 418 258 l 2,13,14
 418 390 418 390 394 433.5 c 128,-1,15
 370 477 370 477 289 477 c 0,16,17
 249 477 249 477 196.5 461 c 128,-1,18
 144 445 144 445 114 427 c 1,19,-1
 114 0 l 1,20,-1
 79 0 l 1,0,-1
425 673 m 1,21,22
 383 630 383 630 357 630 c 128,-1,23
 331 630 331 630 275.5 657 c 128,-1,24
 220 684 220 684 208 684 c 0,25,26
 186 684 186 684 148 650 c 1,27,-1
 135 639 l 1,28,-1
 125 668 l 1,29,30
 174 715 174 715 207 715 c 0,31,32
 228 715 228 715 283.5 688.5 c 128,-1,33
 339 662 339 662 350 662 c 0,34,35
 371 662 371 662 404 692 c 2,36,-1
 416 703 l 1,37,-1
 425 673 l 1,21,22
EndSplineSet
EndChar

StartChar: ograve
Encoding: 242 242 179
Width: 526
GlyphClass: 2
Flags: W
LayerCount: 2
Fore
SplineSet
263 509 m 128,-1,1
 374 509 374 509 420 453 c 128,-1,2
 466 397 466 397 466 251 c 128,-1,3
 466 105 466 105 425 48 c 128,-1,4
 384 -9 384 -9 263 -9 c 128,-1,5
 142 -9 142 -9 101 48 c 128,-1,6
 60 105 60 105 60 251 c 128,-1,7
 60 397 60 397 106 453 c 128,-1,0
 152 509 152 509 263 509 c 128,-1,1
263 23 m 128,-1,9
 319 23 319 23 351.5 34.5 c 128,-1,10
 384 46 384 46 401.5 77.5 c 128,-1,11
 419 109 419 109 424 148.5 c 128,-1,12
 429 188 429 188 429 259 c 0,13,14
 429 385 429 385 394 431 c 128,-1,15
 359 477 359 477 263 477 c 128,-1,16
 167 477 167 477 132 431 c 128,-1,17
 97 385 97 385 97 259 c 0,18,19
 97 188 97 188 102 148.5 c 128,-1,20
 107 109 107 109 124.5 77.5 c 128,-1,21
 142 46 142 46 174.5 34.5 c 128,-1,8
 207 23 207 23 263 23 c 128,-1,9
170 732 m 1,22,-1
 362 636 l 1,23,-1
 347 609 l 1,24,-1
 154 701 l 1,25,-1
 170 732 l 1,22,-1
EndSplineSet
EndChar

StartChar: oacute
Encoding: 243 243 180
Width: 526
GlyphClass: 2
Flags: W
LayerCount: 2
Fore
SplineSet
263 509 m 128,-1,1
 374 509 374 509 420 453 c 128,-1,2
 466 397 466 397 466 251 c 128,-1,3
 466 105 466 105 425 48 c 128,-1,4
 384 -9 384 -9 263 -9 c 128,-1,5
 142 -9 142 -9 101 48 c 128,-1,6
 60 105 60 105 60 251 c 128,-1,7
 60 397 60 397 106 453 c 128,-1,0
 152 509 152 509 263 509 c 128,-1,1
263 23 m 128,-1,9
 319 23 319 23 351.5 34.5 c 128,-1,10
 384 46 384 46 401.5 77.5 c 128,-1,11
 419 109 419 109 424 148.5 c 128,-1,12
 429 188 429 188 429 259 c 0,13,14
 429 385 429 385 394 431 c 128,-1,15
 359 477 359 477 263 477 c 128,-1,16
 167 477 167 477 132 431 c 128,-1,17
 97 385 97 385 97 259 c 0,18,19
 97 188 97 188 102 148.5 c 128,-1,20
 107 109 107 109 124.5 77.5 c 128,-1,21
 142 46 142 46 174.5 34.5 c 128,-1,8
 207 23 207 23 263 23 c 128,-1,9
179 636 m 1,22,-1
 371 732 l 1,23,-1
 387 701 l 1,24,-1
 194 609 l 1,25,-1
 179 636 l 1,22,-1
EndSplineSet
EndChar

StartChar: ocircumflex
Encoding: 244 244 181
Width: 526
GlyphClass: 2
Flags: W
LayerCount: 2
Fore
SplineSet
263 509 m 128,-1,1
 374 509 374 509 420 453 c 128,-1,2
 466 397 466 397 466 251 c 128,-1,3
 466 105 466 105 425 48 c 128,-1,4
 384 -9 384 -9 263 -9 c 128,-1,5
 142 -9 142 -9 101 48 c 128,-1,6
 60 105 60 105 60 251 c 128,-1,7
 60 397 60 397 106 453 c 128,-1,0
 152 509 152 509 263 509 c 128,-1,1
263 23 m 128,-1,9
 319 23 319 23 351.5 34.5 c 128,-1,10
 384 46 384 46 401.5 77.5 c 128,-1,11
 419 109 419 109 424 148.5 c 128,-1,12
 429 188 429 188 429 259 c 0,13,14
 429 385 429 385 394 431 c 128,-1,15
 359 477 359 477 263 477 c 128,-1,16
 167 477 167 477 132 431 c 128,-1,17
 97 385 97 385 97 259 c 0,18,19
 97 188 97 188 102 148.5 c 128,-1,20
 107 109 107 109 124.5 77.5 c 128,-1,21
 142 46 142 46 174.5 34.5 c 128,-1,8
 207 23 207 23 263 23 c 128,-1,9
128 600 m 1,22,-1
 249 732 l 1,23,-1
 277 732 l 1,24,-1
 399 600 l 1,25,-1
 356 600 l 1,26,-1
 264 700 l 1,27,-1
 171 600 l 1,28,-1
 128 600 l 1,22,-1
EndSplineSet
EndChar

StartChar: otilde
Encoding: 245 245 182
Width: 526
GlyphClass: 2
Flags: W
LayerCount: 2
Fore
SplineSet
263 509 m 128,-1,1
 374 509 374 509 420 453 c 128,-1,2
 466 397 466 397 466 251 c 128,-1,3
 466 105 466 105 425 48 c 128,-1,4
 384 -9 384 -9 263 -9 c 128,-1,5
 142 -9 142 -9 101 48 c 128,-1,6
 60 105 60 105 60 251 c 128,-1,7
 60 397 60 397 106 453 c 128,-1,0
 152 509 152 509 263 509 c 128,-1,1
263 23 m 128,-1,9
 319 23 319 23 351.5 34.5 c 128,-1,10
 384 46 384 46 401.5 77.5 c 128,-1,11
 419 109 419 109 424 148.5 c 128,-1,12
 429 188 429 188 429 259 c 0,13,14
 429 385 429 385 394 431 c 128,-1,15
 359 477 359 477 263 477 c 128,-1,16
 167 477 167 477 132 431 c 128,-1,17
 97 385 97 385 97 259 c 0,18,19
 97 188 97 188 102 148.5 c 128,-1,20
 107 109 107 109 124.5 77.5 c 128,-1,21
 142 46 142 46 174.5 34.5 c 128,-1,8
 207 23 207 23 263 23 c 128,-1,9
414 673 m 1,22,23
 372 630 372 630 346 630 c 128,-1,24
 320 630 320 630 264.5 657 c 128,-1,25
 209 684 209 684 197 684 c 0,26,27
 175 684 175 684 137 650 c 1,28,-1
 124 639 l 1,29,-1
 114 668 l 1,30,31
 163 715 163 715 196 715 c 0,32,33
 217 715 217 715 272.5 688.5 c 128,-1,34
 328 662 328 662 340 662 c 0,35,36
 360 662 360 662 394 692 c 1,37,-1
 405 703 l 1,38,-1
 414 673 l 1,22,23
EndSplineSet
EndChar

StartChar: odieresis
Encoding: 246 246 183
Width: 526
GlyphClass: 2
Flags: W
LayerCount: 2
Fore
SplineSet
263 509 m 128,-1,1
 374 509 374 509 420 453 c 128,-1,2
 466 397 466 397 466 251 c 128,-1,3
 466 105 466 105 425 48 c 128,-1,4
 384 -9 384 -9 263 -9 c 128,-1,5
 142 -9 142 -9 101 48 c 128,-1,6
 60 105 60 105 60 251 c 128,-1,7
 60 397 60 397 106 453 c 128,-1,0
 152 509 152 509 263 509 c 128,-1,1
263 23 m 128,-1,9
 319 23 319 23 351.5 34.5 c 128,-1,10
 384 46 384 46 401.5 77.5 c 128,-1,11
 419 109 419 109 424 148.5 c 128,-1,12
 429 188 429 188 429 259 c 0,13,14
 429 385 429 385 394 431 c 128,-1,15
 359 477 359 477 263 477 c 128,-1,16
 167 477 167 477 132 431 c 128,-1,17
 97 385 97 385 97 259 c 0,18,19
 97 188 97 188 102 148.5 c 128,-1,20
 107 109 107 109 124.5 77.5 c 128,-1,21
 142 46 142 46 174.5 34.5 c 128,-1,8
 207 23 207 23 263 23 c 128,-1,9
146 638 m 1,22,-1
 146 700 l 1,23,-1
 181 700 l 1,24,-1
 181 638 l 1,25,-1
 146 638 l 1,22,-1
336 638 m 1,26,-1
 336 700 l 1,27,-1
 371 700 l 1,28,-1
 371 638 l 1,29,-1
 336 638 l 1,26,-1
EndSplineSet
EndChar

StartChar: divide
Encoding: 247 247 184
Width: 560
GlyphClass: 2
Flags: W
LayerCount: 2
Fore
SplineSet
58 234 m 1,0,-1
 58 268 l 1,1,-1
 502 268 l 1,2,-1
 502 234 l 1,3,-1
 58 234 l 1,0,-1
261 383 m 1,4,-1
 261 463 l 1,5,-1
 299 463 l 1,6,-1
 299 383 l 1,7,-1
 261 383 l 1,4,-1
261 39 m 1,8,-1
 261 119 l 1,9,-1
 299 119 l 1,10,-1
 299 39 l 1,11,-1
 261 39 l 1,8,-1
EndSplineSet
EndChar

StartChar: oslash
Encoding: 248 248 185
Width: 526
GlyphClass: 2
Flags: W
LayerCount: 2
Fore
SplineSet
263 509 m 0,0,1
 316 509 316 509 349 498 c 1,2,-1
 393 605 l 1,3,-1
 423 594 l 1,4,-1
 378 487 l 1,5,6
 424 462 424 462 445 407.5 c 128,-1,7
 466 353 466 353 466 259 c 0,8,9
 466 105 466 105 425 48 c 128,-1,10
 384 -9 384 -9 263 -9 c 0,11,12
 214 -9 214 -9 179 0 c 1,13,-1
 133 -114 l 1,14,-1
 103 -104 l 1,15,-1
 149 9 l 1,16,17
 98 32 98 32 79 89.5 c 128,-1,18
 60 147 60 147 60 272 c 128,-1,19
 60 397 60 397 106 453 c 128,-1,20
 152 509 152 509 263 509 c 0,0,1
263 477 m 0,21,22
 167 477 167 477 132 431 c 128,-1,23
 97 385 97 385 97 272 c 128,-1,24
 97 159 97 159 110 109.5 c 128,-1,25
 123 60 123 60 163 40 c 1,26,-1
 337 468 l 1,27,28
 307 477 307 477 263 477 c 0,21,22
191 30 m 1,29,30
 218 23 218 23 268.5 23 c 128,-1,31
 319 23 319 23 351.5 34.5 c 128,-1,32
 384 46 384 46 401.5 77.5 c 128,-1,33
 419 109 419 109 424 148.5 c 128,-1,34
 429 188 429 188 429 265.5 c 128,-1,35
 429 343 429 343 415 389 c 128,-1,36
 401 435 401 435 366 456 c 1,37,-1
 191 30 l 1,29,30
EndSplineSet
EndChar

StartChar: ugrave
Encoding: 249 249 186
Width: 516
GlyphClass: 2
Flags: W
LayerCount: 2
Fore
SplineSet
402 500 m 1,0,-1
 437 500 l 1,1,-1
 437 0 l 1,2,-1
 402 0 l 1,3,-1
 402 40 l 1,4,5
 393 35 393 35 378 26.5 c 128,-1,6
 363 18 363 18 319.5 4.5 c 128,-1,7
 276 -9 276 -9 238 -9 c 0,8,9
 138 -9 138 -9 106 41.5 c 128,-1,10
 74 92 74 92 74 240 c 2,11,-1
 74 500 l 1,12,-1
 109 500 l 1,13,-1
 109 242 l 2,14,15
 109 110 109 110 133 66.5 c 128,-1,16
 157 23 157 23 238 23 c 0,17,18
 278 23 278 23 319 35.5 c 128,-1,19
 360 48 360 48 381 60 c 2,20,-1
 402 73 l 1,21,-1
 402 500 l 1,0,-1
141 732 m 1,22,-1
 333 636 l 1,23,-1
 318 609 l 1,24,-1
 125 701 l 1,25,-1
 141 732 l 1,22,-1
EndSplineSet
EndChar

StartChar: uacute
Encoding: 250 250 187
Width: 516
GlyphClass: 2
Flags: W
LayerCount: 2
Fore
SplineSet
437 500 m 1,0,-1
 437 0 l 1,1,-1
 402 0 l 1,2,-1
 402 40 l 1,3,-1
 380 28 l 2,4,5
 358 15 358 15 317 3 c 128,-1,6
 276 -9 276 -9 238 -9 c 0,7,8
 138 -9 138 -9 106 41.5 c 128,-1,9
 74 92 74 92 74 240 c 2,10,-1
 74 500 l 1,11,-1
 109 500 l 1,12,-1
 109 242 l 2,13,14
 109 110 109 110 133 66.5 c 128,-1,15
 157 23 157 23 238 23 c 0,16,17
 278 23 278 23 328.5 39.5 c 128,-1,18
 379 56 379 56 402 73 c 1,19,-1
 402 500 l 1,20,-1
 437 500 l 1,0,-1
172 636 m 1,21,-1
 364 732 l 1,22,-1
 380 701 l 1,23,-1
 187 609 l 1,24,-1
 172 636 l 1,21,-1
EndSplineSet
EndChar

StartChar: ucircumflex
Encoding: 251 251 188
Width: 516
GlyphClass: 2
Flags: W
LayerCount: 2
Fore
SplineSet
437 500 m 1,0,-1
 437 0 l 1,1,-1
 402 0 l 1,2,-1
 402 40 l 1,3,-1
 380 28 l 2,4,5
 358 15 358 15 317 3 c 128,-1,6
 276 -9 276 -9 238 -9 c 0,7,8
 138 -9 138 -9 106 41.5 c 128,-1,9
 74 92 74 92 74 240 c 2,10,-1
 74 500 l 1,11,-1
 109 500 l 1,12,-1
 109 242 l 2,13,14
 109 110 109 110 133 66.5 c 128,-1,15
 157 23 157 23 238 23 c 0,16,17
 278 23 278 23 328.5 39.5 c 128,-1,18
 379 56 379 56 402 73 c 1,19,-1
 402 500 l 1,20,-1
 437 500 l 1,0,-1
121 600 m 1,21,-1
 242 732 l 1,22,-1
 270 732 l 1,23,-1
 392 600 l 1,24,-1
 349 600 l 1,25,-1
 257 700 l 1,26,-1
 164 600 l 1,27,-1
 121 600 l 1,21,-1
EndSplineSet
EndChar

StartChar: udieresis
Encoding: 252 252 189
Width: 516
GlyphClass: 2
Flags: W
LayerCount: 2
Fore
SplineSet
437 500 m 1,0,-1
 437 0 l 1,1,-1
 402 0 l 1,2,-1
 402 40 l 1,3,-1
 380 28 l 2,4,5
 358 15 358 15 317 3 c 128,-1,6
 276 -9 276 -9 238 -9 c 0,7,8
 138 -9 138 -9 106 41.5 c 128,-1,9
 74 92 74 92 74 240 c 2,10,-1
 74 500 l 1,11,-1
 109 500 l 1,12,-1
 109 242 l 2,13,14
 109 110 109 110 133 66.5 c 128,-1,15
 157 23 157 23 238 23 c 0,16,17
 278 23 278 23 328.5 39.5 c 128,-1,18
 379 56 379 56 402 73 c 1,19,-1
 402 500 l 1,20,-1
 437 500 l 1,0,-1
149 638 m 1,21,-1
 149 700 l 1,22,-1
 184 700 l 1,23,-1
 184 638 l 1,24,-1
 149 638 l 1,21,-1
339 638 m 1,25,-1
 339 700 l 1,26,-1
 374 700 l 1,27,-1
 374 638 l 1,28,-1
 339 638 l 1,25,-1
EndSplineSet
EndChar

StartChar: yacute
Encoding: 253 253 190
Width: 471
GlyphClass: 2
Flags: W
LayerCount: 2
Fore
SplineSet
31 500 m 1,0,-1
 68 500 l 1,1,-1
 215 32 l 1,2,-1
 256 32 l 1,3,-1
 404 500 l 1,4,-1
 441 500 l 1,5,-1
 212 -230 l 1,6,-1
 175 -230 l 1,7,-1
 247 0 l 1,8,-1
 186 0 l 1,9,-1
 31 500 l 1,0,-1
175 636 m 1,10,-1
 367 732 l 1,11,-1
 383 701 l 1,12,-1
 190 609 l 1,13,-1
 175 636 l 1,10,-1
EndSplineSet
EndChar

StartChar: thorn
Encoding: 254 254 191
Width: 515
GlyphClass: 2
Flags: W
LayerCount: 2
Fore
SplineSet
114 29 m 1,0,1
 192 23 192 23 240.5 23 c 128,-1,2
 289 23 289 23 327.5 36.5 c 128,-1,3
 366 50 366 50 386 82 c 128,-1,4
 406 114 406 114 412.5 154 c 128,-1,5
 419 194 419 194 419 259 c 0,6,7
 419 378 419 378 392.5 427.5 c 128,-1,8
 366 477 366 477 286 477 c 0,9,10
 246 477 246 477 203 467 c 128,-1,11
 160 457 160 457 137 447 c 2,12,-1
 114 437 l 1,13,-1
 114 29 l 1,0,1
114 469 m 1,14,15
 197 509 197 509 291 509 c 128,-1,16
 385 509 385 509 420.5 452.5 c 128,-1,17
 456 396 456 396 456 255 c 128,-1,18
 456 114 456 114 409 52.5 c 128,-1,19
 362 -9 362 -9 228 -9 c 1,20,-1
 114 -3 l 1,21,-1
 114 -230 l 1,22,-1
 79 -230 l 1,23,-1
 79 730 l 1,24,-1
 114 730 l 1,25,-1
 114 469 l 1,14,15
EndSplineSet
EndChar

StartChar: ydieresis
Encoding: 255 255 192
Width: 471
GlyphClass: 2
Flags: W
LayerCount: 2
Fore
SplineSet
31 500 m 1,0,-1
 68 500 l 1,1,-1
 215 32 l 1,2,-1
 256 32 l 1,3,-1
 404 500 l 1,4,-1
 441 500 l 1,5,-1
 212 -230 l 1,6,-1
 175 -230 l 1,7,-1
 247 0 l 1,8,-1
 186 0 l 1,9,-1
 31 500 l 1,0,-1
121 638 m 1,10,-1
 121 700 l 1,11,-1
 156 700 l 1,12,-1
 156 638 l 1,13,-1
 121 638 l 1,10,-1
311 638 m 1,14,-1
 311 700 l 1,15,-1
 346 700 l 1,16,-1
 346 638 l 1,17,-1
 311 638 l 1,14,-1
EndSplineSet
EndChar

StartChar: Amacron
Encoding: 256 256 193
Width: 592
GlyphClass: 2
Flags: W
LayerCount: 2
Fore
SplineSet
28 0 m 1,0,-1
 243 700 l 1,1,-1
 349 700 l 1,2,-1
 564 0 l 1,3,-1
 528 0 l 1,4,-1
 463 215 l 1,5,-1
 129 215 l 1,6,-1
 64 0 l 1,7,-1
 28 0 l 1,0,-1
268 666 m 1,8,-1
 140 249 l 1,9,-1
 452 249 l 1,10,-1
 324 666 l 1,11,-1
 268 666 l 1,8,-1
153 832 m 1,12,-1
 153 864 l 1,13,-1
 440 864 l 1,14,-1
 440 832 l 1,15,-1
 153 832 l 1,12,-1
EndSplineSet
Position2: "'cpsp' Capital Spacing in Latin lookup 0 subtable" dx=5 dy=0 dh=10 dv=0
EndChar

StartChar: amacron
Encoding: 257 257 194
Width: 495
GlyphClass: 2
Flags: W
LayerCount: 2
Fore
SplineSet
411 353 m 2,0,-1
 411 65 l 1,1,2
 415 29 415 29 486 23 c 1,3,-1
 484 -8 l 1,4,5
 411 -8 411 -8 381 34 c 1,6,7
 279 -9 279 -9 179 -9 c 0,8,9
 117 -9 117 -9 82.5 28 c 128,-1,10
 48 65 48 65 48 133.5 c 128,-1,11
 48 202 48 202 81 238 c 128,-1,12
 114 274 114 274 186 281 c 2,13,-1
 376 301 l 1,14,-1
 376 353 l 2,15,16
 376 417 376 417 348.5 446 c 128,-1,17
 321 475 321 475 265 475 c 0,18,19
 208 475 208 475 107 462 c 2,20,-1
 76 458 l 1,21,-1
 73 491 l 1,22,23
 185 509 185 509 265 509 c 0,24,25
 411 509 411 509 411 353 c 2,0,-1
109 217 m 128,-1,27
 85 190 85 190 85 136 c 128,-1,28
 85 82 85 82 109.5 52.5 c 128,-1,29
 134 23 134 23 178 23 c 128,-1,30
 222 23 222 23 271 33.5 c 128,-1,31
 320 44 320 44 348 54 c 2,32,-1
 376 64 l 1,33,-1
 376 269 l 1,34,-1
 190 250 l 2,35,26
 133 244 133 244 109 217 c 128,-1,27
115 642 m 1,36,-1
 115 674 l 1,37,-1
 382 674 l 1,38,-1
 382 642 l 1,39,-1
 115 642 l 1,36,-1
EndSplineSet
EndChar

StartChar: Abreve
Encoding: 258 258 195
Width: 592
GlyphClass: 2
Flags: W
LayerCount: 2
Fore
SplineSet
28 0 m 1,0,-1
 243 700 l 1,1,-1
 349 700 l 1,2,-1
 564 0 l 1,3,-1
 528 0 l 1,4,-1
 463 215 l 1,5,-1
 129 215 l 1,6,-1
 64 0 l 1,7,-1
 28 0 l 1,0,-1
268 666 m 1,8,-1
 140 249 l 1,9,-1
 452 249 l 1,10,-1
 324 666 l 1,11,-1
 268 666 l 1,8,-1
157 924 m 1,12,-1
 192 924 l 1,13,14
 192 884 192 884 222 860.5 c 128,-1,15
 252 837 252 837 295 837 c 128,-1,16
 338 837 338 837 368 860.5 c 128,-1,17
 398 884 398 884 398 924 c 1,18,-1
 433 924 l 1,19,20
 433 870 433 870 393 837.5 c 128,-1,21
 353 805 353 805 295 805 c 128,-1,22
 237 805 237 805 197 837.5 c 128,-1,23
 157 870 157 870 157 924 c 1,12,-1
EndSplineSet
Position2: "'cpsp' Capital Spacing in Latin lookup 0 subtable" dx=5 dy=0 dh=10 dv=0
EndChar

StartChar: abreve
Encoding: 259 259 196
Width: 497
GlyphClass: 2
Flags: W
LayerCount: 2
Fore
SplineSet
411 353 m 2,0,-1
 411 66 l 1,1,2
 415 30 415 30 486 24 c 1,3,-1
 484 -8 l 1,4,5
 409 -8 409 -8 381 32 c 1,6,-1
 354 22 l 2,7,8
 328 12 328 12 276.5 1.5 c 128,-1,9
 225 -9 225 -9 170 -9 c 128,-1,10
 115 -9 115 -9 81.5 28.5 c 128,-1,11
 48 66 48 66 48 134 c 128,-1,12
 48 202 48 202 80.5 238 c 128,-1,13
 113 274 113 274 186 281 c 2,14,-1
 376 301 l 1,15,-1
 376 353 l 2,16,17
 376 417 376 417 348.5 446 c 128,-1,18
 321 475 321 475 256.5 475 c 128,-1,19
 192 475 192 475 76 458 c 1,20,-1
 73 491 l 1,21,-1
 103 496 l 1,22,23
 193 509 193 509 265 509 c 0,24,25
 411 509 411 509 411 353 c 2,0,-1
176 23 m 0,26,27
 275 23 275 23 376 63 c 1,28,-1
 376 268 l 1,29,-1
 190 250 l 2,30,31
 85 239 85 239 85 137 c 0,32,33
 85 83 85 83 109.5 53 c 128,-1,34
 134 23 134 23 176 23 c 0,26,27
114 723 m 1,35,-1
 149 723 l 1,36,37
 149 681 149 681 176.5 654 c 128,-1,38
 204 627 204 627 252 627 c 128,-1,39
 300 627 300 627 327.5 654 c 128,-1,40
 355 681 355 681 355 723 c 1,41,-1
 390 723 l 1,42,43
 390 667 390 667 352 631 c 128,-1,44
 314 595 314 595 252 595 c 128,-1,45
 190 595 190 595 152 631 c 128,-1,46
 114 667 114 667 114 723 c 1,35,-1
EndSplineSet
EndChar

StartChar: Aogonek
Encoding: 260 260 197
Width: 592
GlyphClass: 2
Flags: W
LayerCount: 2
Fore
SplineSet
516.5 -52.5 m 128,-1,1
 482 -96 482 -96 482 -116.5 c 128,-1,2
 482 -137 482 -137 495 -151.5 c 128,-1,3
 508 -166 508 -166 529 -166 c 1,4,-1
 585 -159 l 1,5,-1
 589 -192 l 1,6,7
 553 -200 553 -200 521.5 -200 c 128,-1,8
 490 -200 490 -200 467.5 -178 c 128,-1,9
 445 -156 445 -156 445 -116.5 c 128,-1,10
 445 -77 445 -77 526 4 c 1,11,-1
 463 215 l 1,12,-1
 129 215 l 1,13,-1
 64 0 l 1,14,-1
 28 0 l 1,15,-1
 243 700 l 1,16,-1
 349 700 l 1,17,-1
 564 0 l 1,18,-1
 562 0 l 1,19,0
 551 -9 551 -9 516.5 -52.5 c 128,-1,1
268 666 m 1,20,-1
 140 249 l 1,21,-1
 452 249 l 1,22,-1
 324 666 l 1,23,-1
 268 666 l 1,20,-1
EndSplineSet
Position2: "'cpsp' Capital Spacing in Latin lookup 0 subtable" dx=5 dy=0 dh=10 dv=0
EndChar

StartChar: aogonek
Encoding: 261 261 198
Width: 494
GlyphClass: 2
Flags: W
LayerCount: 2
Fore
SplineSet
411 353 m 2,0,-1
 411 65 l 1,1,2
 415 29 415 29 486 23 c 1,3,-1
 484 -8 l 1,4,5
 473 -8 473 -8 453 -6 c 1,6,7
 379 -89 379 -89 379 -113 c 128,-1,8
 379 -137 379 -137 392 -151.5 c 128,-1,9
 405 -166 405 -166 426 -166 c 1,10,-1
 482 -159 l 1,11,-1
 486 -192 l 1,12,13
 450 -200 450 -200 418.5 -200 c 128,-1,14
 387 -200 387 -200 364.5 -178 c 128,-1,15
 342 -156 342 -156 342 -123.5 c 128,-1,16
 342 -91 342 -91 372 -53 c 128,-1,17
 402 -15 402 -15 421 2 c 1,18,19
 395 14 395 14 381 34 c 1,20,21
 279 -9 279 -9 179 -9 c 0,22,23
 117 -9 117 -9 82.5 28 c 128,-1,24
 48 65 48 65 48 133.5 c 128,-1,25
 48 202 48 202 81 238 c 128,-1,26
 114 274 114 274 186 281 c 2,27,-1
 376 301 l 1,28,-1
 376 353 l 2,29,30
 376 417 376 417 348.5 446 c 128,-1,31
 321 475 321 475 265 475 c 0,32,33
 208 475 208 475 107 462 c 2,34,-1
 76 458 l 1,35,-1
 73 491 l 1,36,37
 185 509 185 509 265 509 c 0,38,39
 411 509 411 509 411 353 c 2,0,-1
109 217 m 128,-1,41
 85 190 85 190 85 136 c 128,-1,42
 85 82 85 82 109.5 52.5 c 128,-1,43
 134 23 134 23 178 23 c 128,-1,44
 222 23 222 23 271 33.5 c 128,-1,45
 320 44 320 44 348 54 c 2,46,-1
 376 64 l 1,47,-1
 376 269 l 1,48,-1
 190 250 l 2,49,40
 133 244 133 244 109 217 c 128,-1,41
EndSplineSet
EndChar

StartChar: Cacute
Encoding: 262 262 199
Width: 545
GlyphClass: 2
Flags: W
LayerCount: 2
Fore
SplineSet
501 11 m 1,0,1
 401 -9 401 -9 320.5 -9 c 128,-1,2
 240 -9 240 -9 190.5 14.5 c 128,-1,3
 141 38 141 38 114 87 c 128,-1,4
 87 136 87 136 77 197 c 128,-1,5
 67 258 67 258 67 338 c 128,-1,6
 67 418 67 418 72.5 469 c 128,-1,7
 78 520 78 520 93.5 568 c 128,-1,8
 109 616 109 616 136 645 c 0,9,10
 196 709 196 709 316 709 c 0,11,12
 404 709 404 709 501 690 c 1,13,-1
 498 655 l 1,14,15
 402 675 402 675 331.5 675 c 128,-1,16
 261 675 261 675 222 659 c 128,-1,17
 183 643 183 643 160.5 617.5 c 128,-1,18
 138 592 138 592 125.5 547.5 c 128,-1,19
 113 503 113 503 109 458 c 128,-1,20
 105 413 105 413 105 347 c 128,-1,21
 105 281 105 281 109 236 c 128,-1,22
 113 191 113 191 126 148 c 128,-1,23
 139 105 139 105 162 80 c 0,24,25
 213 25 213 25 316 25 c 0,26,27
 394 25 394 25 498 45 c 1,28,-1
 501 11 l 1,0,1
205 826 m 1,29,-1
 397 922 l 1,30,-1
 413 891 l 1,31,-1
 220 799 l 1,32,-1
 205 826 l 1,29,-1
EndSplineSet
Position2: "'cpsp' Capital Spacing in Latin lookup 0 subtable" dx=5 dy=0 dh=10 dv=0
EndChar

StartChar: cacute
Encoding: 263 263 200
Width: 429
GlyphClass: 2
Flags: W
LayerCount: 2
Fore
SplineSet
265 477 m 0,0,1
 170 477 170 477 133.5 429 c 128,-1,2
 97 381 97 381 97 253.5 c 128,-1,3
 97 126 97 126 130 74.5 c 128,-1,4
 163 23 163 23 265 23 c 1,5,-1
 385 32 l 1,6,-1
 387 0 l 1,7,8
 303 -9 303 -9 265 -9 c 0,9,10
 143 -9 143 -9 101.5 48.5 c 128,-1,11
 60 106 60 106 60 252.5 c 128,-1,12
 60 399 60 399 106 454 c 128,-1,13
 152 509 152 509 265 509 c 1,14,-1
 385 499 l 1,15,-1
 383 467 l 1,16,17
 303 477 303 477 265 477 c 0,0,1
146 636 m 1,18,-1
 338 732 l 1,19,-1
 354 701 l 1,20,-1
 161 609 l 1,21,-1
 146 636 l 1,18,-1
EndSplineSet
EndChar

StartChar: Ccircumflex
Encoding: 264 264 201
Width: 545
GlyphClass: 2
Flags: W
LayerCount: 2
Fore
SplineSet
501 11 m 1,0,1
 401 -9 401 -9 320.5 -9 c 128,-1,2
 240 -9 240 -9 190.5 14.5 c 128,-1,3
 141 38 141 38 114 87 c 128,-1,4
 87 136 87 136 77 197 c 128,-1,5
 67 258 67 258 67 338 c 128,-1,6
 67 418 67 418 72.5 469 c 128,-1,7
 78 520 78 520 93.5 568 c 128,-1,8
 109 616 109 616 136 645 c 0,9,10
 196 709 196 709 316 709 c 0,11,12
 404 709 404 709 501 690 c 1,13,-1
 498 655 l 1,14,15
 402 675 402 675 331.5 675 c 128,-1,16
 261 675 261 675 222 659 c 128,-1,17
 183 643 183 643 160.5 617.5 c 128,-1,18
 138 592 138 592 125.5 547.5 c 128,-1,19
 113 503 113 503 109 458 c 128,-1,20
 105 413 105 413 105 347 c 128,-1,21
 105 281 105 281 109 236 c 128,-1,22
 113 191 113 191 126 148 c 128,-1,23
 139 105 139 105 162 80 c 0,24,25
 213 25 213 25 316 25 c 0,26,27
 394 25 394 25 498 45 c 1,28,-1
 501 11 l 1,0,1
169 809 m 1,29,-1
 303 934 l 1,30,-1
 333 934 l 1,31,-1
 467 809 l 1,32,-1
 422 809 l 1,33,-1
 318 905 l 1,34,-1
 215 809 l 1,35,-1
 169 809 l 1,29,-1
EndSplineSet
Position2: "'cpsp' Capital Spacing in Latin lookup 0 subtable" dx=5 dy=0 dh=10 dv=0
EndChar

StartChar: ccircumflex
Encoding: 265 265 202
Width: 429
GlyphClass: 2
Flags: W
LayerCount: 2
Fore
SplineSet
265 477 m 0,0,1
 170 477 170 477 133.5 429 c 128,-1,2
 97 381 97 381 97 253.5 c 128,-1,3
 97 126 97 126 130 74.5 c 128,-1,4
 163 23 163 23 265 23 c 1,5,-1
 385 32 l 1,6,-1
 387 0 l 1,7,8
 303 -9 303 -9 265 -9 c 0,9,10
 143 -9 143 -9 101.5 48.5 c 128,-1,11
 60 106 60 106 60 252.5 c 128,-1,12
 60 399 60 399 106 454 c 128,-1,13
 152 509 152 509 265 509 c 1,14,-1
 385 499 l 1,15,-1
 383 467 l 1,16,17
 303 477 303 477 265 477 c 0,0,1
103 600 m 1,18,-1
 224 732 l 1,19,-1
 252 732 l 1,20,-1
 374 600 l 1,21,-1
 331 600 l 1,22,-1
 239 700 l 1,23,-1
 146 600 l 1,24,-1
 103 600 l 1,18,-1
EndSplineSet
EndChar

StartChar: Cdotaccent
Encoding: 266 266 203
Width: 545
GlyphClass: 2
Flags: W
LayerCount: 2
Fore
SplineSet
501 11 m 1,0,1
 401 -9 401 -9 320.5 -9 c 128,-1,2
 240 -9 240 -9 190.5 14.5 c 128,-1,3
 141 38 141 38 114 87 c 128,-1,4
 87 136 87 136 77 197 c 128,-1,5
 67 258 67 258 67 338 c 128,-1,6
 67 418 67 418 72.5 469 c 128,-1,7
 78 520 78 520 93.5 568 c 128,-1,8
 109 616 109 616 136 645 c 0,9,10
 196 709 196 709 316 709 c 0,11,12
 404 709 404 709 501 690 c 1,13,-1
 498 655 l 1,14,15
 402 675 402 675 331.5 675 c 128,-1,16
 261 675 261 675 222 659 c 128,-1,17
 183 643 183 643 160.5 617.5 c 128,-1,18
 138 592 138 592 125.5 547.5 c 128,-1,19
 113 503 113 503 109 458 c 128,-1,20
 105 413 105 413 105 347 c 128,-1,21
 105 281 105 281 109 236 c 128,-1,22
 113 191 113 191 126 148 c 128,-1,23
 139 105 139 105 162 80 c 0,24,25
 213 25 213 25 316 25 c 0,26,27
 394 25 394 25 498 45 c 1,28,-1
 501 11 l 1,0,1
279 823 m 1,29,-1
 279 878 l 1,30,-1
 314 878 l 1,31,-1
 314 823 l 1,32,-1
 279 823 l 1,29,-1
EndSplineSet
Position2: "'cpsp' Capital Spacing in Latin lookup 0 subtable" dx=5 dy=0 dh=10 dv=0
EndChar

StartChar: cdotaccent
Encoding: 267 267 204
Width: 429
GlyphClass: 2
Flags: W
LayerCount: 2
Fore
SplineSet
265 477 m 0,0,1
 170 477 170 477 133.5 429 c 128,-1,2
 97 381 97 381 97 253.5 c 128,-1,3
 97 126 97 126 130 74.5 c 128,-1,4
 163 23 163 23 265 23 c 1,5,-1
 385 32 l 1,6,-1
 387 0 l 1,7,8
 303 -9 303 -9 265 -9 c 0,9,10
 143 -9 143 -9 101.5 48.5 c 128,-1,11
 60 106 60 106 60 252.5 c 128,-1,12
 60 399 60 399 106 454 c 128,-1,13
 152 509 152 509 265 509 c 1,14,-1
 385 499 l 1,15,-1
 383 467 l 1,16,17
 303 477 303 477 265 477 c 0,0,1
230 645 m 1,18,-1
 230 700 l 1,19,-1
 265 700 l 1,20,-1
 265 645 l 1,21,-1
 230 645 l 1,18,-1
EndSplineSet
EndChar

StartChar: Ccaron
Encoding: 268 268 205
Width: 545
GlyphClass: 2
Flags: W
LayerCount: 2
Fore
SplineSet
501 11 m 1,0,1
 401 -9 401 -9 320.5 -9 c 128,-1,2
 240 -9 240 -9 190.5 14.5 c 128,-1,3
 141 38 141 38 114 87 c 128,-1,4
 87 136 87 136 77 197 c 128,-1,5
 67 258 67 258 67 338 c 128,-1,6
 67 418 67 418 72.5 469 c 128,-1,7
 78 520 78 520 93.5 568 c 128,-1,8
 109 616 109 616 136 645 c 0,9,10
 196 709 196 709 316 709 c 0,11,12
 404 709 404 709 501 690 c 1,13,-1
 498 655 l 1,14,15
 402 675 402 675 331.5 675 c 128,-1,16
 261 675 261 675 222 659 c 128,-1,17
 183 643 183 643 160.5 617.5 c 128,-1,18
 138 592 138 592 125.5 547.5 c 128,-1,19
 113 503 113 503 109 458 c 128,-1,20
 105 413 105 413 105 347 c 128,-1,21
 105 281 105 281 109 236 c 128,-1,22
 113 191 113 191 126 148 c 128,-1,23
 139 105 139 105 162 80 c 0,24,25
 213 25 213 25 316 25 c 0,26,27
 394 25 394 25 498 45 c 1,28,-1
 501 11 l 1,0,1
285 809 m 1,29,-1
 151 934 l 1,30,-1
 196 934 l 1,31,-1
 300 838 l 1,32,-1
 403 934 l 1,33,-1
 449 934 l 1,34,-1
 315 809 l 1,35,-1
 285 809 l 1,29,-1
EndSplineSet
Position2: "'cpsp' Capital Spacing in Latin lookup 0 subtable" dx=5 dy=0 dh=10 dv=0
EndChar

StartChar: ccaron
Encoding: 269 269 206
Width: 429
GlyphClass: 2
Flags: W
LayerCount: 2
Fore
SplineSet
265 477 m 0,0,1
 170 477 170 477 133.5 429 c 128,-1,2
 97 381 97 381 97 253.5 c 128,-1,3
 97 126 97 126 130 74.5 c 128,-1,4
 163 23 163 23 265 23 c 1,5,-1
 385 32 l 1,6,-1
 387 0 l 1,7,8
 303 -9 303 -9 265 -9 c 0,9,10
 143 -9 143 -9 101.5 48.5 c 128,-1,11
 60 106 60 106 60 252.5 c 128,-1,12
 60 399 60 399 106 454 c 128,-1,13
 152 509 152 509 265 509 c 1,14,-1
 385 499 l 1,15,-1
 383 467 l 1,16,17
 303 477 303 477 265 477 c 0,0,1
224 600 m 1,18,-1
 103 732 l 1,19,-1
 145 732 l 1,20,-1
 239 633 l 1,21,-1
 332 732 l 1,22,-1
 374 732 l 1,23,-1
 252 600 l 1,24,-1
 224 600 l 1,18,-1
EndSplineSet
EndChar

StartChar: Dcaron
Encoding: 270 270 207
Width: 649
GlyphClass: 2
Flags: W
LayerCount: 2
Fore
SplineSet
352 0 m 2,0,-1
 92 0 l 1,1,-1
 92 700 l 1,2,-1
 352 700 l 2,3,4
 416 700 416 700 462.5 672 c 128,-1,5
 509 644 509 644 535.5 594.5 c 128,-1,6
 562 545 562 545 574 486.5 c 128,-1,7
 586 428 586 428 586 358 c 128,-1,8
 586 288 586 288 573.5 227 c 128,-1,9
 561 166 561 166 535 113.5 c 128,-1,10
 509 61 509 61 462 30.5 c 128,-1,11
 415 0 415 0 352 0 c 2,0,-1
538 243.5 m 128,-1,13
 548 298 548 298 548 369 c 128,-1,14
 548 440 548 440 531.5 505.5 c 128,-1,15
 515 571 515 571 469 618.5 c 128,-1,16
 423 666 423 666 352 666 c 2,17,-1
 128 666 l 1,18,-1
 128 34 l 1,19,-1
 352 34 l 2,20,21
 406 34 406 34 445.5 63 c 128,-1,22
 485 92 485 92 506.5 140.5 c 128,-1,12
 528 189 528 189 538 243.5 c 128,-1,13
273 809 m 1,23,-1
 139 934 l 1,24,-1
 184 934 l 1,25,-1
 288 838 l 1,26,-1
 391 934 l 1,27,-1
 437 934 l 1,28,-1
 303 809 l 1,29,-1
 273 809 l 1,23,-1
EndSplineSet
Position2: "'cpsp' Capital Spacing in Latin lookup 0 subtable" dx=5 dy=0 dh=10 dv=0
EndChar

StartChar: dcaron
Encoding: 271 271 208
Width: 515
GlyphClass: 2
Flags: W
LayerCount: 2
Fore
SplineSet
537 687 m 1,0,-1
 574 687 l 1,1,-1
 528 498 l 1,2,-1
 500 498 l 1,3,-1
 537 687 l 1,0,-1
436 730 m 1,4,-1
 436 0 l 1,5,-1
 401 0 l 1,6,-1
 401 42 l 1,7,8
 372 23 372 23 320 7 c 128,-1,9
 268 -9 268 -9 235.5 -9 c 128,-1,10
 203 -9 203 -9 185.5 -6.5 c 128,-1,11
 168 -4 168 -4 142 9.5 c 128,-1,12
 116 23 116 23 99.5 48 c 128,-1,13
 83 73 83 73 70.5 123 c 128,-1,14
 58 173 58 173 58 242 c 0,15,16
 58 378 58 378 104.5 443.5 c 128,-1,17
 151 509 151 509 269 509 c 0,18,19
 326 509 326 509 401 497 c 1,20,-1
 401 730 l 1,21,-1
 436 730 l 1,4,-1
182.5 29.5 m 128,-1,23
 202 23 202 23 234 23 c 128,-1,24
 266 23 266 23 309.5 36 c 128,-1,25
 353 49 353 49 377 62 c 2,26,-1
 401 75 l 1,27,-1
 401 465 l 1,28,29
 323 477 323 477 269 477 c 0,30,31
 168 477 168 477 131.5 420 c 128,-1,32
 95 363 95 363 95 242 c 0,33,34
 95 98 95 98 141 56 c 0,35,22
 163 36 163 36 182.5 29.5 c 128,-1,23
EndSplineSet
EndChar

StartChar: Dcroat
Encoding: 272 272 209
Width: 651
GlyphClass: 2
Flags: W
LayerCount: 2
Fore
SplineSet
17 334 m 1,0,-1
 17 368 l 1,1,-1
 94 368 l 1,2,-1
 94 700 l 1,3,-1
 354 700 l 2,4,5
 418 700 418 700 464.5 672 c 128,-1,6
 511 644 511 644 538 595 c 0,7,8
 588 502 588 502 588 360 c 0,9,10
 588 219 588 219 537 115 c 0,11,12
 511 62 511 62 464 31 c 128,-1,13
 417 0 417 0 354 0 c 2,14,-1
 94 0 l 1,15,-1
 94 334 l 1,16,-1
 17 334 l 1,0,-1
550 360 m 128,-1,18
 550 420 550 420 540 471.5 c 128,-1,19
 530 523 530 523 508.5 568.5 c 128,-1,20
 487 614 487 614 447.5 640 c 128,-1,21
 408 666 408 666 354 666 c 2,22,-1
 130 666 l 1,23,-1
 130 368 l 1,24,-1
 307 368 l 1,25,-1
 307 334 l 1,26,-1
 130 334 l 1,27,-1
 130 34 l 1,28,-1
 354 34 l 2,29,30
 408 34 408 34 447.5 63 c 128,-1,31
 487 92 487 92 508.5 141.5 c 128,-1,32
 530 191 530 191 540 245.5 c 128,-1,17
 550 300 550 300 550 360 c 128,-1,18
EndSplineSet
Position2: "'cpsp' Capital Spacing in Latin lookup 0 subtable" dx=5 dy=0 dh=10 dv=0
EndChar

StartChar: dcroat
Encoding: 273 273 210
Width: 515
GlyphClass: 2
Flags: W
LayerCount: 2
Fore
SplineSet
436 730 m 1,0,-1
 436 654 l 1,1,-1
 495 654 l 1,2,-1
 495 622 l 1,3,-1
 436 622 l 1,4,-1
 436 0 l 1,5,-1
 401 0 l 1,6,-1
 401 42 l 1,7,8
 372 23 372 23 320 7 c 128,-1,9
 268 -9 268 -9 235.5 -9 c 128,-1,10
 203 -9 203 -9 185.5 -6.5 c 128,-1,11
 168 -4 168 -4 142 9.5 c 128,-1,12
 116 23 116 23 99.5 48 c 128,-1,13
 83 73 83 73 70.5 123 c 128,-1,14
 58 173 58 173 58 242 c 0,15,16
 58 378 58 378 104.5 443.5 c 128,-1,17
 151 509 151 509 269 509 c 0,18,19
 326 509 326 509 401 497 c 1,20,-1
 401 622 l 1,21,-1
 228 622 l 1,22,-1
 228 654 l 1,23,-1
 401 654 l 1,24,-1
 401 730 l 1,25,-1
 436 730 l 1,0,-1
182.5 29.5 m 128,-1,27
 202 23 202 23 234 23 c 128,-1,28
 266 23 266 23 309.5 36 c 128,-1,29
 353 49 353 49 377 62 c 2,30,-1
 401 75 l 1,31,-1
 401 465 l 1,32,33
 323 477 323 477 269 477 c 0,34,35
 168 477 168 477 131.5 420 c 128,-1,36
 95 363 95 363 95 242 c 0,37,38
 95 98 95 98 141 56 c 0,39,26
 163 36 163 36 182.5 29.5 c 128,-1,27
EndSplineSet
EndChar

StartChar: Emacron
Encoding: 274 274 211
Width: 552
GlyphClass: 2
Flags: W
LayerCount: 2
Fore
SplineSet
92 0 m 1,0,-1
 92 700 l 1,1,-1
 501 700 l 1,2,-1
 501 666 l 1,3,-1
 128 666 l 1,4,-1
 128 375 l 1,5,-1
 441 375 l 1,6,-1
 441 341 l 1,7,-1
 128 341 l 1,8,-1
 128 34 l 1,9,-1
 501 34 l 1,10,-1
 501 0 l 1,11,-1
 92 0 l 1,0,-1
152 832 m 1,12,-1
 152 864 l 1,13,-1
 439 864 l 1,14,-1
 439 832 l 1,15,-1
 152 832 l 1,12,-1
EndSplineSet
Position2: "'cpsp' Capital Spacing in Latin lookup 0 subtable" dx=5 dy=0 dh=10 dv=0
EndChar

StartChar: emacron
Encoding: 275 275 212
Width: 502
GlyphClass: 2
Flags: W
LayerCount: 2
Fore
SplineSet
399 30 m 1,0,-1
 429 32 l 1,1,-1
 431 0 l 1,2,3
 319 -9 319 -9 246 -9 c 0,4,5
 140 -8 140 -8 99 55.5 c 128,-1,6
 58 119 58 119 58 250 c 0,7,8
 58 509 58 509 260 509 c 0,9,10
 355 509 355 509 402.5 452 c 128,-1,11
 450 395 450 395 450 269 c 2,12,-1
 450 236 l 1,13,-1
 95 236 l 1,14,15
 95 128 95 128 129 75.5 c 128,-1,16
 163 23 163 23 242 23 c 128,-1,17
 321 23 321 23 399 30 c 1,0,-1
95 268 m 1,18,-1
 413 268 l 1,19,20
 413 381 413 381 376.5 429 c 128,-1,21
 340 477 340 477 260 477 c 0,22,23
 95 477 95 477 95 268 c 1,18,-1
130 642 m 1,24,-1
 130 674 l 1,25,-1
 397 674 l 1,26,-1
 397 642 l 1,27,-1
 130 642 l 1,24,-1
EndSplineSet
EndChar

StartChar: Ebreve
Encoding: 276 276 213
Width: 552
GlyphClass: 2
Flags: W
LayerCount: 2
Fore
SplineSet
92 0 m 1,0,-1
 92 700 l 1,1,-1
 501 700 l 1,2,-1
 501 666 l 1,3,-1
 128 666 l 1,4,-1
 128 375 l 1,5,-1
 441 375 l 1,6,-1
 441 341 l 1,7,-1
 128 341 l 1,8,-1
 128 34 l 1,9,-1
 501 34 l 1,10,-1
 501 0 l 1,11,-1
 92 0 l 1,0,-1
169 924 m 1,12,-1
 204 924 l 1,13,14
 204 884 204 884 234 860.5 c 128,-1,15
 264 837 264 837 307 837 c 128,-1,16
 350 837 350 837 380 860.5 c 128,-1,17
 410 884 410 884 410 924 c 1,18,-1
 445 924 l 1,19,20
 445 870 445 870 405 837.5 c 128,-1,21
 365 805 365 805 307 805 c 128,-1,22
 249 805 249 805 209 837.5 c 128,-1,23
 169 870 169 870 169 924 c 1,12,-1
EndSplineSet
Position2: "'cpsp' Capital Spacing in Latin lookup 0 subtable" dx=5 dy=0 dh=10 dv=0
EndChar

StartChar: ebreve
Encoding: 277 277 214
Width: 502
GlyphClass: 2
Flags: W
LayerCount: 2
Fore
SplineSet
399 30 m 1,0,-1
 429 32 l 1,1,-1
 431 0 l 1,2,3
 319 -9 319 -9 246 -9 c 0,4,5
 140 -8 140 -8 99 55.5 c 128,-1,6
 58 119 58 119 58 250 c 0,7,8
 58 509 58 509 260 509 c 0,9,10
 355 509 355 509 402.5 452 c 128,-1,11
 450 395 450 395 450 269 c 2,12,-1
 450 236 l 1,13,-1
 95 236 l 1,14,15
 95 128 95 128 129 75.5 c 128,-1,16
 163 23 163 23 242 23 c 128,-1,17
 321 23 321 23 399 30 c 1,0,-1
95 268 m 1,18,-1
 413 268 l 1,19,20
 413 381 413 381 376.5 429 c 128,-1,21
 340 477 340 477 260 477 c 0,22,23
 95 477 95 477 95 268 c 1,18,-1
117 723 m 1,24,-1
 152 723 l 1,25,26
 152 681 152 681 179.5 654 c 128,-1,27
 207 627 207 627 255 627 c 128,-1,28
 303 627 303 627 330.5 654 c 128,-1,29
 358 681 358 681 358 723 c 1,30,-1
 393 723 l 1,31,32
 393 667 393 667 355 631 c 128,-1,33
 317 595 317 595 255 595 c 128,-1,34
 193 595 193 595 155 631 c 128,-1,35
 117 667 117 667 117 723 c 1,24,-1
EndSplineSet
EndChar

StartChar: Edotaccent
Encoding: 278 278 215
Width: 552
GlyphClass: 2
Flags: W
LayerCount: 2
Fore
SplineSet
92 0 m 1,0,-1
 92 700 l 1,1,-1
 501 700 l 1,2,-1
 501 666 l 1,3,-1
 128 666 l 1,4,-1
 128 375 l 1,5,-1
 441 375 l 1,6,-1
 441 341 l 1,7,-1
 128 341 l 1,8,-1
 128 34 l 1,9,-1
 501 34 l 1,10,-1
 501 0 l 1,11,-1
 92 0 l 1,0,-1
277 823 m 1,12,-1
 277 878 l 1,13,-1
 312 878 l 1,14,-1
 312 823 l 1,15,-1
 277 823 l 1,12,-1
EndSplineSet
Position2: "'cpsp' Capital Spacing in Latin lookup 0 subtable" dx=5 dy=0 dh=10 dv=0
EndChar

StartChar: edotaccent
Encoding: 279 279 216
Width: 502
GlyphClass: 2
Flags: W
LayerCount: 2
Fore
SplineSet
399 30 m 1,0,-1
 429 32 l 1,1,-1
 431 0 l 1,2,3
 319 -9 319 -9 246 -9 c 0,4,5
 140 -8 140 -8 99 55.5 c 128,-1,6
 58 119 58 119 58 250 c 0,7,8
 58 509 58 509 260 509 c 0,9,10
 355 509 355 509 402.5 452 c 128,-1,11
 450 395 450 395 450 269 c 2,12,-1
 450 236 l 1,13,-1
 95 236 l 1,14,15
 95 128 95 128 129 75.5 c 128,-1,16
 163 23 163 23 242 23 c 128,-1,17
 321 23 321 23 399 30 c 1,0,-1
95 268 m 1,18,-1
 413 268 l 1,19,20
 413 381 413 381 376.5 429 c 128,-1,21
 340 477 340 477 260 477 c 0,22,23
 95 477 95 477 95 268 c 1,18,-1
234 645 m 1,24,-1
 234 700 l 1,25,-1
 269 700 l 1,26,-1
 269 645 l 1,27,-1
 234 645 l 1,24,-1
EndSplineSet
EndChar

StartChar: Eogonek
Encoding: 280 280 217
Width: 552
GlyphClass: 2
Flags: W
LayerCount: 2
Fore
SplineSet
92 0 m 1,0,-1
 92 700 l 1,1,-1
 501 700 l 1,2,-1
 501 666 l 1,3,-1
 128 666 l 1,4,-1
 128 375 l 1,5,-1
 441 375 l 1,6,-1
 441 341 l 1,7,-1
 128 341 l 1,8,-1
 128 34 l 1,9,-1
 501 34 l 1,10,-1
 501 0 l 1,11,-1
 471 0 l 1,12,13
 460 -9 460 -9 425.5 -52.5 c 128,-1,14
 391 -96 391 -96 391 -116.5 c 128,-1,15
 391 -137 391 -137 404 -151.5 c 128,-1,16
 417 -166 417 -166 438 -166 c 1,17,-1
 494 -159 l 1,18,-1
 498 -192 l 1,19,20
 462 -200 462 -200 430.5 -200 c 128,-1,21
 399 -200 399 -200 376.5 -178 c 128,-1,22
 354 -156 354 -156 354 -116.5 c 128,-1,23
 354 -77 354 -77 431 0 c 1,24,-1
 92 0 l 1,0,-1
EndSplineSet
Position2: "'cpsp' Capital Spacing in Latin lookup 0 subtable" dx=5 dy=0 dh=10 dv=0
EndChar

StartChar: eogonek
Encoding: 281 281 218
Width: 502
GlyphClass: 2
Flags: W
LayerCount: 2
Fore
SplineSet
399 30 m 1,0,-1
 429 32 l 1,1,-1
 431 0 l 1,2,3
 424 0 424 0 417 -1 c 1,4,5
 398 -20 398 -20 368 -58.5 c 128,-1,6
 338 -97 338 -97 338 -117 c 128,-1,7
 338 -137 338 -137 351 -151.5 c 128,-1,8
 364 -166 364 -166 385 -166 c 1,9,-1
 441 -159 l 1,10,-1
 445 -192 l 1,11,12
 409 -200 409 -200 377.5 -200 c 128,-1,13
 346 -200 346 -200 323.5 -178 c 128,-1,14
 301 -156 301 -156 301 -116.5 c 128,-1,15
 301 -77 301 -77 374 -4 c 1,16,17
 276 -9 276 -9 246 -9 c 0,18,19
 140 -8 140 -8 99 55.5 c 128,-1,20
 58 119 58 119 58 250 c 0,21,22
 58 509 58 509 260 509 c 0,23,24
 355 509 355 509 402.5 452 c 128,-1,25
 450 395 450 395 450 269 c 2,26,-1
 450 236 l 1,27,-1
 95 236 l 1,28,29
 95 128 95 128 129 75.5 c 128,-1,30
 163 23 163 23 242 23 c 128,-1,31
 321 23 321 23 399 30 c 1,0,-1
95 268 m 1,32,-1
 413 268 l 1,33,34
 413 381 413 381 376.5 429 c 128,-1,35
 340 477 340 477 260 477 c 0,36,37
 95 477 95 477 95 268 c 1,32,-1
EndSplineSet
EndChar

StartChar: Ecaron
Encoding: 282 282 219
Width: 552
GlyphClass: 2
Flags: W
LayerCount: 2
Fore
SplineSet
92 0 m 1,0,-1
 92 700 l 1,1,-1
 501 700 l 1,2,-1
 501 666 l 1,3,-1
 128 666 l 1,4,-1
 128 375 l 1,5,-1
 441 375 l 1,6,-1
 441 341 l 1,7,-1
 128 341 l 1,8,-1
 128 34 l 1,9,-1
 501 34 l 1,10,-1
 501 0 l 1,11,-1
 92 0 l 1,0,-1
283 809 m 1,12,-1
 149 934 l 1,13,-1
 194 934 l 1,14,-1
 298 838 l 1,15,-1
 401 934 l 1,16,-1
 447 934 l 1,17,-1
 313 809 l 1,18,-1
 283 809 l 1,12,-1
EndSplineSet
Position2: "'cpsp' Capital Spacing in Latin lookup 0 subtable" dx=5 dy=0 dh=10 dv=0
EndChar

StartChar: ecaron
Encoding: 283 283 220
Width: 502
GlyphClass: 2
Flags: W
LayerCount: 2
Fore
SplineSet
399 30 m 1,0,-1
 429 32 l 1,1,-1
 431 0 l 1,2,3
 319 -9 319 -9 246 -9 c 0,4,5
 140 -8 140 -8 99 55.5 c 128,-1,6
 58 119 58 119 58 250 c 0,7,8
 58 509 58 509 260 509 c 0,9,10
 355 509 355 509 402.5 452 c 128,-1,11
 450 395 450 395 450 269 c 2,12,-1
 450 236 l 1,13,-1
 95 236 l 1,14,15
 95 128 95 128 129 75.5 c 128,-1,16
 163 23 163 23 242 23 c 128,-1,17
 321 23 321 23 399 30 c 1,0,-1
95 268 m 1,18,-1
 413 268 l 1,19,20
 413 381 413 381 376.5 429 c 128,-1,21
 340 477 340 477 260 477 c 0,22,23
 95 477 95 477 95 268 c 1,18,-1
237 600 m 1,24,-1
 116 732 l 1,25,-1
 158 732 l 1,26,-1
 252 633 l 1,27,-1
 345 732 l 1,28,-1
 387 732 l 1,29,-1
 265 600 l 1,30,-1
 237 600 l 1,24,-1
EndSplineSet
EndChar

StartChar: Gcircumflex
Encoding: 284 284 221
Width: 619
GlyphClass: 2
Flags: W
LayerCount: 2
Fore
SplineSet
361 317 m 1,0,-1
 361 351 l 1,1,-1
 547 351 l 1,2,-1
 547 20 l 1,3,4
 418 -5 418 -5 327 -5 c 0,5,6
 180 -5 180 -5 122.5 84 c 128,-1,7
 65 173 65 173 65 351 c 0,8,9
 65 438 65 438 76.5 500.5 c 128,-1,10
 88 563 88 563 116 613 c 0,11,12
 172 713 172 713 327 713 c 0,13,14
 416 713 416 713 516 694 c 2,15,-1
 547 688 l 1,16,-1
 544 653 l 1,17,18
 418 679 418 679 338 679 c 128,-1,19
 258 679 258 679 213 657 c 128,-1,20
 168 635 168 635 144.5 589 c 128,-1,21
 121 543 121 543 112 487.5 c 128,-1,22
 103 432 103 432 103 351.5 c 128,-1,23
 103 271 103 271 112.5 215.5 c 128,-1,24
 122 160 122 160 146 116 c 0,25,26
 193 29 193 29 327 29 c 0,27,28
 401 29 401 29 511 49 c 1,29,-1
 511 317 l 1,30,-1
 361 317 l 1,0,-1
169 804 m 1,31,-1
 303 929 l 1,32,-1
 333 929 l 1,33,-1
 467 804 l 1,34,-1
 422 804 l 1,35,-1
 318 900 l 1,36,-1
 215 804 l 1,37,-1
 169 804 l 1,31,-1
EndSplineSet
Position2: "'cpsp' Capital Spacing in Latin lookup 0 subtable" dx=5 dy=0 dh=10 dv=0
EndChar

StartChar: gcircumflex
Encoding: 285 285 222
Width: 501
GlyphClass: 2
Flags: W
LayerCount: 2
Fore
SplineSet
418.5 -202.5 m 128,-1,1
 368 -239 368 -239 251.5 -239 c 128,-1,2
 135 -239 135 -239 96.5 -205.5 c 128,-1,3
 58 -172 58 -172 58 -80 c 0,4,5
 58 -23 58 -23 96 11 c 0,6,7
 110 24 110 24 143 48 c 1,8,9
 121 62 121 62 121 113 c 0,10,11
 121 127 121 127 144 175 c 1,12,-1
 151 191 l 1,13,14
 65 219 65 219 65 343 c 0,15,16
 65 510 65 510 236 510 c 0,17,18
 288 510 288 510 328 500 c 1,19,-1
 342 497 l 1,20,-1
 482 500 l 1,21,-1
 482 465 l 1,22,-1
 374 465 l 1,23,24
 414 428 414 428 414 340.5 c 128,-1,25
 414 253 414 253 370.5 216 c 128,-1,26
 327 179 327 179 232 179 c 0,27,28
 202 179 202 179 178 183 c 1,29,30
 155 126 155 126 155 111 c 128,-1,31
 155 96 155 96 157 88 c 128,-1,32
 159 80 159 80 165 73 c 128,-1,33
 171 66 171 66 188 64 c 0,34,35
 219 59 219 59 305 59 c 128,-1,36
 391 59 391 59 430 31.5 c 128,-1,37
 469 4 469 4 469 -81 c 128,-1,0
 469 -166 469 -166 418.5 -202.5 c 128,-1,1
94 -79 m 0,38,39
 94 -153 94 -153 125.5 -180 c 128,-1,40
 157 -207 157 -207 253.5 -207 c 128,-1,41
 350 -207 350 -207 391 -178.5 c 128,-1,42
 432 -150 432 -150 432 -81.5 c 128,-1,43
 432 -13 432 -13 402 7 c 128,-1,44
 372 27 372 27 290 27 c 1,45,-1
 169 30 l 1,46,47
 124 -1 124 -1 109 -22.5 c 128,-1,48
 94 -44 94 -44 94 -79 c 0,38,39
132 240 m 128,-1,50
 163 211 163 211 238.5 211 c 128,-1,51
 314 211 314 211 345.5 239.5 c 128,-1,52
 377 268 377 268 377 343 c 128,-1,53
 377 418 377 418 345.5 448 c 128,-1,54
 314 478 314 478 238.5 478 c 128,-1,55
 163 478 163 478 132 447.5 c 128,-1,56
 101 417 101 417 101 343 c 128,-1,49
 101 269 101 269 132 240 c 128,-1,50
120 600 m 1,57,-1
 241 732 l 1,58,-1
 269 732 l 1,59,-1
 391 600 l 1,60,-1
 348 600 l 1,61,-1
 256 700 l 1,62,-1
 163 600 l 1,63,-1
 120 600 l 1,57,-1
EndSplineSet
EndChar

StartChar: Gbreve
Encoding: 286 286 223
Width: 619
GlyphClass: 2
Flags: W
LayerCount: 2
Fore
SplineSet
361 313 m 1,0,-1
 361 347 l 1,1,-1
 547 347 l 1,2,-1
 547 16 l 1,3,4
 418 -9 418 -9 327 -9 c 0,5,6
 180 -9 180 -9 122.5 80 c 128,-1,7
 65 169 65 169 65 347 c 0,8,9
 65 434 65 434 76.5 496.5 c 128,-1,10
 88 559 88 559 116 609 c 0,11,12
 172 709 172 709 327 709 c 0,13,14
 416 709 416 709 516 690 c 2,15,-1
 547 684 l 1,16,-1
 544 649 l 1,17,18
 418 675 418 675 338 675 c 128,-1,19
 258 675 258 675 213 653 c 128,-1,20
 168 631 168 631 144.5 585 c 128,-1,21
 121 539 121 539 112 483.5 c 128,-1,22
 103 428 103 428 103 347.5 c 128,-1,23
 103 267 103 267 112.5 211.5 c 128,-1,24
 122 156 122 156 146 112 c 0,25,26
 193 25 193 25 327 25 c 0,27,28
 401 25 401 25 511 45 c 1,29,-1
 511 313 l 1,30,-1
 361 313 l 1,0,-1
195 924 m 1,31,-1
 230 924 l 1,32,33
 230 884 230 884 260 860.5 c 128,-1,34
 290 837 290 837 333 837 c 128,-1,35
 376 837 376 837 406 860.5 c 128,-1,36
 436 884 436 884 436 924 c 1,37,-1
 471 924 l 1,38,39
 471 870 471 870 431 837.5 c 128,-1,40
 391 805 391 805 333 805 c 128,-1,41
 275 805 275 805 235 837.5 c 128,-1,42
 195 870 195 870 195 924 c 1,31,-1
EndSplineSet
Position2: "'cpsp' Capital Spacing in Latin lookup 0 subtable" dx=5 dy=0 dh=10 dv=0
EndChar

StartChar: gbreve
Encoding: 287 287 224
Width: 501
GlyphClass: 2
Flags: W
LayerCount: 2
Fore
SplineSet
418.5 -202.5 m 128,-1,1
 368 -239 368 -239 251.5 -239 c 128,-1,2
 135 -239 135 -239 96.5 -205.5 c 128,-1,3
 58 -172 58 -172 58 -80 c 0,4,5
 58 -23 58 -23 96 11 c 0,6,7
 110 24 110 24 143 48 c 1,8,9
 121 62 121 62 121 113 c 0,10,11
 121 127 121 127 144 175 c 1,12,-1
 151 191 l 1,13,14
 65 219 65 219 65 343 c 0,15,16
 65 510 65 510 236 510 c 0,17,18
 288 510 288 510 328 500 c 1,19,-1
 342 497 l 1,20,-1
 482 500 l 1,21,-1
 482 465 l 1,22,-1
 374 465 l 1,23,24
 414 428 414 428 414 340.5 c 128,-1,25
 414 253 414 253 370.5 216 c 128,-1,26
 327 179 327 179 232 179 c 0,27,28
 202 179 202 179 178 183 c 1,29,30
 155 126 155 126 155 111 c 128,-1,31
 155 96 155 96 157 88 c 128,-1,32
 159 80 159 80 165 73 c 128,-1,33
 171 66 171 66 188 64 c 0,34,35
 219 59 219 59 305 59 c 128,-1,36
 391 59 391 59 430 31.5 c 128,-1,37
 469 4 469 4 469 -81 c 128,-1,0
 469 -166 469 -166 418.5 -202.5 c 128,-1,1
94 -79 m 0,38,39
 94 -153 94 -153 125.5 -180 c 128,-1,40
 157 -207 157 -207 253.5 -207 c 128,-1,41
 350 -207 350 -207 391 -178.5 c 128,-1,42
 432 -150 432 -150 432 -81.5 c 128,-1,43
 432 -13 432 -13 402 7 c 128,-1,44
 372 27 372 27 290 27 c 1,45,-1
 169 30 l 1,46,47
 124 -1 124 -1 109 -22.5 c 128,-1,48
 94 -44 94 -44 94 -79 c 0,38,39
132 240 m 128,-1,50
 163 211 163 211 238.5 211 c 128,-1,51
 314 211 314 211 345.5 239.5 c 128,-1,52
 377 268 377 268 377 343 c 128,-1,53
 377 418 377 418 345.5 448 c 128,-1,54
 314 478 314 478 238.5 478 c 128,-1,55
 163 478 163 478 132 447.5 c 128,-1,56
 101 417 101 417 101 343 c 128,-1,49
 101 269 101 269 132 240 c 128,-1,50
117 723 m 1,57,-1
 152 723 l 1,58,59
 152 681 152 681 179.5 654 c 128,-1,60
 207 627 207 627 255 627 c 128,-1,61
 303 627 303 627 330.5 654 c 128,-1,62
 358 681 358 681 358 723 c 1,63,-1
 393 723 l 1,64,65
 393 667 393 667 355 631 c 128,-1,66
 317 595 317 595 255 595 c 128,-1,67
 193 595 193 595 155 631 c 128,-1,68
 117 667 117 667 117 723 c 1,57,-1
EndSplineSet
EndChar

StartChar: Gdotaccent
Encoding: 288 288 225
Width: 619
GlyphClass: 2
Flags: W
LayerCount: 2
Fore
SplineSet
361 313 m 1,0,-1
 361 347 l 1,1,-1
 547 347 l 1,2,-1
 547 16 l 1,3,4
 418 -9 418 -9 327 -9 c 0,5,6
 180 -9 180 -9 122.5 80 c 128,-1,7
 65 169 65 169 65 347 c 0,8,9
 65 434 65 434 76.5 496.5 c 128,-1,10
 88 559 88 559 116 609 c 0,11,12
 172 709 172 709 327 709 c 0,13,14
 416 709 416 709 516 690 c 2,15,-1
 547 684 l 1,16,-1
 544 649 l 1,17,18
 418 675 418 675 338 675 c 128,-1,19
 258 675 258 675 213 653 c 128,-1,20
 168 631 168 631 144.5 585 c 128,-1,21
 121 539 121 539 112 483.5 c 128,-1,22
 103 428 103 428 103 347.5 c 128,-1,23
 103 267 103 267 112.5 211.5 c 128,-1,24
 122 156 122 156 146 112 c 0,25,26
 193 25 193 25 327 25 c 0,27,28
 401 25 401 25 511 45 c 1,29,-1
 511 313 l 1,30,-1
 361 313 l 1,0,-1
296 823 m 1,31,-1
 296 878 l 1,32,-1
 331 878 l 1,33,-1
 331 823 l 1,34,-1
 296 823 l 1,31,-1
EndSplineSet
Position2: "'cpsp' Capital Spacing in Latin lookup 0 subtable" dx=5 dy=0 dh=10 dv=0
EndChar

StartChar: gdotaccent
Encoding: 289 289 226
Width: 501
GlyphClass: 2
Flags: W
LayerCount: 2
Fore
SplineSet
418.5 -202.5 m 128,-1,1
 368 -239 368 -239 251.5 -239 c 128,-1,2
 135 -239 135 -239 96.5 -205.5 c 128,-1,3
 58 -172 58 -172 58 -80 c 0,4,5
 58 -23 58 -23 96 11 c 0,6,7
 110 24 110 24 143 48 c 1,8,9
 121 62 121 62 121 113 c 0,10,11
 121 127 121 127 144 175 c 1,12,-1
 151 191 l 1,13,14
 65 219 65 219 65 343 c 0,15,16
 65 510 65 510 236 510 c 0,17,18
 288 510 288 510 328 500 c 1,19,-1
 342 497 l 1,20,-1
 482 500 l 1,21,-1
 482 465 l 1,22,-1
 374 465 l 1,23,24
 414 428 414 428 414 340.5 c 128,-1,25
 414 253 414 253 370.5 216 c 128,-1,26
 327 179 327 179 232 179 c 0,27,28
 202 179 202 179 178 183 c 1,29,30
 155 126 155 126 155 111 c 128,-1,31
 155 96 155 96 157 88 c 128,-1,32
 159 80 159 80 165 73 c 128,-1,33
 171 66 171 66 188 64 c 0,34,35
 219 59 219 59 305 59 c 128,-1,36
 391 59 391 59 430 31.5 c 128,-1,37
 469 4 469 4 469 -81 c 128,-1,0
 469 -166 469 -166 418.5 -202.5 c 128,-1,1
94 -79 m 0,38,39
 94 -153 94 -153 125.5 -180 c 128,-1,40
 157 -207 157 -207 253.5 -207 c 128,-1,41
 350 -207 350 -207 391 -178.5 c 128,-1,42
 432 -150 432 -150 432 -81.5 c 128,-1,43
 432 -13 432 -13 402 7 c 128,-1,44
 372 27 372 27 290 27 c 1,45,-1
 169 30 l 1,46,47
 124 -1 124 -1 109 -22.5 c 128,-1,48
 94 -44 94 -44 94 -79 c 0,38,39
132 240 m 128,-1,50
 163 211 163 211 238.5 211 c 128,-1,51
 314 211 314 211 345.5 239.5 c 128,-1,52
 377 268 377 268 377 343 c 128,-1,53
 377 418 377 418 345.5 448 c 128,-1,54
 314 478 314 478 238.5 478 c 128,-1,55
 163 478 163 478 132 447.5 c 128,-1,56
 101 417 101 417 101 343 c 128,-1,49
 101 269 101 269 132 240 c 128,-1,50
237 645 m 1,57,-1
 237 700 l 1,58,-1
 272 700 l 1,59,-1
 272 645 l 1,60,-1
 237 645 l 1,57,-1
EndSplineSet
EndChar

StartChar: Gcommaaccent
Encoding: 290 290 227
Width: 619
GlyphClass: 2
Flags: W
LayerCount: 2
Fore
SplineSet
361 313 m 1,0,-1
 361 347 l 1,1,-1
 547 347 l 1,2,-1
 547 16 l 1,3,4
 418 -9 418 -9 327 -9 c 0,5,6
 180 -9 180 -9 122.5 80 c 128,-1,7
 65 169 65 169 65 347 c 0,8,9
 65 434 65 434 76.5 496.5 c 128,-1,10
 88 559 88 559 116 609 c 0,11,12
 172 709 172 709 327 709 c 0,13,14
 416 709 416 709 516 690 c 2,15,-1
 547 684 l 1,16,-1
 544 649 l 1,17,18
 418 675 418 675 338 675 c 128,-1,19
 258 675 258 675 213 653 c 128,-1,20
 168 631 168 631 144.5 585 c 128,-1,21
 121 539 121 539 112 483.5 c 128,-1,22
 103 428 103 428 103 347.5 c 128,-1,23
 103 267 103 267 112.5 211.5 c 128,-1,24
 122 156 122 156 146 112 c 0,25,26
 193 25 193 25 327 25 c 0,27,28
 401 25 401 25 511 45 c 1,29,-1
 511 313 l 1,30,-1
 361 313 l 1,0,-1
324 -78 m 1,31,-1
 361 -78 l 1,32,-1
 315 -267 l 1,33,-1
 287 -267 l 1,34,-1
 324 -78 l 1,31,-1
EndSplineSet
Position2: "'cpsp' Capital Spacing in Latin lookup 0 subtable" dx=5 dy=0 dh=10 dv=0
EndChar

StartChar: gcommaaccent
Encoding: 291 291 228
Width: 501
GlyphClass: 2
Flags: W
LayerCount: 2
Fore
SplineSet
281 782 m 1,0,-1
 244 593 l 1,1,-1
 207 593 l 1,2,-1
 253 782 l 1,3,-1
 281 782 l 1,0,-1
418.5 -202.5 m 128,-1,5
 368 -239 368 -239 251.5 -239 c 128,-1,6
 135 -239 135 -239 96.5 -205.5 c 128,-1,7
 58 -172 58 -172 58 -80 c 0,8,9
 58 -23 58 -23 96 11 c 0,10,11
 110 24 110 24 143 48 c 1,12,13
 121 62 121 62 121 113 c 0,14,15
 121 127 121 127 144 175 c 1,16,-1
 151 191 l 1,17,18
 65 219 65 219 65 343 c 0,19,20
 65 510 65 510 236 510 c 0,21,22
 288 510 288 510 328 500 c 1,23,-1
 342 497 l 1,24,-1
 482 500 l 1,25,-1
 482 465 l 1,26,-1
 374 465 l 1,27,28
 414 428 414 428 414 340.5 c 128,-1,29
 414 253 414 253 370.5 216 c 128,-1,30
 327 179 327 179 232 179 c 0,31,32
 202 179 202 179 178 183 c 1,33,34
 155 126 155 126 155 111 c 128,-1,35
 155 96 155 96 157 88 c 128,-1,36
 159 80 159 80 165 73 c 128,-1,37
 171 66 171 66 188 64 c 0,38,39
 219 59 219 59 305 59 c 128,-1,40
 391 59 391 59 430 31.5 c 128,-1,41
 469 4 469 4 469 -81 c 128,-1,4
 469 -166 469 -166 418.5 -202.5 c 128,-1,5
94 -79 m 0,42,43
 94 -153 94 -153 125.5 -180 c 128,-1,44
 157 -207 157 -207 253.5 -207 c 128,-1,45
 350 -207 350 -207 391 -178.5 c 128,-1,46
 432 -150 432 -150 432 -81.5 c 128,-1,47
 432 -13 432 -13 402 7 c 128,-1,48
 372 27 372 27 290 27 c 1,49,-1
 169 30 l 1,50,51
 124 -1 124 -1 109 -22.5 c 128,-1,52
 94 -44 94 -44 94 -79 c 0,42,43
132 240 m 128,-1,54
 163 211 163 211 238.5 211 c 128,-1,55
 314 211 314 211 345.5 239.5 c 128,-1,56
 377 268 377 268 377 343 c 128,-1,57
 377 418 377 418 345.5 448 c 128,-1,58
 314 478 314 478 238.5 478 c 128,-1,59
 163 478 163 478 132 447.5 c 128,-1,60
 101 417 101 417 101 343 c 128,-1,53
 101 269 101 269 132 240 c 128,-1,54
EndSplineSet
EndChar

StartChar: Hcircumflex
Encoding: 292 292 229
Width: 674
GlyphClass: 2
Flags: W
LayerCount: 2
Fore
SplineSet
546 0 m 1,0,-1
 546 334 l 1,1,-1
 128 334 l 1,2,-1
 128 0 l 1,3,-1
 92 0 l 1,4,-1
 92 700 l 1,5,-1
 128 700 l 1,6,-1
 128 368 l 1,7,-1
 546 368 l 1,8,-1
 546 700 l 1,9,-1
 582 700 l 1,10,-1
 582 0 l 1,11,-1
 546 0 l 1,0,-1
189 809 m 1,12,-1
 323 934 l 1,13,-1
 353 934 l 1,14,-1
 487 809 l 1,15,-1
 442 809 l 1,16,-1
 338 905 l 1,17,-1
 235 809 l 1,18,-1
 189 809 l 1,12,-1
EndSplineSet
Position2: "'cpsp' Capital Spacing in Latin lookup 0 subtable" dx=5 dy=0 dh=10 dv=0
EndChar

StartChar: hcircumflex
Encoding: 293 293 230
Width: 526
GlyphClass: 2
Flags: W
LayerCount: 2
Fore
SplineSet
114 0 m 1,0,-1
 79 0 l 1,1,-1
 79 730 l 1,2,-1
 114 730 l 1,3,-1
 114 470 l 1,4,5
 202 509 202 509 295 509 c 128,-1,6
 388 509 388 509 420 458.5 c 128,-1,7
 452 408 452 408 452 260 c 2,8,-1
 452 0 l 1,9,-1
 417 0 l 1,10,-1
 417 258 l 2,11,12
 417 390 417 390 393 433.5 c 128,-1,13
 369 477 369 477 288 477 c 0,14,15
 248 477 248 477 204.5 467 c 128,-1,16
 161 457 161 457 138 447 c 2,17,-1
 114 437 l 1,18,-1
 114 0 l 1,0,-1
126 790 m 1,19,-1
 247 922 l 1,20,-1
 275 922 l 1,21,-1
 397 790 l 1,22,-1
 354 790 l 1,23,-1
 262 890 l 1,24,-1
 169 790 l 1,25,-1
 126 790 l 1,19,-1
EndSplineSet
EndChar

StartChar: Hbar
Encoding: 294 294 231
Width: 686
GlyphClass: 2
Flags: W
LayerCount: 2
Fore
SplineSet
12 522 m 1,0,-1
 12 554 l 1,1,-1
 96 554 l 1,2,-1
 96 700 l 1,3,-1
 132 700 l 1,4,-1
 132 554 l 1,5,-1
 550 554 l 1,6,-1
 550 700 l 1,7,-1
 586 700 l 1,8,-1
 586 554 l 1,9,-1
 679 554 l 1,10,-1
 679 522 l 1,11,-1
 586 522 l 1,12,-1
 586 0 l 1,13,-1
 550 0 l 1,14,-1
 550 334 l 1,15,-1
 132 334 l 1,16,-1
 132 0 l 1,17,-1
 96 0 l 1,18,-1
 96 522 l 1,19,-1
 12 522 l 1,0,-1
132 368 m 1,20,-1
 550 368 l 1,21,-1
 550 522 l 1,22,-1
 132 522 l 1,23,-1
 132 368 l 1,20,-1
EndSplineSet
Position2: "'cpsp' Capital Spacing in Latin lookup 0 subtable" dx=5 dy=0 dh=10 dv=0
EndChar

StartChar: hbar
Encoding: 295 295 232
Width: 526
GlyphClass: 2
Flags: W
LayerCount: 2
Fore
SplineSet
8 612 m 1,0,-1
 8 644 l 1,1,-1
 79 644 l 1,2,-1
 79 730 l 1,3,-1
 114 730 l 1,4,-1
 114 644 l 1,5,-1
 275 644 l 1,6,-1
 275 612 l 1,7,-1
 114 612 l 1,8,-1
 114 470 l 1,9,10
 202 509 202 509 295 509 c 128,-1,11
 388 509 388 509 420 458.5 c 128,-1,12
 452 408 452 408 452 260 c 2,13,-1
 452 0 l 1,14,-1
 417 0 l 1,15,-1
 417 258 l 2,16,17
 417 390 417 390 393 433.5 c 128,-1,18
 369 477 369 477 288 477 c 0,19,20
 248 477 248 477 204.5 467 c 128,-1,21
 161 457 161 457 138 447 c 2,22,-1
 114 437 l 1,23,-1
 114 0 l 1,24,-1
 79 0 l 1,25,-1
 79 612 l 1,26,-1
 8 612 l 1,0,-1
EndSplineSet
EndChar

StartChar: Itilde
Encoding: 296 296 233
Width: 220
GlyphClass: 2
Flags: W
LayerCount: 2
Fore
SplineSet
92 0 m 1,0,-1
 92 700 l 1,1,-1
 128 700 l 1,2,-1
 128 0 l 1,3,-1
 92 0 l 1,0,-1
256 885 m 1,4,5
 217 833 217 833 190 833 c 128,-1,6
 163 833 163 833 102.5 863 c 128,-1,7
 42 893 42 893 30 893 c 0,8,9
 8 893 8 893 -28 854 c 2,10,-1
 -40 841 l 1,11,-1
 -50 870 l 1,12,13
 -6 924 -6 924 27 924 c 0,14,15
 50 924 50 924 110.5 894.5 c 128,-1,16
 171 865 171 865 182 865 c 0,17,18
 203 865 203 865 234 901 c 1,19,-1
 245 913 l 1,20,-1
 256 885 l 1,4,5
EndSplineSet
Position2: "'cpsp' Capital Spacing in Latin lookup 0 subtable" dx=5 dy=0 dh=10 dv=0
EndChar

StartChar: itilde
Encoding: 297 297 234
Width: 193
GlyphClass: 2
Flags: W
LayerCount: 2
Fore
SplineSet
79 500 m 1,0,-1
 114 500 l 1,1,-1
 114 0 l 1,2,-1
 79 0 l 1,3,-1
 79 500 l 1,0,-1
247 673 m 1,4,5
 205 630 205 630 179 630 c 128,-1,6
 153 630 153 630 97.5 657 c 128,-1,7
 42 684 42 684 30 684 c 0,8,9
 8 684 8 684 -30 650 c 1,10,-1
 -43 639 l 1,11,-1
 -53 668 l 1,12,13
 -4 715 -4 715 29 715 c 0,14,15
 50 715 50 715 105.5 688.5 c 128,-1,16
 161 662 161 662 172 662 c 0,17,18
 193 662 193 662 226 692 c 2,19,-1
 238 703 l 1,20,-1
 247 673 l 1,4,5
EndSplineSet
EndChar

StartChar: Imacron
Encoding: 298 298 235
Width: 220
GlyphClass: 2
Flags: W
LayerCount: 2
Fore
SplineSet
92 0 m 1,0,-1
 92 700 l 1,1,-1
 128 700 l 1,2,-1
 128 0 l 1,3,-1
 92 0 l 1,0,-1
-32 832 m 1,4,-1
 -32 864 l 1,5,-1
 255 864 l 1,6,-1
 255 832 l 1,7,-1
 -32 832 l 1,4,-1
EndSplineSet
Position2: "'cpsp' Capital Spacing in Latin lookup 0 subtable" dx=5 dy=0 dh=10 dv=0
EndChar

StartChar: imacron
Encoding: 299 299 236
Width: 193
GlyphClass: 2
Flags: W
LayerCount: 2
Fore
SplineSet
79 500 m 1,0,-1
 114 500 l 1,1,-1
 114 0 l 1,2,-1
 79 0 l 1,3,-1
 79 500 l 1,0,-1
-37 642 m 1,4,-1
 -37 674 l 1,5,-1
 230 674 l 1,6,-1
 230 642 l 1,7,-1
 -37 642 l 1,4,-1
EndSplineSet
EndChar

StartChar: Ibreve
Encoding: 300 300 237
Width: 220
GlyphClass: 2
Flags: W
LayerCount: 2
Fore
SplineSet
92 0 m 1,0,-1
 92 700 l 1,1,-1
 128 700 l 1,2,-1
 128 0 l 1,3,-1
 92 0 l 1,0,-1
-26 924 m 1,4,-1
 9 924 l 1,5,6
 9 884 9 884 39 860.5 c 128,-1,7
 69 837 69 837 112 837 c 128,-1,8
 155 837 155 837 185 860.5 c 128,-1,9
 215 884 215 884 215 924 c 1,10,-1
 250 924 l 1,11,12
 250 870 250 870 210 837.5 c 128,-1,13
 170 805 170 805 112 805 c 128,-1,14
 54 805 54 805 14 837.5 c 128,-1,15
 -26 870 -26 870 -26 924 c 1,4,-1
EndSplineSet
Position2: "'cpsp' Capital Spacing in Latin lookup 0 subtable" dx=5 dy=0 dh=10 dv=0
EndChar

StartChar: ibreve
Encoding: 301 301 238
Width: 193
GlyphClass: 2
Flags: W
LayerCount: 2
Fore
SplineSet
79 500 m 1,0,-1
 114 500 l 1,1,-1
 114 0 l 1,2,-1
 79 0 l 1,3,-1
 79 500 l 1,0,-1
-41 723 m 1,4,-1
 -6 723 l 1,5,6
 -6 681 -6 681 21.5 654 c 128,-1,7
 49 627 49 627 97 627 c 128,-1,8
 145 627 145 627 172.5 654 c 128,-1,9
 200 681 200 681 200 723 c 1,10,-1
 235 723 l 1,11,12
 235 667 235 667 197 631 c 128,-1,13
 159 595 159 595 97 595 c 128,-1,14
 35 595 35 595 -3 631 c 128,-1,15
 -41 667 -41 667 -41 723 c 1,4,-1
EndSplineSet
EndChar

StartChar: Iogonek
Encoding: 302 302 239
Width: 220
GlyphClass: 2
Flags: W
LayerCount: 2
Fore
SplineSet
47 -116 m 0,0,1
 47 -137 47 -137 60 -151.5 c 128,-1,2
 73 -166 73 -166 94 -166 c 1,3,-1
 150 -159 l 1,4,-1
 154 -192 l 1,5,6
 118 -200 118 -200 86.5 -200 c 128,-1,7
 55 -200 55 -200 32.5 -178 c 128,-1,8
 10 -156 10 -156 10 -116.5 c 128,-1,9
 10 -77 10 -77 92 5 c 1,10,-1
 92 700 l 1,11,-1
 128 700 l 1,12,-1
 128 0 l 1,13,14
 47 -84 47 -84 47 -116 c 0,0,1
EndSplineSet
Position2: "'cpsp' Capital Spacing in Latin lookup 0 subtable" dx=5 dy=0 dh=10 dv=0
EndChar

StartChar: iogonek
Encoding: 303 303 240
Width: 193
GlyphClass: 2
Flags: W
LayerCount: 2
Fore
SplineSet
114 500 m 1,0,-1
 114 0 l 1,1,2
 33 -84 33 -84 33 -116 c 0,3,4
 33 -137 33 -137 46 -151.5 c 128,-1,5
 59 -166 59 -166 80 -166 c 1,6,-1
 136 -159 l 1,7,-1
 140 -192 l 1,8,9
 104 -200 104 -200 72.5 -200 c 128,-1,10
 41 -200 41 -200 18.5 -178 c 128,-1,11
 -4 -156 -4 -156 -4 -118 c 0,12,13
 -4 -100 -4 -100 16 -70 c 0,14,15
 44 -29 44 -29 79 3 c 1,16,-1
 79 500 l 1,17,-1
 114 500 l 1,0,-1
79 645 m 1,18,-1
 79 700 l 1,19,-1
 114 700 l 1,20,-1
 114 645 l 1,21,-1
 79 645 l 1,18,-1
EndSplineSet
EndChar

StartChar: Idotaccent
Encoding: 304 304 241
Width: 220
GlyphClass: 2
Flags: W
LayerCount: 2
Fore
SplineSet
92 0 m 1,0,-1
 92 700 l 1,1,-1
 128 700 l 1,2,-1
 128 0 l 1,3,-1
 92 0 l 1,0,-1
93 823 m 1,4,-1
 93 878 l 1,5,-1
 128 878 l 1,6,-1
 128 823 l 1,7,-1
 93 823 l 1,4,-1
EndSplineSet
Position2: "'cpsp' Capital Spacing in Latin lookup 0 subtable" dx=5 dy=0 dh=10 dv=0
EndChar

StartChar: dotlessi
Encoding: 305 305 242
Width: 193
GlyphClass: 2
Flags: W
LayerCount: 2
Fore
SplineSet
79 0 m 1,0,-1
 79 500 l 1,1,-1
 114 500 l 1,2,-1
 114 0 l 1,3,-1
 79 0 l 1,0,-1
EndSplineSet
EndChar

StartChar: Jcircumflex
Encoding: 308 308 243
Width: 280
GlyphClass: 2
Flags: W
LayerCount: 2
Fore
SplineSet
191 700 m 1,0,-1
 191 81 l 2,1,2
 191 3 191 3 172 -26 c 0,3,4
 161 -43 161 -43 150 -52.5 c 128,-1,5
 139 -62 139 -62 116 -66 c 0,6,7
 82 -73 82 -73 18 -73 c 1,8,-1
 18 -39 l 1,9,10
 115 -39 115 -39 131 -22 c 0,11,12
 151 0 151 0 153 30.5 c 128,-1,13
 155 61 155 61 155 96 c 2,14,-1
 155 700 l 1,15,-1
 191 700 l 1,0,-1
23 804 m 1,16,-1
 157 929 l 1,17,-1
 187 929 l 1,18,-1
 321 804 l 1,19,-1
 276 804 l 1,20,-1
 172 900 l 1,21,-1
 69 804 l 1,22,-1
 23 804 l 1,16,-1
EndSplineSet
Position2: "'cpsp' Capital Spacing in Latin lookup 0 subtable" dx=5 dy=0 dh=10 dv=0
EndChar

StartChar: jcircumflex
Encoding: 309 309 244
Width: 193
GlyphClass: 2
Flags: W
LayerCount: 2
Fore
SplineSet
79 6 m 2,0,-1
 79 500 l 1,1,-1
 114 500 l 1,2,-1
 114 5 l 2,3,4
 114 -80 114 -80 82.5 -124.5 c 128,-1,5
 51 -169 51 -169 -45 -218 c 1,6,-1
 -59 -187 l 1,7,8
 27 -140 27 -140 53 -103.5 c 128,-1,9
 79 -67 79 -67 79 6 c 2,0,-1
-43 600 m 1,10,-1
 78 732 l 1,11,-1
 106 732 l 1,12,-1
 228 600 l 1,13,-1
 185 600 l 1,14,-1
 93 700 l 1,15,-1
 0 600 l 1,16,-1
 -43 600 l 1,10,-1
EndSplineSet
EndChar

StartChar: Kcommaaccent
Encoding: 310 310 245
Width: 553
GlyphClass: 2
Flags: W
LayerCount: 2
Fore
SplineSet
128 329 m 1,0,-1
 128 0 l 1,1,-1
 92 0 l 1,2,-1
 92 700 l 1,3,-1
 128 700 l 1,4,-1
 128 363 l 1,5,-1
 257 363 l 1,6,-1
 477 700 l 1,7,-1
 520 700 l 1,8,-1
 289 348 l 1,9,-1
 536 0 l 1,10,-1
 490 0 l 1,11,-1
 259 329 l 1,12,-1
 128 329 l 1,0,-1
277 -78 m 1,13,-1
 314 -78 l 1,14,-1
 268 -267 l 1,15,-1
 240 -267 l 1,16,-1
 277 -78 l 1,13,-1
EndSplineSet
Position2: "'cpsp' Capital Spacing in Latin lookup 0 subtable" dx=5 dy=0 dh=10 dv=0
EndChar

StartChar: kcommaaccent
Encoding: 311 311 246
Width: 455
GlyphClass: 2
Flags: W
LayerCount: 2
Fore
SplineSet
173 -267 m 1,0,-1
 210 -78 l 1,1,-1
 247 -78 l 1,2,-1
 201 -267 l 1,3,-1
 173 -267 l 1,0,-1
114 0 m 1,4,-1
 79 0 l 1,5,-1
 79 730 l 1,6,-1
 114 730 l 1,7,-1
 114 289 l 1,8,-1
 210 289 l 1,9,-1
 382 500 l 1,10,-1
 424 500 l 1,11,-1
 240 274 l 1,12,-1
 432 0 l 1,13,-1
 390 0 l 1,14,-1
 210 257 l 1,15,-1
 114 257 l 1,16,-1
 114 0 l 1,4,-1
EndSplineSet
EndChar

StartChar: Lacute
Encoding: 313 313 247
Width: 483
GlyphClass: 2
Flags: W
LayerCount: 2
Fore
SplineSet
469 0 m 1,0,-1
 92 0 l 1,1,-1
 92 700 l 1,2,-1
 128 700 l 1,3,-1
 128 34 l 1,4,-1
 469 34 l 1,5,-1
 469 0 l 1,0,-1
150 826 m 1,6,-1
 342 922 l 1,7,-1
 358 891 l 1,8,-1
 165 799 l 1,9,-1
 150 826 l 1,6,-1
EndSplineSet
Position2: "'cpsp' Capital Spacing in Latin lookup 0 subtable" dx=5 dy=0 dh=10 dv=0
EndChar

StartChar: lacute
Encoding: 314 314 248
Width: 205
GlyphClass: 2
Flags: W
LayerCount: 2
Fore
SplineSet
85 0 m 1,0,-1
 85 730 l 1,1,-1
 120 730 l 1,2,-1
 120 0 l 1,3,-1
 85 0 l 1,0,-1
59 836 m 1,4,-1
 251 932 l 1,5,-1
 267 901 l 1,6,-1
 74 809 l 1,7,-1
 59 836 l 1,4,-1
EndSplineSet
EndChar

StartChar: Lcommaaccent
Encoding: 315 315 249
Width: 483
GlyphClass: 2
Flags: W
LayerCount: 2
Fore
SplineSet
265 -78 m 1,0,-1
 302 -78 l 1,1,-1
 256 -267 l 1,2,-1
 228 -267 l 1,3,-1
 265 -78 l 1,0,-1
469 0 m 1,4,-1
 92 0 l 1,5,-1
 92 700 l 1,6,-1
 128 700 l 1,7,-1
 128 34 l 1,8,-1
 469 34 l 1,9,-1
 469 0 l 1,4,-1
EndSplineSet
Position2: "'cpsp' Capital Spacing in Latin lookup 0 subtable" dx=5 dy=0 dh=10 dv=0
EndChar

StartChar: lcommaaccent
Encoding: 316 316 250
Width: 205
GlyphClass: 2
Flags: W
LayerCount: 2
Fore
SplineSet
85 0 m 1,0,-1
 85 730 l 1,1,-1
 120 730 l 1,2,-1
 120 0 l 1,3,-1
 85 0 l 1,0,-1
79 -78 m 1,4,-1
 116 -78 l 1,5,-1
 70 -267 l 1,6,-1
 42 -267 l 1,7,-1
 79 -78 l 1,4,-1
EndSplineSet
EndChar

StartChar: Lcaron
Encoding: 317 317 251
Width: 492
GlyphClass: 2
Flags: W
LayerCount: 2
Fore
SplineSet
424 700 m 1,0,-1
 424 483 l 1,1,-1
 390 483 l 1,2,-1
 390 700 l 1,3,-1
 424 700 l 1,0,-1
469 0 m 1,4,-1
 92 0 l 1,5,-1
 92 700 l 1,6,-1
 128 700 l 1,7,-1
 128 34 l 1,8,-1
 469 34 l 1,9,-1
 469 0 l 1,4,-1
EndSplineSet
Position2: "'cpsp' Capital Spacing in Latin lookup 0 subtable" dx=5 dy=0 dh=10 dv=0
EndChar

StartChar: lcaron
Encoding: 318 318 252
Width: 199
GlyphClass: 2
Flags: W
LayerCount: 2
Fore
SplineSet
223 687 m 1,0,-1
 260 687 l 1,1,-1
 214 498 l 1,2,-1
 186 498 l 1,3,-1
 223 687 l 1,0,-1
85 0 m 1,4,-1
 85 730 l 1,5,-1
 120 730 l 1,6,-1
 120 0 l 1,7,-1
 85 0 l 1,4,-1
EndSplineSet
EndChar

StartChar: Lslash
Encoding: 321 321 253
Width: 485
GlyphClass: 2
Flags: W
LayerCount: 2
Fore
SplineSet
471 0 m 1,0,-1
 94 0 l 1,1,-1
 94 308 l 1,2,-1
 28 262 l 1,3,-1
 9 288 l 1,4,-1
 94 347 l 1,5,-1
 94 700 l 1,6,-1
 130 700 l 1,7,-1
 130 373 l 1,8,-1
 301 493 l 1,9,-1
 320 467 l 1,10,-1
 130 333 l 1,11,-1
 130 34 l 1,12,-1
 471 34 l 1,13,-1
 471 0 l 1,0,-1
EndSplineSet
Position2: "'cpsp' Capital Spacing in Latin lookup 0 subtable" dx=5 dy=0 dh=10 dv=0
EndChar

StartChar: lslash
Encoding: 322 322 254
Width: 263
GlyphClass: 2
Flags: W
LayerCount: 2
Fore
SplineSet
111 0 m 1,0,-1
 111 319 l 1,1,-1
 33 265 l 1,2,-1
 14 292 l 1,3,-1
 111 360 l 1,4,-1
 111 730 l 1,5,-1
 146 730 l 1,6,-1
 146 384 l 1,7,-1
 227 441 l 1,8,-1
 246 414 l 1,9,-1
 146 344 l 1,10,-1
 146 0 l 1,11,-1
 111 0 l 1,0,-1
EndSplineSet
EndChar

StartChar: Nacute
Encoding: 323 323 255
Width: 665
GlyphClass: 2
Flags: W
LayerCount: 2
Fore
SplineSet
92 0 m 1,0,-1
 92 700 l 1,1,-1
 177 700 l 1,2,-1
 510 34 l 1,3,-1
 537 34 l 1,4,-1
 537 700 l 1,5,-1
 573 700 l 1,6,-1
 573 0 l 1,7,-1
 488 0 l 1,8,-1
 154 666 l 1,9,-1
 128 666 l 1,10,-1
 128 0 l 1,11,-1
 92 0 l 1,0,-1
232 826 m 1,12,-1
 424 922 l 1,13,-1
 440 891 l 1,14,-1
 247 799 l 1,15,-1
 232 826 l 1,12,-1
EndSplineSet
Position2: "'cpsp' Capital Spacing in Latin lookup 0 subtable" dx=5 dy=0 dh=10 dv=0
EndChar

StartChar: nacute
Encoding: 324 324 256
Width: 527
GlyphClass: 2
Flags: W
LayerCount: 2
Fore
SplineSet
79 0 m 1,0,-1
 79 500 l 1,1,-1
 114 500 l 1,2,-1
 114 460 l 1,3,-1
 138 472 l 2,4,5
 163 484 163 484 207 496.5 c 128,-1,6
 251 509 251 509 289 509 c 0,7,8
 389 509 389 509 421 458.5 c 128,-1,9
 453 408 453 408 453 260 c 2,10,-1
 453 0 l 1,11,-1
 418 0 l 1,12,-1
 418 258 l 2,13,14
 418 390 418 390 394 433.5 c 128,-1,15
 370 477 370 477 289 477 c 0,16,17
 249 477 249 477 196.5 461 c 128,-1,18
 144 445 144 445 114 427 c 1,19,-1
 114 0 l 1,20,-1
 79 0 l 1,0,-1
170 636 m 1,21,-1
 362 732 l 1,22,-1
 378 701 l 1,23,-1
 185 609 l 1,24,-1
 170 636 l 1,21,-1
EndSplineSet
EndChar

StartChar: Ncommaaccent
Encoding: 325 325 257
Width: 665
GlyphClass: 2
Flags: W
LayerCount: 2
Fore
SplineSet
340 -78 m 1,0,-1
 377 -78 l 1,1,-1
 331 -267 l 1,2,-1
 303 -267 l 1,3,-1
 340 -78 l 1,0,-1
92 0 m 1,4,-1
 92 700 l 1,5,-1
 177 700 l 1,6,-1
 510 34 l 1,7,-1
 537 34 l 1,8,-1
 537 700 l 1,9,-1
 573 700 l 1,10,-1
 573 0 l 1,11,-1
 488 0 l 1,12,-1
 154 666 l 1,13,-1
 128 666 l 1,14,-1
 128 0 l 1,15,-1
 92 0 l 1,4,-1
EndSplineSet
Position2: "'cpsp' Capital Spacing in Latin lookup 0 subtable" dx=5 dy=0 dh=10 dv=0
EndChar

StartChar: ncommaaccent
Encoding: 326 326 258
Width: 527
GlyphClass: 2
Flags: W
LayerCount: 2
Fore
SplineSet
219 -267 m 1,0,-1
 256 -78 l 1,1,-1
 293 -78 l 1,2,-1
 247 -267 l 1,3,-1
 219 -267 l 1,0,-1
114 0 m 1,4,-1
 79 0 l 1,5,-1
 79 500 l 1,6,-1
 114 500 l 1,7,-1
 114 460 l 1,8,9
 203 509 203 509 296 509 c 128,-1,10
 389 509 389 509 421 458.5 c 128,-1,11
 453 408 453 408 453 260 c 2,12,-1
 453 0 l 1,13,-1
 418 0 l 1,14,-1
 418 258 l 2,15,16
 418 390 418 390 394 433.5 c 128,-1,17
 370 477 370 477 289 477 c 0,18,19
 249 477 249 477 205.5 464.5 c 128,-1,20
 162 452 162 452 138 440 c 2,21,-1
 114 427 l 1,22,-1
 114 0 l 1,4,-1
EndSplineSet
EndChar

StartChar: Ncaron
Encoding: 327 327 259
Width: 665
GlyphClass: 2
Flags: W
LayerCount: 2
Fore
SplineSet
92 0 m 1,0,-1
 92 700 l 1,1,-1
 177 700 l 1,2,-1
 510 34 l 1,3,-1
 537 34 l 1,4,-1
 537 700 l 1,5,-1
 573 700 l 1,6,-1
 573 0 l 1,7,-1
 488 0 l 1,8,-1
 154 666 l 1,9,-1
 128 666 l 1,10,-1
 128 0 l 1,11,-1
 92 0 l 1,0,-1
318 804 m 1,12,-1
 184 929 l 1,13,-1
 229 929 l 1,14,-1
 333 833 l 1,15,-1
 436 929 l 1,16,-1
 482 929 l 1,17,-1
 348 804 l 1,18,-1
 318 804 l 1,12,-1
EndSplineSet
Position2: "'cpsp' Capital Spacing in Latin lookup 0 subtable" dx=5 dy=0 dh=10 dv=0
EndChar

StartChar: ncaron
Encoding: 328 328 260
Width: 527
GlyphClass: 2
Flags: W
LayerCount: 2
Fore
SplineSet
114 0 m 1,0,-1
 79 0 l 1,1,-1
 79 500 l 1,2,-1
 114 500 l 1,3,-1
 114 460 l 1,4,5
 203 509 203 509 296 509 c 128,-1,6
 389 509 389 509 421 458.5 c 128,-1,7
 453 408 453 408 453 260 c 2,8,-1
 453 0 l 1,9,-1
 418 0 l 1,10,-1
 418 258 l 2,11,12
 418 390 418 390 394 433.5 c 128,-1,13
 370 477 370 477 289 477 c 0,14,15
 249 477 249 477 205.5 464.5 c 128,-1,16
 162 452 162 452 138 440 c 2,17,-1
 114 427 l 1,18,-1
 114 0 l 1,0,-1
250 600 m 1,19,-1
 129 732 l 1,20,-1
 171 732 l 1,21,-1
 265 633 l 1,22,-1
 358 732 l 1,23,-1
 400 732 l 1,24,-1
 278 600 l 1,25,-1
 250 600 l 1,19,-1
EndSplineSet
EndChar

StartChar: Eng
Encoding: 330 330 261
Width: 665
GlyphClass: 2
Flags: W
LayerCount: 2
Fore
SplineSet
92 0 m 1,0,-1
 92 700 l 1,1,-1
 177 700 l 1,2,-1
 510 34 l 1,3,-1
 537 34 l 1,4,-1
 537 700 l 1,5,-1
 573 700 l 1,6,-1
 573 -19 l 2,7,8
 573 -97 573 -97 554 -126 c 0,9,10
 543 -143 543 -143 532 -152.5 c 128,-1,11
 521 -162 521 -162 498 -166 c 0,12,13
 464 -173 464 -173 400 -173 c 1,14,-1
 400 -139 l 1,15,16
 497 -139 497 -139 513 -122 c 0,17,18
 533 -100 533 -100 535 -69.5 c 128,-1,19
 537 -39 537 -39 537 -4 c 2,20,-1
 537 0 l 1,21,-1
 488 0 l 1,22,-1
 154 666 l 1,23,-1
 128 666 l 1,24,-1
 128 0 l 1,25,-1
 92 0 l 1,0,-1
EndSplineSet
Position2: "'cpsp' Capital Spacing in Latin lookup 0 subtable" dx=5 dy=0 dh=10 dv=0
EndChar

StartChar: eng
Encoding: 331 331 262
Width: 528
GlyphClass: 2
Flags: W
LayerCount: 2
Fore
SplineSet
114 0 m 1,0,-1
 79 0 l 1,1,-1
 79 500 l 1,2,-1
 114 500 l 1,3,-1
 114 460 l 1,4,5
 204 509 204 509 296.5 509 c 128,-1,6
 389 509 389 509 421.5 456 c 128,-1,7
 454 403 454 403 454 260 c 2,8,-1
 454 -7 l 2,9,10
 454 -92 454 -92 425 -134.5 c 128,-1,11
 396 -177 396 -177 305 -230 c 1,12,-1
 291 -199 l 1,13,14
 370 -152 370 -152 394.5 -115.5 c 128,-1,15
 419 -79 419 -79 419 -6 c 2,16,-1
 419 258 l 2,17,18
 419 384 419 384 394.5 430.5 c 128,-1,19
 370 477 370 477 290 477 c 0,20,21
 250 477 250 477 206 464.5 c 128,-1,22
 162 452 162 452 138 440 c 2,23,-1
 114 427 l 1,24,-1
 114 0 l 1,0,-1
EndSplineSet
EndChar

StartChar: Omacron
Encoding: 332 332 263
Width: 666
GlyphClass: 2
Flags: W
LayerCount: 2
Fore
SplineSet
216 45 m 128,-1,1
 262 25 262 25 333.5 25 c 128,-1,2
 405 25 405 25 450.5 43.5 c 128,-1,3
 496 62 496 62 520.5 104.5 c 128,-1,4
 545 147 545 147 554 203 c 128,-1,5
 563 259 563 259 563 347 c 0,6,7
 563 515 563 515 514.5 595 c 128,-1,8
 466 675 466 675 333 675 c 0,9,10
 194 675 194 675 146 588 c 0,11,12
 122 544 122 544 112.5 487.5 c 128,-1,13
 103 431 103 431 103 346.5 c 128,-1,14
 103 262 103 262 112 207 c 128,-1,15
 121 152 121 152 145.5 108.5 c 128,-1,0
 170 65 170 65 216 45 c 128,-1,1
118 82 m 0,16,17
 88 130 88 130 76.5 192.5 c 128,-1,18
 65 255 65 255 65 347 c 0,19,20
 65 531 65 531 123 620 c 128,-1,21
 181 709 181 709 333 709 c 128,-1,22
 485 709 485 709 543 620.5 c 128,-1,23
 601 532 601 532 601 344 c 128,-1,24
 601 156 601 156 544.5 73.5 c 128,-1,25
 488 -9 488 -9 331 -9 c 128,-1,26
 174 -9 174 -9 118 82 c 0,16,17
190 832 m 1,27,-1
 190 864 l 1,28,-1
 477 864 l 1,29,-1
 477 832 l 1,30,-1
 190 832 l 1,27,-1
EndSplineSet
Position2: "'cpsp' Capital Spacing in Latin lookup 0 subtable" dx=5 dy=0 dh=10 dv=0
EndChar

StartChar: omacron
Encoding: 333 333 264
Width: 526
GlyphClass: 2
Flags: W
LayerCount: 2
Fore
SplineSet
263 509 m 128,-1,1
 374 509 374 509 420 453 c 128,-1,2
 466 397 466 397 466 251 c 128,-1,3
 466 105 466 105 425 48 c 128,-1,4
 384 -9 384 -9 263 -9 c 128,-1,5
 142 -9 142 -9 101 48 c 128,-1,6
 60 105 60 105 60 251 c 128,-1,7
 60 397 60 397 106 453 c 128,-1,0
 152 509 152 509 263 509 c 128,-1,1
263 23 m 128,-1,9
 319 23 319 23 351.5 34.5 c 128,-1,10
 384 46 384 46 401.5 77.5 c 128,-1,11
 419 109 419 109 424 148.5 c 128,-1,12
 429 188 429 188 429 259 c 0,13,14
 429 385 429 385 394 431 c 128,-1,15
 359 477 359 477 263 477 c 128,-1,16
 167 477 167 477 132 431 c 128,-1,17
 97 385 97 385 97 259 c 0,18,19
 97 188 97 188 102 148.5 c 128,-1,20
 107 109 107 109 124.5 77.5 c 128,-1,21
 142 46 142 46 174.5 34.5 c 128,-1,8
 207 23 207 23 263 23 c 128,-1,9
130 662 m 1,22,-1
 130 694 l 1,23,-1
 397 694 l 1,24,-1
 397 662 l 1,25,-1
 130 662 l 1,22,-1
EndSplineSet
EndChar

StartChar: Obreve
Encoding: 334 334 265
Width: 666
GlyphClass: 2
Flags: W
LayerCount: 2
Fore
SplineSet
216 45 m 128,-1,1
 262 25 262 25 333.5 25 c 128,-1,2
 405 25 405 25 450.5 43.5 c 128,-1,3
 496 62 496 62 520.5 104.5 c 128,-1,4
 545 147 545 147 554 203 c 128,-1,5
 563 259 563 259 563 347 c 0,6,7
 563 515 563 515 514.5 595 c 128,-1,8
 466 675 466 675 333 675 c 0,9,10
 194 675 194 675 146 588 c 0,11,12
 122 544 122 544 112.5 487.5 c 128,-1,13
 103 431 103 431 103 346.5 c 128,-1,14
 103 262 103 262 112 207 c 128,-1,15
 121 152 121 152 145.5 108.5 c 128,-1,0
 170 65 170 65 216 45 c 128,-1,1
118 82 m 0,16,17
 88 130 88 130 76.5 192.5 c 128,-1,18
 65 255 65 255 65 347 c 0,19,20
 65 531 65 531 123 620 c 128,-1,21
 181 709 181 709 333 709 c 128,-1,22
 485 709 485 709 543 620.5 c 128,-1,23
 601 532 601 532 601 344 c 128,-1,24
 601 156 601 156 544.5 73.5 c 128,-1,25
 488 -9 488 -9 331 -9 c 128,-1,26
 174 -9 174 -9 118 82 c 0,16,17
196 924 m 1,27,-1
 231 924 l 1,28,29
 231 884 231 884 261 860.5 c 128,-1,30
 291 837 291 837 334 837 c 128,-1,31
 377 837 377 837 407 860.5 c 128,-1,32
 437 884 437 884 437 924 c 1,33,-1
 472 924 l 1,34,35
 472 870 472 870 432 837.5 c 128,-1,36
 392 805 392 805 334 805 c 128,-1,37
 276 805 276 805 236 837.5 c 128,-1,38
 196 870 196 870 196 924 c 1,27,-1
EndSplineSet
Position2: "'cpsp' Capital Spacing in Latin lookup 0 subtable" dx=5 dy=0 dh=10 dv=0
EndChar

StartChar: obreve
Encoding: 335 335 266
Width: 526
GlyphClass: 2
Flags: W
LayerCount: 2
Fore
SplineSet
263 509 m 128,-1,1
 374 509 374 509 420 453 c 128,-1,2
 466 397 466 397 466 251 c 128,-1,3
 466 105 466 105 425 48 c 128,-1,4
 384 -9 384 -9 263 -9 c 128,-1,5
 142 -9 142 -9 101 48 c 128,-1,6
 60 105 60 105 60 251 c 128,-1,7
 60 397 60 397 106 453 c 128,-1,0
 152 509 152 509 263 509 c 128,-1,1
263 23 m 128,-1,9
 319 23 319 23 351.5 34.5 c 128,-1,10
 384 46 384 46 401.5 77.5 c 128,-1,11
 419 109 419 109 424 148.5 c 128,-1,12
 429 188 429 188 429 259 c 0,13,14
 429 385 429 385 394 431 c 128,-1,15
 359 477 359 477 263 477 c 128,-1,16
 167 477 167 477 132 431 c 128,-1,17
 97 385 97 385 97 259 c 0,18,19
 97 188 97 188 102 148.5 c 128,-1,20
 107 109 107 109 124.5 77.5 c 128,-1,21
 142 46 142 46 174.5 34.5 c 128,-1,8
 207 23 207 23 263 23 c 128,-1,9
128 723 m 1,22,-1
 163 723 l 1,23,24
 163 681 163 681 190.5 654 c 128,-1,25
 218 627 218 627 266 627 c 128,-1,26
 314 627 314 627 341.5 654 c 128,-1,27
 369 681 369 681 369 723 c 1,28,-1
 404 723 l 1,29,30
 404 667 404 667 366 631 c 128,-1,31
 328 595 328 595 266 595 c 128,-1,32
 204 595 204 595 166 631 c 128,-1,33
 128 667 128 667 128 723 c 1,22,-1
EndSplineSet
EndChar

StartChar: Ohungarumlaut
Encoding: 336 336 267
Width: 666
GlyphClass: 2
Flags: W
LayerCount: 2
Fore
SplineSet
216 45 m 128,-1,1
 262 25 262 25 333.5 25 c 128,-1,2
 405 25 405 25 450.5 43.5 c 128,-1,3
 496 62 496 62 520.5 104.5 c 128,-1,4
 545 147 545 147 554 203 c 128,-1,5
 563 259 563 259 563 347 c 0,6,7
 563 515 563 515 514.5 595 c 128,-1,8
 466 675 466 675 333 675 c 0,9,10
 194 675 194 675 146 588 c 0,11,12
 122 544 122 544 112.5 487.5 c 128,-1,13
 103 431 103 431 103 346.5 c 128,-1,14
 103 262 103 262 112 207 c 128,-1,15
 121 152 121 152 145.5 108.5 c 128,-1,0
 170 65 170 65 216 45 c 128,-1,1
118 82 m 0,16,17
 88 130 88 130 76.5 192.5 c 128,-1,18
 65 255 65 255 65 347 c 0,19,20
 65 531 65 531 123 620 c 128,-1,21
 181 709 181 709 333 709 c 128,-1,22
 485 709 485 709 543 620.5 c 128,-1,23
 601 532 601 532 601 344 c 128,-1,24
 601 156 601 156 544.5 73.5 c 128,-1,25
 488 -9 488 -9 331 -9 c 128,-1,26
 174 -9 174 -9 118 82 c 0,16,17
337 791 m 1,27,-1
 528 878 l 1,28,-1
 543 849 l 1,29,-1
 351 761 l 1,30,-1
 337 791 l 1,27,-1
146 791 m 1,31,-1
 338 879 l 1,32,-1
 352 849 l 1,33,-1
 161 762 l 1,34,-1
 146 791 l 1,31,-1
EndSplineSet
Position2: "'cpsp' Capital Spacing in Latin lookup 0 subtable" dx=5 dy=0 dh=10 dv=0
EndChar

StartChar: ohungarumlaut
Encoding: 337 337 268
Width: 526
GlyphClass: 2
Flags: W
LayerCount: 2
Fore
SplineSet
263 509 m 128,-1,1
 374 509 374 509 420 453 c 128,-1,2
 466 397 466 397 466 251 c 128,-1,3
 466 105 466 105 425 48 c 128,-1,4
 384 -9 384 -9 263 -9 c 128,-1,5
 142 -9 142 -9 101 48 c 128,-1,6
 60 105 60 105 60 251 c 128,-1,7
 60 397 60 397 106 453 c 128,-1,0
 152 509 152 509 263 509 c 128,-1,1
263 23 m 128,-1,9
 319 23 319 23 351.5 34.5 c 128,-1,10
 384 46 384 46 401.5 77.5 c 128,-1,11
 419 109 419 109 424 148.5 c 128,-1,12
 429 188 429 188 429 259 c 0,13,14
 429 385 429 385 394 431 c 128,-1,15
 359 477 359 477 263 477 c 128,-1,16
 167 477 167 477 132 431 c 128,-1,17
 97 385 97 385 97 259 c 0,18,19
 97 188 97 188 102 148.5 c 128,-1,20
 107 109 107 109 124.5 77.5 c 128,-1,21
 142 46 142 46 174.5 34.5 c 128,-1,8
 207 23 207 23 263 23 c 128,-1,9
305 622 m 1,22,-1
 468 726 l 1,23,-1
 486 699 l 1,24,-1
 323 595 l 1,25,-1
 305 622 l 1,22,-1
120 622 m 1,26,-1
 283 726 l 1,27,-1
 301 699 l 1,28,-1
 138 595 l 1,29,-1
 120 622 l 1,26,-1
EndSplineSet
EndChar

StartChar: OE
Encoding: 338 338 269
Width: 940
GlyphClass: 2
Flags: W
LayerCount: 2
Fore
SplineSet
889 -1 m 1,0,-1
 491 -1 l 1,1,2
 407 -9 407 -9 330 -9 c 128,-1,3
 253 -9 253 -9 200 13 c 128,-1,4
 147 35 147 35 117.5 82.5 c 128,-1,5
 88 130 88 130 76.5 192 c 128,-1,6
 65 254 65 254 65 345 c 128,-1,7
 65 436 65 436 77 499.5 c 128,-1,8
 89 563 89 563 118 612 c 0,9,10
 176 709 176 709 333 709 c 0,11,12
 434 709 434 709 490 700 c 1,13,-1
 889 700 l 1,14,-1
 889 664 l 1,15,-1
 526 664 l 1,16,-1
 526 378 l 1,17,-1
 829 378 l 1,18,-1
 829 342 l 1,19,-1
 526 342 l 1,20,-1
 526 36 l 1,21,-1
 889 36 l 1,22,-1
 889 -1 l 1,0,-1
216 45 m 128,-1,24
 262 25 262 25 323.5 25 c 128,-1,25
 385 25 385 25 490 34 c 1,26,-1
 490 663 l 1,27,28
 350 675 350 675 333 675 c 0,29,30
 194 675 194 675 146 588 c 0,31,32
 122 544 122 544 112.5 487.5 c 128,-1,33
 103 431 103 431 103 346.5 c 128,-1,34
 103 262 103 262 112 207 c 128,-1,35
 121 152 121 152 145.5 108.5 c 128,-1,23
 170 65 170 65 216 45 c 128,-1,24
EndSplineSet
Position2: "'cpsp' Capital Spacing in Latin lookup 0 subtable" dx=5 dy=0 dh=10 dv=0
EndChar

StartChar: oe
Encoding: 339 339 270
Width: 873
GlyphClass: 2
Flags: W
LayerCount: 2
Fore
SplineSet
770 30 m 1,0,-1
 800 32 l 1,1,-1
 802 0 l 1,2,3
 690 -9 690 -9 617 -9 c 0,4,5
 487 -9 487 -9 448 98 c 1,6,7
 430 42 430 42 387 16.5 c 128,-1,8
 344 -9 344 -9 265 -9 c 0,9,10
 143 -9 143 -9 101.5 49 c 128,-1,11
 60 107 60 107 60 253 c 128,-1,12
 60 399 60 399 106.5 454 c 128,-1,13
 153 509 153 509 265 509 c 0,14,15
 411 509 411 509 449 389 c 1,16,17
 493 509 493 509 631 509 c 0,18,19
 726 509 726 509 773.5 452 c 128,-1,20
 821 395 821 395 821 269 c 2,21,-1
 821 236 l 1,22,-1
 466 236 l 1,23,24
 466 128 466 128 500 75.5 c 128,-1,25
 534 23 534 23 613 23 c 128,-1,26
 692 23 692 23 770 30 c 1,0,-1
177 35 m 128,-1,28
 210 23 210 23 264.5 23 c 128,-1,29
 319 23 319 23 352.5 36.5 c 128,-1,30
 386 50 386 50 402.5 82.5 c 128,-1,31
 419 115 419 115 424 154 c 128,-1,32
 429 193 429 193 429 259 c 0,33,34
 429 377 429 377 389.5 427 c 128,-1,35
 350 477 350 477 259 477 c 128,-1,36
 168 477 168 477 132.5 431.5 c 128,-1,37
 97 386 97 386 97 261 c 0,38,39
 97 191 97 191 102.5 150.5 c 128,-1,40
 108 110 108 110 126 78.5 c 128,-1,27
 144 47 144 47 177 35 c 128,-1,28
466 268 m 1,41,-1
 784 268 l 1,42,43
 784 381 784 381 747.5 429 c 128,-1,44
 711 477 711 477 631 477 c 0,45,46
 466 477 466 477 466 268 c 1,41,-1
EndSplineSet
EndChar

StartChar: Racute
Encoding: 340 340 271
Width: 613
GlyphClass: 2
Flags: W
LayerCount: 2
Fore
SplineSet
128 290 m 1,0,-1
 128 0 l 1,1,-1
 92 0 l 1,2,-1
 92 700 l 1,3,-1
 343 700 l 2,4,5
 449 700 449 700 500 652 c 128,-1,6
 551 604 551 604 551 500 c 0,7,8
 551 323 551 323 406 295 c 1,9,-1
 564 0 l 1,10,-1
 523 0 l 1,11,-1
 367 290 l 1,12,-1
 128 290 l 1,0,-1
513 500 m 0,13,14
 513 587 513 587 472 626.5 c 128,-1,15
 431 666 431 666 343 666 c 2,16,-1
 128 666 l 1,17,-1
 128 324 l 1,18,-1
 343 324 l 2,19,20
 513 324 513 324 513 500 c 0,13,14
199 826 m 1,21,-1
 391 922 l 1,22,-1
 407 891 l 1,23,-1
 214 799 l 1,24,-1
 199 826 l 1,21,-1
EndSplineSet
Position2: "'cpsp' Capital Spacing in Latin lookup 0 subtable" dx=5 dy=0 dh=10 dv=0
EndChar

StartChar: racute
Encoding: 341 341 272
Width: 328
GlyphClass: 2
Flags: W
LayerCount: 2
Fore
SplineSet
79 0 m 1,0,-1
 79 500 l 1,1,-1
 114 500 l 1,2,-1
 114 422 l 1,3,4
 144 446 144 446 203.5 473.5 c 128,-1,5
 263 501 263 501 312 510 c 1,6,-1
 312 474 l 1,7,8
 268 465 268 465 218.5 444 c 128,-1,9
 169 423 169 423 142 406 c 2,10,-1
 114 389 l 1,11,-1
 114 0 l 1,12,-1
 79 0 l 1,0,-1
79 636 m 1,13,-1
 271 732 l 1,14,-1
 287 701 l 1,15,-1
 94 609 l 1,16,-1
 79 636 l 1,13,-1
EndSplineSet
EndChar

StartChar: Rcommaaccent
Encoding: 342 342 273
Width: 613
GlyphClass: 2
Flags: W
LayerCount: 2
Fore
SplineSet
268 -267 m 1,0,-1
 305 -78 l 1,1,-1
 342 -78 l 1,2,-1
 296 -267 l 1,3,-1
 268 -267 l 1,0,-1
128 290 m 1,4,-1
 128 0 l 1,5,-1
 92 0 l 1,6,-1
 92 700 l 1,7,-1
 343 700 l 2,8,9
 449 700 449 700 500 652 c 128,-1,10
 551 604 551 604 551 500 c 0,11,12
 551 323 551 323 406 295 c 1,13,-1
 564 0 l 1,14,-1
 523 0 l 1,15,-1
 367 290 l 1,16,-1
 128 290 l 1,4,-1
513 500 m 0,17,18
 513 587 513 587 472 626.5 c 128,-1,19
 431 666 431 666 343 666 c 2,20,-1
 128 666 l 1,21,-1
 128 324 l 1,22,-1
 343 324 l 2,23,24
 513 324 513 324 513 500 c 0,17,18
EndSplineSet
Position2: "'cpsp' Capital Spacing in Latin lookup 0 subtable" dx=5 dy=0 dh=10 dv=0
EndChar

StartChar: rcommaaccent
Encoding: 343 343 274
Width: 328
GlyphClass: 2
Flags: W
LayerCount: 2
Fore
SplineSet
79 -78 m 1,0,-1
 116 -78 l 1,1,-1
 70 -267 l 1,2,-1
 42 -267 l 1,3,-1
 79 -78 l 1,0,-1
79 0 m 1,4,-1
 79 500 l 1,5,-1
 114 500 l 1,6,-1
 114 422 l 1,7,8
 144 446 144 446 203.5 473.5 c 128,-1,9
 263 501 263 501 312 510 c 1,10,-1
 312 474 l 1,11,12
 268 465 268 465 218.5 444 c 128,-1,13
 169 423 169 423 142 406 c 2,14,-1
 114 389 l 1,15,-1
 114 0 l 1,16,-1
 79 0 l 1,4,-1
EndSplineSet
EndChar

StartChar: Rcaron
Encoding: 344 344 275
Width: 613
GlyphClass: 2
Flags: W
LayerCount: 2
Fore
SplineSet
128 290 m 1,0,-1
 128 0 l 1,1,-1
 92 0 l 1,2,-1
 92 700 l 1,3,-1
 343 700 l 2,4,5
 449 700 449 700 500 652 c 128,-1,6
 551 604 551 604 551 500 c 0,7,8
 551 323 551 323 406 295 c 1,9,-1
 564 0 l 1,10,-1
 523 0 l 1,11,-1
 367 290 l 1,12,-1
 128 290 l 1,0,-1
513 500 m 0,13,14
 513 587 513 587 472 626.5 c 128,-1,15
 431 666 431 666 343 666 c 2,16,-1
 128 666 l 1,17,-1
 128 324 l 1,18,-1
 343 324 l 2,19,20
 513 324 513 324 513 500 c 0,13,14
286 809 m 1,21,-1
 152 934 l 1,22,-1
 197 934 l 1,23,-1
 301 838 l 1,24,-1
 404 934 l 1,25,-1
 450 934 l 1,26,-1
 316 809 l 1,27,-1
 286 809 l 1,21,-1
EndSplineSet
Position2: "'cpsp' Capital Spacing in Latin lookup 0 subtable" dx=5 dy=0 dh=10 dv=0
EndChar

StartChar: rcaron
Encoding: 345 345 276
Width: 328
GlyphClass: 2
Flags: W
LayerCount: 2
Fore
SplineSet
79 0 m 1,0,-1
 79 500 l 1,1,-1
 114 500 l 1,2,-1
 114 422 l 1,3,4
 144 446 144 446 203.5 473.5 c 128,-1,5
 263 501 263 501 312 510 c 1,6,-1
 312 474 l 1,7,8
 268 465 268 465 218.5 444 c 128,-1,9
 169 423 169 423 142 406 c 2,10,-1
 114 389 l 1,11,-1
 114 0 l 1,12,-1
 79 0 l 1,0,-1
161 600 m 1,13,-1
 40 732 l 1,14,-1
 82 732 l 1,15,-1
 176 633 l 1,16,-1
 269 732 l 1,17,-1
 311 732 l 1,18,-1
 189 600 l 1,19,-1
 161 600 l 1,13,-1
EndSplineSet
EndChar

StartChar: Sacute
Encoding: 346 346 277
Width: 540
GlyphClass: 2
Flags: W
LayerCount: 2
Fore
SplineSet
272 677 m 0,0,1
 94 677 94 677 94 537 c 0,2,3
 94 474 94 474 115 446 c 0,4,5
 127 431 127 431 140 420.5 c 128,-1,6
 153 410 153 410 178 402 c 0,7,8
 219 390 219 390 282 380 c 0,9,10
 391 363 391 363 438.5 327.5 c 128,-1,11
 486 292 486 292 486 203 c 0,12,13
 486 90 486 90 433.5 41.5 c 128,-1,14
 381 -7 381 -7 274 -7 c 0,15,16
 208 -7 208 -7 97 5 c 2,17,-1
 60 9 l 1,18,-1
 64 44 l 1,19,20
 202 27 202 27 282 27 c 0,21,22
 448 27 448 27 448 200 c 0,23,24
 448 273 448 273 410 301 c 128,-1,25
 372 329 372 329 292.5 341 c 128,-1,26
 213 353 213 353 179.5 362.5 c 128,-1,27
 146 372 146 372 114.5 392 c 128,-1,28
 83 412 83 412 69.5 446.5 c 128,-1,29
 56 481 56 481 56 535 c 0,30,31
 56 711 56 711 272 711 c 0,32,33
 341 711 341 711 438 699 c 2,34,-1
 471 695 l 1,35,-1
 467 660 l 1,36,37
 330 677 330 677 272 677 c 0,0,1
177 826 m 1,38,-1
 369 922 l 1,39,-1
 385 891 l 1,40,-1
 192 799 l 1,41,-1
 177 826 l 1,38,-1
EndSplineSet
Position2: "'cpsp' Capital Spacing in Latin lookup 0 subtable" dx=5 dy=0 dh=10 dv=0
EndChar

StartChar: sacute
Encoding: 347 347 278
Width: 461
GlyphClass: 2
Flags: W
LayerCount: 2
Fore
SplineSet
222 477 m 0,0,1
 88 477 88 477 88 377 c 0,2,3
 88 330 88 330 116 310.5 c 128,-1,4
 144 291 144 291 240 276 c 128,-1,5
 336 261 336 261 374 236 c 128,-1,6
 412 211 412 211 412 135.5 c 128,-1,7
 412 60 412 60 364 25.5 c 128,-1,8
 316 -9 316 -9 222 -9 c 0,9,10
 171 -9 171 -9 86 3 c 2,11,-1
 57 7 l 1,12,-1
 61 40 l 1,13,14
 169 23 169 23 233 23 c 128,-1,15
 297 23 297 23 336 48 c 128,-1,16
 375 73 375 73 375 133 c 128,-1,17
 375 193 375 193 344.5 212 c 128,-1,18
 314 231 314 231 219.5 245.5 c 128,-1,19
 125 260 125 260 88 284.5 c 128,-1,20
 51 309 51 309 51 367 c 128,-1,21
 51 425 51 425 78 456.5 c 128,-1,22
 105 488 105 488 141 498.5 c 128,-1,23
 177 509 177 509 216 509 c 0,24,25
 297 509 297 509 368 498 c 2,26,-1
 394 494 l 1,27,-1
 392 461 l 1,28,29
 290 477 290 477 222 477 c 0,0,1
129 636 m 1,30,-1
 321 732 l 1,31,-1
 337 701 l 1,32,-1
 144 609 l 1,33,-1
 129 636 l 1,30,-1
EndSplineSet
EndChar

